<svg width="387" height="829" viewBox="0 0 387 829" fill="none" xmlns="http://www.w3.org/2000/svg">
<path d="M-255.418 394.288L-255.418 394.289C-259.072 404.856 -265.507 413.819 -273.764 420.543L-273.765 420.544C-280.024 425.606 -287.383 429.364 -295.277 431.479L-444.231 471.391C-456.224 474.605 -463.387 487.01 -460.173 499.004L-352.832 899.605C-349.618 911.599 -337.213 918.761 -325.219 915.547L-150.962 868.855C-138.967 865.641 -131.783 853.322 -135.019 841.242C-147.237 795.82 -173.16 699.247 -196.029 614.029C-207.464 571.42 -218.135 531.65 -225.947 502.532C-229.853 487.973 -233.045 476.077 -235.26 467.821L-237.817 458.289L-238.485 455.799L-238.655 455.163L-238.698 455.002L-238.709 454.962L-238.712 454.952C-238.713 454.95 -238.713 454.948 -238.23 454.819L-238.713 454.948C-240.609 447.871 -239.78 440.35 -236.491 433.876L-236.489 433.872C-232.49 426.169 -225.672 420.834 -217.712 418.7C-212.493 417.302 -206.896 417.32 -201.343 418.957L-201.338 418.959L194.172 539.919C210.768 544.995 216.339 565.783 204.504 578.476L-99.6962 904.725L-99.6983 904.727C-103.932 909.213 -105.483 915.611 -103.896 921.534L-48.2799 1129.1C-43.7214 1146.11 -22.1183 1151.53 -10.0976 1138.56L-10.0965 1138.56L311.778 793.406C311.779 793.406 311.779 793.406 311.779 793.406C315.931 788.938 317.564 782.515 315.979 776.596L249.575 528.775L191.583 312.344C189.973 306.338 185.456 301.656 179.518 299.799L-255.418 394.288ZM-255.418 394.288C-251.509 382.893 -251.546 370.497 -254.667 358.849L-300.147 189.113C-304.705 172.104 -288.776 156.708 -271.808 161.829L179.515 299.798L-255.418 394.288Z" stroke="url(#paint0_linear_2807_4175)"/>
<path d="M137.016 255.418L-314.311 117.447C-331.65 112.214 -347.938 127.949 -343.278 145.34L-297.797 315.076C-294.698 326.641 -294.666 338.934 -298.538 350.223C-302.161 360.7 -308.541 369.586 -316.727 376.253C-322.931 381.271 -330.228 384.996 -338.054 387.093L-487.007 427.005C-499.268 430.291 -506.588 442.97 -503.303 455.23L-395.962 855.832C-392.677 868.092 -379.998 875.413 -367.737 872.127L-193.48 825.435C-181.219 822.15 -173.875 809.558 -177.184 797.21C-201.619 706.365 -280.877 410.916 -280.877 410.916C-282.741 403.96 -281.927 396.565 -278.693 390.2C-274.759 382.622 -268.056 377.378 -260.23 375.281C-255.099 373.906 -249.596 373.923 -244.132 375.534L151.379 496.494C167.621 501.462 173.073 521.809 161.491 534.233L-142.709 860.481C-147.065 865.096 -148.657 871.674 -147.026 877.761L-91.4104 1085.32C-86.7505 1102.71 -64.6676 1108.26 -52.3783 1094.99L269.497 749.844C273.765 745.252 275.445 738.651 273.814 732.564L207.411 484.742L149.418 268.312C147.764 262.138 143.119 257.325 137.016 255.418Z" fill="url(#paint1_linear_2807_4175)"/>
<defs>
<linearGradient id="paint0_linear_2807_4175" x1="237.179" y1="469.391" x2="-15.5755" y2="659.496" gradientUnits="userSpaceOnUse">
<stop stop-color="#E3E7EC"/>
<stop offset="1" stop-color="#E3E7EC" stop-opacity="0"/>
</linearGradient>
<linearGradient id="paint1_linear_2807_4175" x1="174.53" y1="508.276" x2="-50.1402" y2="588.263" gradientUnits="userSpaceOnUse">
<stop stop-color="#F3F3F7"/>
<stop offset="1" stop-color="#F3F3F7" stop-opacity="0"/>
</linearGradient>
</defs>
</svg>
