<svg width="316" height="401" viewBox="0 0 316 401" fill="none" xmlns="http://www.w3.org/2000/svg">
<path d="M110.796 149.527C110.313 149.657 110.313 149.657 110.313 149.658L110.314 149.661L110.318 149.675L110.332 149.727L110.388 149.936L110.607 150.753L111.446 153.879L114.501 165.265C117.063 174.817 120.563 187.862 124.314 201.839C131.816 229.792 140.319 261.47 144.327 276.37C145.34 280.152 143.091 284.009 139.335 285.016L82.1746 300.332C78.4196 301.338 74.5347 299.095 73.5285 295.34L38.3184 163.934C37.3122 160.179 39.5552 156.294 43.3102 155.288L92.1703 142.196C94.8049 141.49 97.2613 140.236 99.351 138.546L99.3523 138.545C102.108 136.3 104.256 133.309 105.475 129.782L105.476 129.781C106.782 125.971 106.767 121.836 105.729 117.96L90.8102 62.2829C89.384 56.9604 94.3686 52.1374 99.6845 53.7417L247.725 98.9979C247.726 98.9981 247.726 98.9982 247.727 98.9984C249.566 99.5734 250.962 101.021 251.459 102.879L270.482 173.873L292.264 255.164C292.754 256.993 292.249 258.981 290.965 260.363L185.383 373.579L185.382 373.58C181.619 377.642 174.856 375.944 173.428 370.618L155.185 302.533C154.694 300.701 155.175 298.723 156.482 297.338L156.484 297.335L256.268 190.319C260.32 185.973 258.413 178.858 252.732 177.121L122.996 137.443L122.991 137.442C121.11 136.887 119.211 136.88 117.439 137.355C114.738 138.079 112.424 139.89 111.069 142.502L111.067 142.506C109.951 144.702 109.669 147.254 110.313 149.657L110.313 149.657L110.796 149.527Z" stroke="url(#paint0_linear_245_8036)"/>
<path d="M233.885 84.1193L85.8397 38.8617C80.1521 37.1451 74.8095 42.3064 76.338 48.011L91.2566 103.688C92.2731 107.482 92.2837 111.514 91.0137 115.217C89.8251 118.654 87.7324 121.569 85.0473 123.756C83.0121 125.402 80.6187 126.624 78.0517 127.312L29.1915 140.404C25.1698 141.481 22.7685 145.64 23.8462 149.662L59.0563 281.068C60.1339 285.09 64.293 287.491 68.3148 286.413L125.475 271.097C129.497 270.02 131.906 265.889 130.82 261.839C122.805 232.04 96.8067 135.126 96.8067 135.126C96.1953 132.844 96.4625 130.419 97.5233 128.331C98.8138 125.845 101.013 124.125 103.58 123.437C105.262 122.986 107.068 122.991 108.86 123.52L238.596 163.197C243.924 164.827 245.713 171.501 241.913 175.577L142.129 282.593C140.7 284.107 140.178 286.265 140.713 288.261L158.956 356.346C160.485 362.051 167.728 363.87 171.759 359.519L277.342 246.302C278.742 244.795 279.293 242.63 278.758 240.634L256.976 159.343L237.953 88.3486C237.411 86.3234 235.887 84.7446 233.885 84.1193Z" fill="url(#paint1_linear_245_8036)"/>
<defs>
<linearGradient id="paint0_linear_245_8036" x1="266.741" y1="154.307" x2="183.832" y2="216.666" gradientUnits="userSpaceOnUse">
<stop stop-color="#E3E7EC"/>
<stop offset="1" stop-color="#E3E7EC" stop-opacity="0"/>
</linearGradient>
<linearGradient id="paint1_linear_245_8036" x1="246.19" y1="167.062" x2="172.494" y2="193.3" gradientUnits="userSpaceOnUse">
<stop stop-color="#F3F3F7"/>
<stop offset="1" stop-color="#F3F3F7" stop-opacity="0"/>
</linearGradient>
</defs>
</svg>
