<svg width="317" height="401" viewBox="0 0 317 401" fill="none" xmlns="http://www.w3.org/2000/svg">
<path d="M205.477 149.527C205.96 149.657 205.96 149.657 205.96 149.658L205.959 149.661L205.956 149.675L205.942 149.727L205.886 149.936L205.666 150.753L204.828 153.879L201.773 165.265C199.21 174.817 195.71 187.862 191.959 201.839C184.458 229.792 175.954 261.47 171.947 276.37C170.933 280.152 173.182 284.009 176.938 285.016L234.099 300.332C237.854 301.338 241.739 299.095 242.745 295.34L277.955 163.934C278.961 160.179 276.718 156.294 272.963 155.288L224.103 142.196C221.469 141.49 219.012 140.236 216.922 138.546L216.921 138.545C214.166 136.3 212.018 133.309 210.798 129.782L210.798 129.781C209.491 125.971 209.506 121.836 210.545 117.96L225.463 62.2829C226.889 56.9604 221.905 52.1374 216.589 53.7417L68.5482 98.9979C68.5476 98.9981 68.547 98.9982 68.5464 98.9984C66.7079 99.5734 65.3118 101.021 64.814 102.879L45.7912 173.873L24.0093 255.164C23.5194 256.993 24.0245 258.981 25.3086 260.363L130.89 373.579L130.891 373.58C134.654 377.642 141.418 375.944 142.845 370.618L161.088 302.533C161.579 300.701 161.099 298.723 159.792 297.338L159.79 297.335L60.0052 190.319C55.9538 185.973 57.8603 178.858 63.5417 177.121L193.278 137.443L193.283 137.442C195.163 136.887 197.062 136.88 198.834 137.355C201.536 138.079 203.849 139.89 205.205 142.502L205.207 142.506C206.323 144.702 206.604 147.254 205.96 149.657L205.96 149.657L205.477 149.527Z" stroke="url(#paint0_linear_245_8039)"/>
<path d="M82.3883 84.1193L230.434 38.8617C236.121 37.1451 241.464 42.3064 239.935 48.011L225.017 103.688C224 107.482 223.99 111.514 225.26 115.217C226.448 118.654 228.541 121.569 231.226 123.756C233.261 125.402 235.655 126.624 238.222 127.312L287.082 140.404C291.104 141.481 293.505 145.64 292.427 149.662L257.217 281.068C256.14 285.09 251.98 287.491 247.959 286.413L190.798 271.097C186.777 270.02 184.368 265.889 185.453 261.839C193.468 232.04 219.467 135.126 219.467 135.126C220.078 132.844 219.811 130.419 218.75 128.331C217.46 125.845 215.261 124.125 212.694 123.437C211.011 122.986 209.206 122.991 207.413 123.52L77.6772 163.197C72.3492 164.827 70.5608 171.501 74.3602 175.577L174.145 282.593C175.573 284.107 176.096 286.265 175.561 288.261L157.317 356.346C155.789 362.051 148.545 363.87 144.514 359.519L38.9317 246.302C37.5316 244.795 36.9806 242.63 37.5156 240.634L59.2975 159.343L78.3203 88.3486C78.8629 86.3234 80.3865 84.7446 82.3883 84.1193Z" fill="url(#paint1_linear_245_8039)"/>
<defs>
<linearGradient id="paint0_linear_245_8039" x1="49.5329" y1="154.307" x2="132.442" y2="216.666" gradientUnits="userSpaceOnUse">
<stop stop-color="#E3E7EC"/>
<stop offset="1" stop-color="#E3E7EC" stop-opacity="0"/>
</linearGradient>
<linearGradient id="paint1_linear_245_8039" x1="70.083" y1="167.062" x2="143.78" y2="193.3" gradientUnits="userSpaceOnUse">
<stop stop-color="#F3F3F7"/>
<stop offset="1" stop-color="#F3F3F7" stop-opacity="0"/>
</linearGradient>
</defs>
</svg>
