<svg width="32" height="32" viewBox="0 0 32 32" fill="none" xmlns="http://www.w3.org/2000/svg">
<rect width="32" height="32" rx="16" fill="#003399"/>
<path d="M16.0007 3.81592L16.6276 5.61963L18.5368 5.65854L17.0151 6.8122L17.5681 8.63996L16.0007 7.54925L14.4332 8.63996L14.9862 6.8122L13.4645 5.65854L15.3737 5.61963L16.0007 3.81592Z" fill="#FFCC00"/>
<path d="M16.0007 22.8507L16.6276 24.6544L18.5368 24.6933L17.0151 25.847L17.5681 27.6748L16.0007 26.584L14.4332 27.6748L14.9862 25.847L13.4645 24.6933L15.3737 24.6544L16.0007 22.8507Z" fill="#FFCC00"/>
<path d="M9.05534 19.8359L9.68231 21.6397L11.5915 21.6786L10.0698 22.8322L10.6228 24.66L9.05534 23.5693L7.48791 24.66L8.04088 22.8322L6.51919 21.6786L8.42837 21.6397L9.05534 19.8359Z" fill="#FFCC00"/>
<path d="M22.9447 19.8359L22.3177 21.6397L20.4085 21.6786L21.9302 22.8322L21.3772 24.66L22.9447 23.5693L24.5121 24.66L23.9591 22.8322L25.4808 21.6786L23.5716 21.6397L22.9447 19.8359Z" fill="#FFCC00"/>
<path d="M5.73698 13.4288L6.36395 15.2325L8.27313 15.2715L6.75144 16.4251L7.30441 18.2529L5.73698 17.1622L4.16955 18.2529L4.72252 16.4251L3.20083 15.2715L5.11001 15.2325L5.73698 13.4288Z" fill="#FFCC00"/>
<path d="M26.263 13.4288L25.636 15.2325L23.7269 15.2715L25.2486 16.4251L24.6956 18.2529L26.263 17.1622L27.8304 18.2529L27.2775 16.4251L28.7992 15.2715L26.89 15.2325L26.263 13.4288Z" fill="#FFCC00"/>
<path d="M9.05534 7.02087L9.68231 8.82459L11.5915 8.8635L10.0698 10.0172L10.6228 11.8449L9.05534 10.7542L7.48791 11.8449L8.04088 10.0172L6.51919 8.8635L8.42837 8.82459L9.05534 7.02087Z" fill="#FFCC00"/>
<path d="M22.9447 7.02087L22.3177 8.82459L20.4085 8.8635L21.9302 10.0172L21.3772 11.8449L22.9447 10.7542L24.5121 11.8449L23.9591 10.0172L25.4808 8.8635L23.5716 8.82459L22.9447 7.02087Z" fill="#FFCC00"/>
</svg>
