<svg width="32" height="32" viewBox="0 0 32 32" fill="none" xmlns="http://www.w3.org/2000/svg">
<rect width="32" height="32" rx="16" fill="#EE1F25"/>
<path d="M7.30309 9.87341L8.04984 12.0217L10.3238 12.0681L8.51136 13.4421L9.16997 15.6191L7.30309 14.32L5.4362 15.6191L6.09481 13.4421L4.2824 12.0681L6.55633 12.0217L7.30309 9.87341Z" fill="#FFCC00"/>
<path d="M13.3844 6.18494L13.7875 7.34462L15.015 7.36964L14.0367 8.11138L14.3922 9.28653L13.3844 8.58526L12.3767 9.28653L12.7322 8.11138L11.7538 7.36964L12.9813 7.34462L13.3844 6.18494Z" fill="#FFCC00"/>
<path d="M13.3851 16.4845L12.982 17.6442L11.7545 17.6692L12.7329 18.4109L12.3773 19.5861L13.3851 18.8848L14.3929 19.5861L14.0373 18.4109L15.0157 17.6692L13.7882 17.6442L13.3851 16.4845Z" fill="#FFCC00"/>
<path d="M17.8519 14.0223L17.4488 15.182L16.2213 15.207L17.1996 15.9488L16.8441 17.1239L17.8519 16.4227L18.8597 17.1239L18.5041 15.9488L19.4825 15.207L18.255 15.182L17.8519 14.0223Z" fill="#FFCC00"/>
<path d="M17.8519 8.64636L17.4488 9.80605L16.2213 9.83106L17.1996 10.5728L16.8441 11.748L17.8519 11.0467L18.8597 11.748L18.5041 10.5728L19.4825 9.83106L18.255 9.80605L17.8519 8.64636Z" fill="#FFCC00"/>
</svg>
