<svg width="120" height="121" viewBox="0 0 120 121" fill="none" xmlns="http://www.w3.org/2000/svg">
<g clip-path="url(#clip0_2418_44316)">
<rect y="0.761719" width="120" height="120" rx="60" fill="#F9F9FB"/>
<rect width="120" height="120" transform="translate(0 0.761719)" fill="url(#paint0_linear_2418_44316)"/>
<path opacity="0.32" d="M95.3365 33.5558L95.7744 37.3854L98.872 39.6795L95.0424 40.1175L92.7483 43.2151L92.3103 39.3854L89.2127 37.0913L93.0424 36.6534L95.3365 33.5558Z" fill="#5F4CC8"/>
<path opacity="0.24" d="M26.4828 31.8066L28.2934 33.2456L30.5809 32.9047L29.142 34.7153L29.4828 37.0028L27.6723 35.5638L25.3848 35.9047L26.8237 34.0941L26.4828 31.8066Z" fill="#0086C9"/>
<path opacity="0.16" d="M55.9023 9.50391L56.7509 11.6554L58.9023 12.5039L56.7509 13.3524L55.9023 15.5039L55.0538 13.3524L52.9023 12.5039L55.0538 11.6554L55.9023 9.50391Z" fill="#47389E"/>
<path opacity="0.16" d="M38.7942 95.4844L41.2083 97.403L44.2583 96.9485L42.3397 99.3626L42.7942 102.413L40.3801 100.494L37.3301 100.948L39.2487 98.5344L38.7942 95.4844Z" fill="#47389E"/>
<g filter="url(#filter0_d_2418_44316)">
<path d="M82.5 75.7627C82.5 76.1605 82.342 76.542 82.0607 76.8233C81.7794 77.1046 81.3978 77.2627 81 77.2627H39C38.6022 77.2627 38.2206 77.1046 37.9393 76.8233C37.658 76.542 37.5 76.1605 37.5 75.7627C37.5 75.3648 37.658 74.9833 37.9393 74.702C38.2206 74.4207 38.6022 74.2627 39 74.2627H81C81.3978 74.2627 81.7794 74.4207 82.0607 74.702C82.342 74.9833 82.5 75.3648 82.5 75.7627ZM39.0562 55.1714C38.967 54.8568 38.983 54.5217 39.1019 54.2171C39.2207 53.9125 39.4357 53.655 39.7144 53.4839L59.2144 41.4839C59.4507 41.3386 59.7226 41.2617 60 41.2617C60.2774 41.2617 60.5493 41.3386 60.7856 41.4839L80.2856 53.4839C80.5643 53.6548 80.7796 53.9121 80.8986 54.2166C81.0176 54.5211 81.0339 54.8561 80.945 55.1708C80.856 55.4854 80.6667 55.7623 80.4059 55.9594C80.145 56.1565 79.8269 56.263 79.5 56.2627H75V68.2627H78C78.3978 68.2627 78.7794 68.4207 79.0607 68.702C79.342 68.9833 79.5 69.3648 79.5 69.7627C79.5 70.1605 79.342 70.542 79.0607 70.8233C78.7794 71.1046 78.3978 71.2627 78 71.2627H42C41.6022 71.2627 41.2206 71.1046 40.9393 70.8233C40.658 70.542 40.5 70.1605 40.5 69.7627C40.5 69.3648 40.658 68.9833 40.9393 68.702C41.2206 68.4207 41.6022 68.2627 42 68.2627H45V56.2627H40.5C40.1734 56.2628 39.8556 56.1563 39.595 55.9593C39.3344 55.7623 39.1453 55.4857 39.0562 55.1714ZM63 66.7627C63 67.1605 63.158 67.542 63.4393 67.8233C63.7206 68.1046 64.1022 68.2627 64.5 68.2627C64.8978 68.2627 65.2794 68.1046 65.5607 67.8233C65.842 67.542 66 67.1605 66 66.7627V57.7627C66 57.3648 65.842 56.9833 65.5607 56.702C65.2794 56.4207 64.8978 56.2627 64.5 56.2627C64.1022 56.2627 63.7206 56.4207 63.4393 56.702C63.158 56.9833 63 57.3648 63 57.7627V66.7627ZM54 66.7627C54 67.1605 54.158 67.542 54.4393 67.8233C54.7206 68.1046 55.1022 68.2627 55.5 68.2627C55.8978 68.2627 56.2794 68.1046 56.5607 67.8233C56.842 67.542 57 67.1605 57 66.7627V57.7627C57 57.3648 56.842 56.9833 56.5607 56.702C56.2794 56.4207 55.8978 56.2627 55.5 56.2627C55.1022 56.2627 54.7206 56.4207 54.4393 56.702C54.158 56.9833 54 57.3648 54 57.7627V66.7627Z" fill="#8872FD"/>
</g>
</g>
<defs>
<filter id="filter0_d_2418_44316" x="29.5" y="37.2617" width="57" height="48" filterUnits="userSpaceOnUse" color-interpolation-filters="sRGB">
<feFlood flood-opacity="0" result="BackgroundImageFix"/>
<feColorMatrix in="SourceAlpha" type="matrix" values="0 0 0 0 0 0 0 0 0 0 0 0 0 0 0 0 0 0 127 0" result="hardAlpha"/>
<feMorphology radius="2" operator="erode" in="SourceAlpha" result="effect1_dropShadow_2418_44316"/>
<feOffset dx="-2" dy="2"/>
<feGaussianBlur stdDeviation="4"/>
<feComposite in2="hardAlpha" operator="out"/>
<feColorMatrix type="matrix" values="0 0 0 0 0.108753 0 0 0 0 0.0721875 0 0 0 0 0.320833 0 0 0 0.11 0"/>
<feBlend mode="normal" in2="BackgroundImageFix" result="effect1_dropShadow_2418_44316"/>
<feBlend mode="normal" in="SourceGraphic" in2="effect1_dropShadow_2418_44316" result="shape"/>
</filter>
<linearGradient id="paint0_linear_2418_44316" x1="46.812" y1="-12.9994" x2="96.3652" y2="87.7406" gradientUnits="userSpaceOnUse">
<stop stop-color="#F2F0FF"/>
<stop offset="0.507946" stop-color="#EAF6FF"/>
<stop offset="1" stop-color="#FEF0EB" stop-opacity="0"/>
</linearGradient>
<clipPath id="clip0_2418_44316">
<rect y="0.761719" width="120" height="120" rx="60" fill="white"/>
</clipPath>
</defs>
</svg>
