<svg width="20" height="20" viewBox="0 0 20 20" fill="none" xmlns="http://www.w3.org/2000/svg">
<path d="M17.5 3.90723H2.5C2.20992 3.90723 1.93172 4.02246 1.7266 4.22758C1.52148 4.4327 1.40625 4.7109 1.40625 5.00098V15.001C1.40625 15.2911 1.52148 15.5693 1.7266 15.7744C1.93172 15.9795 2.20992 16.0947 2.5 16.0947H17.5C17.7901 16.0947 18.0683 15.9795 18.2734 15.7744C18.4785 15.5693 18.5938 15.2911 18.5938 15.001V5.00098C18.5938 4.7109 18.4785 4.4327 18.2734 4.22758C18.0683 4.02246 17.7901 3.90723 17.5 3.90723ZM2.5 4.84473H17.5C17.5414 4.84473 17.5812 4.86119 17.6105 4.89049C17.6398 4.91979 17.6562 4.95954 17.6562 5.00098V7.03223H2.34375V5.00098C2.34375 4.95954 2.36021 4.91979 2.38951 4.89049C2.41882 4.86119 2.45856 4.84473 2.5 4.84473ZM17.5 15.1572H2.5C2.45856 15.1572 2.41882 15.1408 2.38951 15.1115C2.36021 15.0822 2.34375 15.0424 2.34375 15.001V7.96973H17.6562V15.001C17.6562 15.0424 17.6398 15.0822 17.6105 15.1115C17.5812 15.1408 17.5414 15.1572 17.5 15.1572ZM16.0938 13.126C16.0938 13.2503 16.0444 13.3695 15.9565 13.4574C15.8685 13.5453 15.7493 13.5947 15.625 13.5947H13.125C13.0007 13.5947 12.8815 13.5453 12.7935 13.4574C12.7056 13.3695 12.6562 13.2503 12.6562 13.126C12.6562 13.0017 12.7056 12.8824 12.7935 12.7945C12.8815 12.7066 13.0007 12.6572 13.125 12.6572H15.625C15.7493 12.6572 15.8685 12.7066 15.9565 12.7945C16.0444 12.8824 16.0938 13.0017 16.0938 13.126ZM11.0938 13.126C11.0938 13.2503 11.0444 13.3695 10.9565 13.4574C10.8685 13.5453 10.7493 13.5947 10.625 13.5947H9.375C9.25068 13.5947 9.13145 13.5453 9.04354 13.4574C8.95564 13.3695 8.90625 13.2503 8.90625 13.126C8.90625 13.0017 8.95564 12.8824 9.04354 12.7945C9.13145 12.7066 9.25068 12.6572 9.375 12.6572H10.625C10.7493 12.6572 10.8685 12.7066 10.9565 12.7945C11.0444 12.8824 11.0938 13.0017 11.0938 13.126Z" fill="#8C94A6"/>
</svg>
