<svg width="24" height="25" viewBox="0 0 24 25" fill="none" xmlns="http://www.w3.org/2000/svg">
<path d="M14.9166 14.2075C15.5076 13.7547 15.942 13.128 16.1585 12.4156C16.3751 11.7032 16.3629 10.9409 16.1239 10.2357C15.8848 9.53052 15.4308 8.91798 14.8256 8.48416C14.2205 8.05033 13.4946 7.81703 12.75 7.81703C12.0054 7.81703 11.2795 8.05033 10.6744 8.48416C10.0692 8.91798 9.6152 9.53052 9.37613 10.2357C9.13705 10.9409 9.12494 11.7032 9.34149 12.4156C9.55804 13.128 9.99237 13.7547 10.5834 14.2075C9.47438 14.6217 8.50807 15.3465 7.8 16.2953C7.71049 16.4147 7.67206 16.5647 7.69315 16.7124C7.71425 16.86 7.79315 16.9933 7.9125 17.0828C8.03185 17.1723 8.18186 17.2108 8.32955 17.1897C8.47723 17.1686 8.61049 17.0897 8.7 16.9703C9.17156 16.3416 9.78303 15.8313 10.486 15.4798C11.1889 15.1283 11.9641 14.9453 12.75 14.9453C13.5359 14.9453 14.3111 15.1283 15.014 15.4798C15.717 15.8313 16.3284 16.3416 16.8 16.9703C16.8895 17.0897 17.0228 17.1686 17.1705 17.1897C17.3181 17.2108 17.4682 17.1723 17.5875 17.0828C17.7068 16.9933 17.7857 16.86 17.8068 16.7124C17.8279 16.5647 17.7895 16.4147 17.7 16.2953C16.9919 15.3465 16.0256 14.6217 14.9166 14.2075ZM10.3125 11.3828C10.3125 10.9007 10.4555 10.4295 10.7233 10.0286C10.9911 9.62777 11.3718 9.31534 11.8172 9.13086C12.2626 8.94637 12.7527 8.8981 13.2255 8.99215C13.6984 9.0862 14.1327 9.31835 14.4736 9.65924C14.8145 10.0001 15.0466 10.4345 15.1407 10.9073C15.2347 11.3801 15.1864 11.8702 15.002 12.3156C14.8175 12.761 14.505 13.1417 14.1042 13.4095C13.7034 13.6774 13.2321 13.8203 12.75 13.8203C12.1035 13.8203 11.4835 13.5635 11.0264 13.1064C10.5693 12.6493 10.3125 12.0293 10.3125 11.3828ZM19.5 3.32031H6C5.6519 3.32031 5.31806 3.45859 5.07192 3.70473C4.82578 3.95088 4.6875 4.28472 4.6875 4.63281V7.07031H3C2.85082 7.07031 2.70774 7.12958 2.60225 7.23507C2.49676 7.34055 2.4375 7.48363 2.4375 7.63281C2.4375 7.782 2.49676 7.92507 2.60225 8.03056C2.70774 8.13605 2.85082 8.19531 3 8.19531H4.6875V12.3203H3C2.85082 12.3203 2.70774 12.3796 2.60225 12.4851C2.49676 12.5906 2.4375 12.7336 2.4375 12.8828C2.4375 13.032 2.49676 13.1751 2.60225 13.2806C2.70774 13.386 2.85082 13.4453 3 13.4453H4.6875V17.5703H3C2.85082 17.5703 2.70774 17.6296 2.60225 17.7351C2.49676 17.8406 2.4375 17.9836 2.4375 18.1328C2.4375 18.282 2.49676 18.4251 2.60225 18.5306C2.70774 18.636 2.85082 18.6953 3 18.6953H4.6875V21.1328C4.6875 21.4809 4.82578 21.8147 5.07192 22.0609C5.31806 22.307 5.6519 22.4453 6 22.4453H19.5C19.8481 22.4453 20.1819 22.307 20.4281 22.0609C20.6742 21.8147 20.8125 21.4809 20.8125 21.1328V4.63281C20.8125 4.28472 20.6742 3.95088 20.4281 3.70473C20.1819 3.45859 19.8481 3.32031 19.5 3.32031ZM19.6875 21.1328C19.6875 21.1825 19.6677 21.2302 19.6326 21.2654C19.5974 21.3006 19.5497 21.3203 19.5 21.3203H6C5.95027 21.3203 5.90258 21.3006 5.86742 21.2654C5.83225 21.2302 5.8125 21.1825 5.8125 21.1328V4.63281C5.8125 4.58308 5.83225 4.53539 5.86742 4.50023C5.90258 4.46507 5.95027 4.44531 6 4.44531H19.5C19.5497 4.44531 19.5974 4.46507 19.6326 4.50023C19.6677 4.53539 19.6875 4.58308 19.6875 4.63281V21.1328Z" fill="#BBC0CA"/>
</svg>
