<svg width="24" height="25" viewBox="0 0 24 25" fill="none" xmlns="http://www.w3.org/2000/svg">
<path d="M18.5625 11.3828C18.5625 11.532 18.5032 11.6751 18.3977 11.7806C18.2923 11.886 18.1492 11.9453 18 11.9453H14.25C14.1008 11.9453 13.9577 11.886 13.8523 11.7806C13.7468 11.6751 13.6875 11.532 13.6875 11.3828C13.6875 11.2336 13.7468 11.0906 13.8523 10.9851C13.9577 10.8796 14.1008 10.8203 14.25 10.8203H18C18.1492 10.8203 18.2923 10.8796 18.3977 10.9851C18.5032 11.0906 18.5625 11.2336 18.5625 11.3828ZM18 13.8203H14.25C14.1008 13.8203 13.9577 13.8796 13.8523 13.9851C13.7468 14.0906 13.6875 14.2336 13.6875 14.3828C13.6875 14.532 13.7468 14.6751 13.8523 14.7806C13.9577 14.886 14.1008 14.9453 14.25 14.9453H18C18.1492 14.9453 18.2923 14.886 18.3977 14.7806C18.5032 14.6751 18.5625 14.532 18.5625 14.3828C18.5625 14.2336 18.5032 14.0906 18.3977 13.9851C18.2923 13.8796 18.1492 13.8203 18 13.8203ZM21.5625 6.13281V19.6328C21.5625 19.9809 21.4242 20.3147 21.1781 20.5609C20.9319 20.807 20.5981 20.9453 20.25 20.9453H3.75C3.4019 20.9453 3.06806 20.807 2.82192 20.5609C2.57578 20.3147 2.4375 19.9809 2.4375 19.6328V6.13281C2.4375 5.78472 2.57578 5.45088 2.82192 5.20473C3.06806 4.95859 3.4019 4.82031 3.75 4.82031H20.25C20.5981 4.82031 20.9319 4.95859 21.1781 5.20473C21.4242 5.45088 21.5625 5.78472 21.5625 6.13281ZM20.4375 6.13281C20.4375 6.08308 20.4177 6.03539 20.3826 6.00023C20.3474 5.96507 20.2997 5.94531 20.25 5.94531H3.75C3.70027 5.94531 3.65258 5.96507 3.61742 6.00023C3.58225 6.03539 3.5625 6.08308 3.5625 6.13281V19.6328C3.5625 19.6825 3.58225 19.7302 3.61742 19.7654C3.65258 19.8006 3.70027 19.8203 3.75 19.8203H20.25C20.2997 19.8203 20.3474 19.8006 20.3826 19.7654C20.4177 19.7302 20.4375 19.6825 20.4375 19.6328V6.13281ZM12.5447 16.4931C12.582 16.6376 12.5604 16.7909 12.4846 16.9195C12.4088 17.048 12.2851 17.1411 12.1406 17.1784C11.9962 17.2157 11.8428 17.1941 11.7143 17.1183C11.5858 17.0426 11.4926 16.9188 11.4553 16.7744C11.1881 15.7309 10.1325 14.9453 9 14.9453C7.8675 14.9453 6.81281 15.7309 6.54469 16.7734C6.50739 16.9179 6.41424 17.0416 6.28572 17.1174C6.15719 17.1932 6.00384 17.2148 5.85938 17.1775C5.71491 17.1402 5.59119 17.047 5.51541 16.9185C5.43963 16.79 5.41802 16.6366 5.45531 16.4922C5.58133 16.026 5.8008 15.5903 6.1004 15.2116C6.4 14.8329 6.77347 14.519 7.19812 14.2891C6.75457 13.9188 6.43581 13.4209 6.2852 12.8631C6.13459 12.3053 6.15944 11.7146 6.35636 11.1714C6.55328 10.6282 6.91273 10.1588 7.38582 9.82713C7.85891 9.49542 8.42268 9.31746 9.00047 9.31746C9.57826 9.31746 10.142 9.49542 10.6151 9.82713C11.0882 10.1588 11.4477 10.6282 11.6446 11.1714C11.8415 11.7146 11.8663 12.3053 11.7157 12.8631C11.5651 13.4209 11.2464 13.9188 10.8028 14.2891C11.2274 14.5192 11.6007 14.8333 11.9002 15.2121C12.1996 15.591 12.4189 16.0269 12.5447 16.4931ZM9 13.8203C9.33376 13.8203 9.66002 13.7213 9.93752 13.5359C10.215 13.3505 10.4313 13.0869 10.559 12.7786C10.6868 12.4702 10.7202 12.1309 10.6551 11.8036C10.59 11.4763 10.4292 11.1756 10.1932 10.9396C9.95724 10.7036 9.65656 10.5428 9.32922 10.4777C9.00187 10.4126 8.66257 10.446 8.35422 10.5738C8.04587 10.7015 7.78232 10.9178 7.5969 11.1953C7.41147 11.4728 7.3125 11.7991 7.3125 12.1328C7.3125 12.5804 7.49029 13.0096 7.80676 13.3261C8.12323 13.6425 8.55245 13.8203 9 13.8203Z" fill="#BBC0CA"/>
</svg>
