<svg width="318" height="318" viewBox="0 0 318 318" fill="none" xmlns="http://www.w3.org/2000/svg">
<g filter="url(#filter0_bd_2764_43990)">
<circle cx="158.968" cy="158.968" r="153.968" fill="url(#paint0_radial_2764_43990)" shape-rendering="crispEdges"/>
<circle cx="158.968" cy="158.968" r="153.218" stroke="white" stroke-opacity="0.8" stroke-width="1.5" shape-rendering="crispEdges"/>
</g>
<g filter="url(#filter1_bd_2764_43990)">
<circle cx="158.968" cy="158.968" r="117.973" fill="url(#paint1_radial_2764_43990)" shape-rendering="crispEdges"/>
<circle cx="158.968" cy="158.968" r="117.223" stroke="white" stroke-opacity="0.64" stroke-width="1.5" shape-rendering="crispEdges"/>
</g>
<g filter="url(#filter2_bd_2764_43990)">
<circle cx="158.968" cy="158.968" r="84.14" fill="url(#paint2_radial_2764_43990)" shape-rendering="crispEdges"/>
<circle cx="158.968" cy="158.968" r="83.14" stroke="white" stroke-opacity="0.64" stroke-width="2" shape-rendering="crispEdges"/>
</g>
<circle cx="158.968" cy="158.968" r="60" fill="url(#paint3_linear_2764_43990)"/>
<path d="M158.968 113.87C153.046 113.87 147.182 115.037 141.71 117.303C136.239 119.57 131.267 122.892 127.079 127.079C122.892 131.267 119.57 136.239 117.303 141.71C115.037 147.182 113.871 153.046 113.871 158.968L158.968 158.968L158.968 113.87Z" fill="url(#paint4_linear_2764_43990)" fill-opacity="0.24"/>
<path d="M113.871 158.968C113.871 164.891 115.037 170.755 117.303 176.227C119.57 181.698 122.892 186.67 127.079 190.857C131.267 195.045 136.239 198.367 141.71 200.633C147.182 202.9 153.046 204.066 158.968 204.066L158.968 158.968L113.871 158.968Z" fill="url(#paint5_linear_2764_43990)" fill-opacity="0.24"/>
<path d="M158.968 204.066C164.891 204.066 170.755 202.9 176.227 200.633C181.698 198.367 186.67 195.045 190.857 190.857C195.045 186.67 198.367 181.698 200.633 176.227C202.9 170.755 204.066 164.891 204.066 158.968L158.968 158.968L158.968 204.066Z" fill="url(#paint6_linear_2764_43990)" fill-opacity="0.24"/>
<path d="M204.066 158.968C204.066 153.046 202.9 147.182 200.633 141.71C198.367 136.239 195.045 131.267 190.857 127.079C186.67 122.892 181.698 119.57 176.227 117.303C170.755 115.037 164.891 113.87 158.968 113.87L158.968 158.968L204.066 158.968Z" fill="url(#paint7_linear_2764_43990)" fill-opacity="0.24"/>
<g filter="url(#filter3_f_2764_43990)">
<path d="M214.532 160.919C214.532 190.501 190.551 214.482 160.968 214.482C131.386 214.482 107.405 190.501 107.405 160.919C107.405 131.337 131.386 107.355 160.968 107.355C190.551 107.355 214.532 131.337 214.532 160.919ZM110.229 160.919C110.229 188.941 132.946 211.658 160.968 211.658C188.991 211.658 211.708 188.941 211.708 160.919C211.708 132.896 188.991 110.179 160.968 110.179C132.946 110.179 110.229 132.896 110.229 160.919Z" fill="#5F4CC8"/>
</g>
<path d="M218.968 158.968C218.968 192.105 192.105 218.968 158.968 218.968C125.831 218.968 98.9683 192.105 98.9683 158.968C98.9683 125.831 125.831 98.9683 158.968 98.9683C192.105 98.9683 218.968 125.831 218.968 158.968ZM108.027 158.968C108.027 187.102 130.834 209.909 158.968 209.909C187.102 209.909 209.909 187.102 209.909 158.968C209.909 130.834 187.102 108.027 158.968 108.027C130.834 108.027 108.027 130.834 108.027 158.968Z" fill="url(#paint8_linear_2764_43990)"/>
<path d="M218.968 158.968C218.968 192.105 192.105 218.968 158.968 218.968C125.831 218.968 98.9683 192.105 98.9683 158.968C98.9683 125.831 125.831 98.9683 158.968 98.9683C192.105 98.9683 218.968 125.831 218.968 158.968ZM108.027 158.968C108.027 187.102 130.834 209.909 158.968 209.909C187.102 209.909 209.909 187.102 209.909 158.968C209.909 130.834 187.102 108.027 158.968 108.027C130.834 108.027 108.027 130.834 108.027 158.968Z" fill="url(#paint9_radial_2764_43990)"/>
<g filter="url(#filter4_d_2764_43990)">
<path fill-rule="evenodd" clip-rule="evenodd" d="M150.343 147.416C150.343 145.128 151.252 142.935 152.869 141.317C154.487 139.7 156.681 138.791 158.968 138.791C161.256 138.791 163.45 139.7 165.067 141.317C166.685 142.935 167.593 145.128 167.593 147.416C167.593 149.703 166.685 151.897 165.067 153.515C163.45 155.132 161.256 156.041 158.968 156.041C156.681 156.041 154.487 155.132 152.869 153.515C151.252 151.897 150.343 149.703 150.343 147.416ZM143.158 174.45C143.222 170.3 144.917 166.341 147.875 163.429C150.833 160.517 154.817 158.884 158.968 158.884C163.119 158.884 167.104 160.517 170.062 163.429C173.02 166.341 174.714 170.3 174.779 174.45C174.784 174.73 174.707 175.005 174.559 175.241C174.41 175.478 174.195 175.666 173.941 175.783C169.244 177.936 164.136 179.048 158.968 179.041C153.628 179.041 148.555 177.876 143.995 175.783C143.741 175.666 143.527 175.478 143.378 175.241C143.229 175.005 143.153 174.73 143.158 174.45Z" fill="white"/>
</g>
<mask id="path-16-inside-1_2764_43990" fill="white">
<path d="M142.968 145.133H174.968V160.172H142.968V145.133Z"/>
</mask>
<path d="M142.968 145.133H174.968V160.172H142.968V145.133Z" fill="url(#paint10_linear_2764_43990)"/>
<path d="M142.968 146.133H174.968V144.133H142.968V146.133Z" fill="#E8E4FE" mask="url(#path-16-inside-1_2764_43990)"/>
<mask id="path-18-inside-2_2764_43990" fill="white">
<path d="M142.968 136.172H148.968V142.172H142.968V136.172Z"/>
</mask>
<path d="M142.968 136.172V135.172H141.968V136.172H142.968ZM142.968 137.172H148.968V135.172H142.968V137.172ZM143.968 142.172V136.172H141.968V142.172H143.968Z" fill="url(#paint11_radial_2764_43990)" mask="url(#path-18-inside-2_2764_43990)"/>
<mask id="path-20-inside-3_2764_43990" fill="white">
<path d="M174.968 136.172H168.968V142.172H174.968V136.172Z"/>
</mask>
<path d="M174.968 136.172V135.172H175.968V136.172H174.968ZM174.968 137.172H168.968V135.172H174.968V137.172ZM173.968 142.172V136.172H175.968V142.172H173.968Z" fill="url(#paint12_radial_2764_43990)" mask="url(#path-20-inside-3_2764_43990)"/>
<mask id="path-22-inside-4_2764_43990" fill="white">
<path d="M174.968 160.172H168.968V154.172H174.968V160.172Z"/>
</mask>
<path d="M174.968 160.172V161.172H175.968V160.172H174.968ZM174.968 159.172H168.968V161.172H174.968V159.172ZM173.968 154.172V160.172H175.968V154.172H173.968Z" fill="url(#paint13_radial_2764_43990)" mask="url(#path-22-inside-4_2764_43990)"/>
<mask id="path-24-inside-5_2764_43990" fill="white">
<path d="M142.968 160.172H148.968V154.172H142.968V160.172Z"/>
</mask>
<path d="M142.968 160.172V161.172H141.968V160.172H142.968ZM142.968 159.172H148.968V161.172H142.968V159.172ZM143.968 154.172V160.172H141.968V154.172H143.968Z" fill="url(#paint14_radial_2764_43990)" mask="url(#path-24-inside-5_2764_43990)"/>
<g filter="url(#filter5_f_2764_43990)">
<path d="M150.629 163.728C148.225 164.878 145.088 170.063 145.507 173.659C149.34 175.715 163.047 176.747 172.25 173.659" stroke="#5F4CC8" stroke-linecap="round"/>
</g>
<g filter="url(#filter6_f_2764_43990)">
<path d="M185.934 152.778C192.358 145.742 211.404 113.827 185.934 121.114C136.867 135.151 167.821 104.198 167.821 100.143" stroke="url(#paint15_linear_2764_43990)" stroke-width="2"/>
</g>
<g opacity="0.32" filter="url(#filter7_f_2764_43990)">
<path d="M101.681 162.61C116.196 158.651 132.03 150.206 141.267 162.61C152.813 178.115 134.009 218.69 190.09 200.547" stroke="white" stroke-width="2"/>
</g>
<defs>
<filter id="filter0_bd_2764_43990" x="0" y="0" width="317.937" height="317.937" filterUnits="userSpaceOnUse" color-interpolation-filters="sRGB">
<feFlood flood-opacity="0" result="BackgroundImageFix"/>
<feGaussianBlur in="BackgroundImageFix" stdDeviation="2"/>
<feComposite in2="SourceAlpha" operator="in" result="effect1_backgroundBlur_2764_43990"/>
<feColorMatrix in="SourceAlpha" type="matrix" values="0 0 0 0 0 0 0 0 0 0 0 0 0 0 0 0 0 0 127 0" result="hardAlpha"/>
<feMorphology radius="5" operator="erode" in="SourceAlpha" result="effect2_dropShadow_2764_43990"/>
<feOffset/>
<feGaussianBlur stdDeviation="5"/>
<feComposite in2="hardAlpha" operator="out"/>
<feColorMatrix type="matrix" values="0 0 0 0 0.942256 0 0 0 0 0.922188 0 0 0 0 0.975 0 0 0 1 0"/>
<feBlend mode="normal" in2="effect1_backgroundBlur_2764_43990" result="effect2_dropShadow_2764_43990"/>
<feBlend mode="normal" in="SourceGraphic" in2="effect2_dropShadow_2764_43990" result="shape"/>
</filter>
<filter id="filter1_bd_2764_43990" x="35.9956" y="35.9955" width="245.946" height="245.946" filterUnits="userSpaceOnUse" color-interpolation-filters="sRGB">
<feFlood flood-opacity="0" result="BackgroundImageFix"/>
<feGaussianBlur in="BackgroundImageFix" stdDeviation="2"/>
<feComposite in2="SourceAlpha" operator="in" result="effect1_backgroundBlur_2764_43990"/>
<feColorMatrix in="SourceAlpha" type="matrix" values="0 0 0 0 0 0 0 0 0 0 0 0 0 0 0 0 0 0 127 0" result="hardAlpha"/>
<feMorphology radius="5" operator="erode" in="SourceAlpha" result="effect2_dropShadow_2764_43990"/>
<feOffset/>
<feGaussianBlur stdDeviation="5"/>
<feComposite in2="hardAlpha" operator="out"/>
<feColorMatrix type="matrix" values="0 0 0 0 0.942256 0 0 0 0 0.922188 0 0 0 0 0.975 0 0 0 1 0"/>
<feBlend mode="normal" in2="effect1_backgroundBlur_2764_43990" result="effect2_dropShadow_2764_43990"/>
<feBlend mode="normal" in="SourceGraphic" in2="effect2_dropShadow_2764_43990" result="shape"/>
</filter>
<filter id="filter2_bd_2764_43990" x="69.8281" y="69.8282" width="178.28" height="178.28" filterUnits="userSpaceOnUse" color-interpolation-filters="sRGB">
<feFlood flood-opacity="0" result="BackgroundImageFix"/>
<feGaussianBlur in="BackgroundImageFix" stdDeviation="2"/>
<feComposite in2="SourceAlpha" operator="in" result="effect1_backgroundBlur_2764_43990"/>
<feColorMatrix in="SourceAlpha" type="matrix" values="0 0 0 0 0 0 0 0 0 0 0 0 0 0 0 0 0 0 127 0" result="hardAlpha"/>
<feMorphology radius="5" operator="erode" in="SourceAlpha" result="effect2_dropShadow_2764_43990"/>
<feOffset/>
<feGaussianBlur stdDeviation="5"/>
<feComposite in2="hardAlpha" operator="out"/>
<feColorMatrix type="matrix" values="0 0 0 0 0.942256 0 0 0 0 0.922188 0 0 0 0 0.975 0 0 0 1 0"/>
<feBlend mode="normal" in2="effect1_backgroundBlur_2764_43990" result="effect2_dropShadow_2764_43990"/>
<feBlend mode="normal" in="SourceGraphic" in2="effect2_dropShadow_2764_43990" result="shape"/>
</filter>
<filter id="filter3_f_2764_43990" x="104.405" y="104.355" width="113.127" height="113.127" filterUnits="userSpaceOnUse" color-interpolation-filters="sRGB">
<feFlood flood-opacity="0" result="BackgroundImageFix"/>
<feBlend mode="normal" in="SourceGraphic" in2="BackgroundImageFix" result="shape"/>
<feGaussianBlur stdDeviation="1.5" result="effect1_foregroundBlur_2764_43990"/>
</filter>
<filter id="filter4_d_2764_43990" x="137.157" y="137.791" width="39.6216" height="48.2501" filterUnits="userSpaceOnUse" color-interpolation-filters="sRGB">
<feFlood flood-opacity="0" result="BackgroundImageFix"/>
<feColorMatrix in="SourceAlpha" type="matrix" values="0 0 0 0 0 0 0 0 0 0 0 0 0 0 0 0 0 0 127 0" result="hardAlpha"/>
<feOffset dx="-2" dy="3"/>
<feGaussianBlur stdDeviation="2"/>
<feComposite in2="hardAlpha" operator="out"/>
<feColorMatrix type="matrix" values="0 0 0 0 0.278431 0 0 0 0 0.219608 0 0 0 0 0.619608 0 0 0 0.64 0"/>
<feBlend mode="normal" in2="BackgroundImageFix" result="effect1_dropShadow_2764_43990"/>
<feBlend mode="normal" in="SourceGraphic" in2="effect1_dropShadow_2764_43990" result="shape"/>
</filter>
<filter id="filter5_f_2764_43990" x="136.969" y="155.228" width="43.7817" height="28.8789" filterUnits="userSpaceOnUse" color-interpolation-filters="sRGB">
<feFlood flood-opacity="0" result="BackgroundImageFix"/>
<feBlend mode="normal" in="SourceGraphic" in2="BackgroundImageFix" result="shape"/>
<feGaussianBlur stdDeviation="4" result="effect1_foregroundBlur_2764_43990"/>
</filter>
<filter id="filter6_f_2764_43990" x="143.188" y="86.1386" width="70.6333" height="81.314" filterUnits="userSpaceOnUse" color-interpolation-filters="sRGB">
<feFlood flood-opacity="0" result="BackgroundImageFix"/>
<feBlend mode="normal" in="SourceGraphic" in2="BackgroundImageFix" result="shape"/>
<feGaussianBlur stdDeviation="7" result="effect1_foregroundBlur_2764_43990"/>
</filter>
<filter id="filter7_f_2764_43990" x="69.4175" y="123.108" width="152.98" height="115.018" filterUnits="userSpaceOnUse" color-interpolation-filters="sRGB">
<feFlood flood-opacity="0" result="BackgroundImageFix"/>
<feBlend mode="normal" in="SourceGraphic" in2="BackgroundImageFix" result="shape"/>
<feGaussianBlur stdDeviation="16" result="effect1_foregroundBlur_2764_43990"/>
</filter>
<radialGradient id="paint0_radial_2764_43990" cx="0" cy="0" r="1" gradientUnits="userSpaceOnUse" gradientTransform="translate(158.968 158.968) rotate(146.956) scale(611.912)">
<stop stop-color="white" stop-opacity="0"/>
<stop offset="1" stop-color="white"/>
</radialGradient>
<radialGradient id="paint1_radial_2764_43990" cx="0" cy="0" r="1" gradientUnits="userSpaceOnUse" gradientTransform="translate(158.968 158.968) rotate(143.067) scale(397.286)">
<stop stop-color="white" stop-opacity="0"/>
<stop offset="1" stop-color="white"/>
</radialGradient>
<radialGradient id="paint2_radial_2764_43990" cx="0" cy="0" r="1" gradientUnits="userSpaceOnUse" gradientTransform="translate(158.968 158.968) rotate(138.816) scale(236.365)">
<stop stop-color="white" stop-opacity="0"/>
<stop offset="1" stop-color="white"/>
</radialGradient>
<linearGradient id="paint3_linear_2764_43990" x1="164.575" y1="208.993" x2="166.45" y2="92.7842" gradientUnits="userSpaceOnUse">
<stop stop-color="#6954DC"/>
<stop offset="1" stop-color="#8571F4"/>
</linearGradient>
<linearGradient id="paint4_linear_2764_43990" x1="66.1726" y1="108.247" x2="169.261" y2="127.928" gradientUnits="userSpaceOnUse">
<stop stop-color="#E8E4FE"/>
<stop offset="1" stop-color="#E8E4FE" stop-opacity="0"/>
</linearGradient>
<linearGradient id="paint5_linear_2764_43990" x1="214.714" y1="163.54" x2="183.319" y2="120.899" gradientUnits="userSpaceOnUse">
<stop stop-color="#E8E4FE"/>
<stop offset="1" stop-color="#E8E4FE" stop-opacity="0"/>
</linearGradient>
<linearGradient id="paint6_linear_2764_43990" x1="251.764" y1="209.689" x2="148.676" y2="190.009" gradientUnits="userSpaceOnUse">
<stop stop-color="#E8E4FE"/>
<stop offset="1" stop-color="#E8E4FE" stop-opacity="0"/>
</linearGradient>
<linearGradient id="paint7_linear_2764_43990" x1="103.223" y1="154.396" x2="134.618" y2="197.037" gradientUnits="userSpaceOnUse">
<stop stop-color="#E8E4FE"/>
<stop offset="1" stop-color="#E8E4FE" stop-opacity="0"/>
</linearGradient>
<linearGradient id="paint8_linear_2764_43990" x1="156.141" y1="233.828" x2="171.604" y2="98.9683" gradientUnits="userSpaceOnUse">
<stop stop-color="#8872FD"/>
<stop offset="1" stop-color="#B6AAF9"/>
</linearGradient>
<radialGradient id="paint9_radial_2764_43990" cx="0" cy="0" r="1" gradientUnits="userSpaceOnUse" gradientTransform="translate(180.523 108.179) rotate(116.565) scale(68.6008)">
<stop stop-color="#BDB0FF"/>
<stop offset="1" stop-color="#B6AAF9" stop-opacity="0"/>
</radialGradient>
<linearGradient id="paint10_linear_2764_43990" x1="156.735" y1="139.768" x2="156.733" y2="157.84" gradientUnits="userSpaceOnUse">
<stop stop-color="#B6AAF9"/>
<stop offset="1" stop-color="#B6AAF9" stop-opacity="0"/>
</linearGradient>
<radialGradient id="paint11_radial_2764_43990" cx="0" cy="0" r="1" gradientUnits="userSpaceOnUse" gradientTransform="translate(141.126 134.433) rotate(44.4549) scale(7.27168 15.9876)">
<stop stop-color="white"/>
<stop offset="1" stop-color="white" stop-opacity="0"/>
</radialGradient>
<radialGradient id="paint12_radial_2764_43990" cx="0" cy="0" r="1" gradientUnits="userSpaceOnUse" gradientTransform="translate(176.811 134.433) rotate(135.545) scale(7.27168 15.9876)">
<stop stop-color="white"/>
<stop offset="1" stop-color="white" stop-opacity="0"/>
</radialGradient>
<radialGradient id="paint13_radial_2764_43990" cx="0" cy="0" r="1" gradientUnits="userSpaceOnUse" gradientTransform="translate(176.811 161.911) rotate(-135.545) scale(7.27168 15.9876)">
<stop stop-color="white"/>
<stop offset="1" stop-color="white" stop-opacity="0"/>
</radialGradient>
<radialGradient id="paint14_radial_2764_43990" cx="0" cy="0" r="1" gradientUnits="userSpaceOnUse" gradientTransform="translate(141.126 161.911) rotate(-44.4549) scale(7.27168 15.9876)">
<stop stop-color="white"/>
<stop offset="1" stop-color="white" stop-opacity="0"/>
</radialGradient>
<linearGradient id="paint15_linear_2764_43990" x1="182.707" y1="99.0594" x2="193.181" y2="151.369" gradientUnits="userSpaceOnUse">
<stop stop-color="white"/>
<stop offset="1" stop-color="white" stop-opacity="0"/>
</linearGradient>
</defs>
</svg>
