<svg width="564" height="433" viewBox="0 0 564 433" fill="none" xmlns="http://www.w3.org/2000/svg">
<path opacity="0.32" d="M335.872 147.962L339.433 152.771L345.378 153.451L340.569 157.012L339.889 162.957L336.328 158.149L330.383 157.469L335.192 153.907L335.872 147.962Z" fill="#7CD4FD"/>
<path opacity="0.24" d="M11.1962 215.666L10.5144 220.241L13.3923 223.862L8.81732 223.18L5.19615 226.058L5.87793 221.483L3 217.862L7.57499 218.543L11.1962 215.666Z" fill="#47389E"/>
<path opacity="0.24" d="M500.899 3L500.217 7.57499L503.095 11.1962L498.52 10.5144L494.899 13.3923L495.581 8.81732L492.703 5.19615L497.278 5.87793L500.899 3Z" fill="#47389E"/>
<path opacity="0.24" d="M550.38 285.96L554.604 289.318L559.942 288.522L556.584 292.747L557.38 298.084L553.155 294.727L547.817 295.522L551.175 291.297L550.38 285.96Z" fill="#FF7D52"/>
<path opacity="0.24" d="M308.981 420.91L312.196 423.465L316.258 422.86L313.703 426.075L314.308 430.137L311.093 427.582L307.031 428.187L309.586 424.972L308.981 420.91Z" fill="#D84E04"/>
</svg>
