<svg width="67" height="21" viewBox="0 0 67 21" fill="none" xmlns="http://www.w3.org/2000/svg">
<g clip-path="url(#clip0_3261_51428)">
<g clip-path="url(#clip1_3261_51428)">
<g clip-path="url(#clip2_3261_51428)">
<rect x="0.0185547" y="0.239258" width="20" height="20" rx="10" fill="white"/>
<rect width="6.66667" height="20" transform="translate(0.0185547 0.239258)" fill="#008753"/>
<rect width="6.66667" height="20" transform="translate(13.3521 0.239258)" fill="#008753"/>
</g>
</g>
<rect x="0.518555" y="0.739258" width="19" height="19" rx="9.5" stroke="#EEEEF0"/>
<g clip-path="url(#clip3_3261_51428)">
<path d="M31.9533 10.549L27.5783 14.924C27.5377 14.9647 27.4894 14.9969 27.4363 15.0189C27.3832 15.0409 27.3263 15.0522 27.2688 15.0522C27.2113 15.0522 27.1544 15.0409 27.1013 15.0189C27.0482 14.9969 26.9999 14.9647 26.9593 14.924C26.9186 14.8834 26.8864 14.8351 26.8644 14.782C26.8424 14.7289 26.8311 14.672 26.8311 14.6145C26.8311 14.557 26.8424 14.5001 26.8644 14.447C26.8864 14.3939 26.9186 14.3456 26.9593 14.305L31.0253 10.2395L26.9593 6.17403C26.8772 6.09194 26.8311 5.9806 26.8311 5.8645C26.8311 5.7484 26.8772 5.63706 26.9593 5.55497C27.0414 5.47288 27.1527 5.42676 27.2688 5.42676C27.3849 5.42676 27.4962 5.47288 27.5783 5.55497L31.9533 9.92997C31.994 9.9706 32.0263 10.0189 32.0483 10.072C32.0703 10.1251 32.0816 10.182 32.0816 10.2395C32.0816 10.297 32.0703 10.3539 32.0483 10.407C32.0263 10.4601 31.994 10.5084 31.9533 10.549Z" fill="#E8E4FE"/>
<path d="M39.9533 10.549L35.5783 14.924C35.5377 14.9647 35.4894 14.9969 35.4363 15.0189C35.3832 15.0409 35.3263 15.0522 35.2688 15.0522C35.2113 15.0522 35.1544 15.0409 35.1013 15.0189C35.0482 14.9969 34.9999 14.9647 34.9593 14.924C34.9186 14.8834 34.8864 14.8351 34.8644 14.782C34.8424 14.7289 34.8311 14.672 34.8311 14.6145C34.8311 14.557 34.8424 14.5001 34.8644 14.447C34.8864 14.3939 34.9186 14.3456 34.9593 14.305L39.0253 10.2395L34.9593 6.17403C34.8772 6.09194 34.8311 5.9806 34.8311 5.8645C34.8311 5.7484 34.8772 5.63706 34.9593 5.55497C35.0414 5.47288 35.1527 5.42676 35.2688 5.42676C35.3849 5.42676 35.4962 5.47288 35.5783 5.55497L39.9533 9.92997C39.994 9.9706 40.0263 10.0189 40.0483 10.072C40.0703 10.1251 40.0816 10.182 40.0816 10.2395C40.0816 10.297 40.0703 10.3539 40.0483 10.407C40.0263 10.4601 39.994 10.5084 39.9533 10.549Z" fill="#8872FD"/>
</g>
<g clip-path="url(#clip4_3261_51428)">
<g clip-path="url(#clip5_3261_51428)">
<rect x="46.0186" y="0.239258" width="20" height="20" rx="10" fill="#EEEEF0"/>
<g clip-path="url(#clip6_3261_51428)">
<rect width="10" height="10" transform="translate(46.0181 0.239258)" fill="#002868"/>
<path d="M48.5181 0.619141L49.1059 2.31012L50.8957 2.3466L49.4691 3.42816L49.9875 5.14168L48.5181 4.11914L47.0486 5.14168L47.567 3.42816L46.1404 2.3466L47.9303 2.31012L48.5181 0.619141Z" fill="white"/>
<path d="M51.0186 4.85889L51.6063 6.54987L53.3962 6.58634L51.9696 7.6679L52.488 9.38143L51.0186 8.35889L49.5491 9.38143L50.0675 7.6679L48.6409 6.58634L50.4308 6.54987L51.0186 4.85889Z" fill="white"/>
<path d="M53.5181 0.619141L54.1059 2.31012L55.8957 2.3466L54.4691 3.42816L54.9875 5.14168L53.5181 4.11914L52.0486 5.14168L52.567 3.42816L51.1404 2.3466L52.9303 2.31012L53.5181 0.619141Z" fill="white"/>
</g>
<rect width="10" height="3.33333" transform="translate(56.0186 0.239258)" fill="#BF0A30"/>
<rect width="10" height="3.33333" transform="translate(56.0186 3.57275)" fill="white"/>
<rect width="10" height="3.33333" transform="translate(56.0186 6.90576)" fill="#BF0A30"/>
<rect width="20" height="5" transform="translate(46.0186 10.2393)" fill="white"/>
<rect width="20" height="5" transform="translate(46.0186 15.2393)" fill="#BF0A30"/>
</g>
</g>
<rect x="46.5186" y="0.739258" width="19" height="19" rx="9.5" stroke="#EEEEF0"/>
</g>
<defs>
<clipPath id="clip0_3261_51428">
<rect width="66" height="20" fill="white" transform="translate(0.0185547 0.239258)"/>
</clipPath>
<clipPath id="clip1_3261_51428">
<rect x="0.0185547" y="0.239258" width="20" height="20" rx="10" fill="white"/>
</clipPath>
<clipPath id="clip2_3261_51428">
<rect x="0.0185547" y="0.239258" width="20" height="20" rx="10" fill="white"/>
</clipPath>
<clipPath id="clip3_3261_51428">
<rect width="22" height="14" fill="white" transform="translate(22.0186 3.23926)"/>
</clipPath>
<clipPath id="clip4_3261_51428">
<rect x="46.0186" y="0.239258" width="20" height="20" rx="10" fill="white"/>
</clipPath>
<clipPath id="clip5_3261_51428">
<rect x="46.0186" y="0.239258" width="20" height="20" rx="10" fill="white"/>
</clipPath>
<clipPath id="clip6_3261_51428">
<rect width="10" height="10" fill="white" transform="translate(46.0181 0.239258)"/>
</clipPath>
</defs>
</svg>
