<svg width="20" height="21" viewBox="0 0 20 21" fill="none" xmlns="http://www.w3.org/2000/svg">
<path d="M6.875 8.88098H3.125C2.95924 8.88098 2.80027 8.81513 2.68306 8.69792C2.56585 8.58071 2.5 8.42174 2.5 8.25598V4.50598C2.5 4.34022 2.56585 4.18125 2.68306 4.06404C2.80027 3.94683 2.95924 3.88098 3.125 3.88098C3.29076 3.88098 3.44973 3.94683 3.56694 4.06404C3.68415 4.18125 3.75 4.34022 3.75 4.50598V6.36926C4.95859 5.00598 7.07891 3.25598 10 3.25598C13.3453 3.25598 15.3578 5.2302 15.4422 5.31379C15.5597 5.43086 15.6258 5.58981 15.6261 5.75566C15.6264 5.92151 15.5608 6.08069 15.4437 6.19817C15.3267 6.31565 15.1677 6.38182 15.0019 6.38211C14.836 6.3824 14.6769 6.3168 14.5594 6.19973C14.5383 6.17864 12.8062 4.50598 10 4.50598C7.26562 4.50598 5.29453 6.43176 4.33125 7.63098H6.875C7.04076 7.63098 7.19973 7.69683 7.31694 7.81404C7.43415 7.93125 7.5 8.09022 7.5 8.25598C7.5 8.42174 7.43415 8.58071 7.31694 8.69792C7.19973 8.81513 7.04076 8.88098 6.875 8.88098ZM16.875 12.631H13.125C12.9592 12.631 12.8003 12.6968 12.6831 12.814C12.5658 12.9312 12.5 13.0902 12.5 13.256C12.5 13.4217 12.5658 13.5807 12.6831 13.6979C12.8003 13.8151 12.9592 13.881 13.125 13.881H15.6687C14.7055 15.0802 12.7344 17.006 10 17.006C7.19375 17.006 5.46172 15.3333 5.44062 15.3122C5.32314 15.1952 5.16397 15.1296 4.99811 15.1299C4.83226 15.1301 4.67332 15.1963 4.55625 15.3138C4.43918 15.4313 4.37358 15.5905 4.37387 15.7563C4.37416 15.9222 4.44033 16.0811 4.55781 16.1982C4.64219 16.2818 6.65469 18.256 10 18.256C12.9211 18.256 15.0414 16.506 16.25 15.1427V17.006C16.25 17.1717 16.3158 17.3307 16.4331 17.4479C16.5503 17.5651 16.7092 17.631 16.875 17.631C17.0408 17.631 17.1997 17.5651 17.3169 17.4479C17.4342 17.3307 17.5 17.1717 17.5 17.006V13.256C17.5 13.0902 17.4342 12.9312 17.3169 12.814C17.1997 12.6968 17.0408 12.631 16.875 12.631Z" fill="#1A1A21"/>
</svg>
