<svg width="20" height="21" viewBox="0 0 20 21" fill="none" xmlns="http://www.w3.org/2000/svg">
<path d="M11.2499 8.88096V5.75596C11.2499 5.5902 11.3157 5.43123 11.4329 5.31402C11.5501 5.19681 11.7091 5.13096 11.8749 5.13096C12.0406 5.13096 12.1996 5.19681 12.3168 5.31402C12.434 5.43123 12.4999 5.5902 12.4999 5.75596V7.37237L15.8077 4.06378C15.9249 3.9465 16.084 3.88062 16.2499 3.88062C16.4157 3.88062 16.5748 3.9465 16.692 4.06378C16.8093 4.18105 16.8752 4.34011 16.8752 4.50596C16.8752 4.67182 16.8093 4.83087 16.692 4.94815L13.3835 8.25596H14.9999C15.1656 8.25596 15.3246 8.32181 15.4418 8.43902C15.559 8.55623 15.6249 8.7152 15.6249 8.88096C15.6249 9.04672 15.559 9.20569 15.4418 9.3229C15.3246 9.44011 15.1656 9.50596 14.9999 9.50596H11.8749C11.7091 9.50596 11.5501 9.44011 11.4329 9.3229C11.3157 9.20569 11.2499 9.04672 11.2499 8.88096ZM8.12486 12.006H4.99986C4.8341 12.006 4.67513 12.0718 4.55792 12.189C4.44071 12.3062 4.37486 12.4652 4.37486 12.631C4.37486 12.7967 4.44071 12.9557 4.55792 13.0729C4.67513 13.1901 4.8341 13.256 4.99986 13.256H6.61627L3.30767 16.5638C3.1904 16.6811 3.12451 16.8401 3.12451 17.006C3.12451 17.1718 3.1904 17.3309 3.30767 17.4482C3.42495 17.5654 3.58401 17.6313 3.74986 17.6313C3.91571 17.6313 4.07477 17.5654 4.19205 17.4482L7.49986 14.1396V15.756C7.49986 15.9217 7.56571 16.0807 7.68292 16.1979C7.80013 16.3151 7.9591 16.381 8.12486 16.381C8.29062 16.381 8.44959 16.3151 8.5668 16.1979C8.68401 16.0807 8.74986 15.9217 8.74986 15.756V12.631C8.74986 12.4652 8.68401 12.3062 8.5668 12.189C8.44959 12.0718 8.29062 12.006 8.12486 12.006ZM13.3835 13.256H14.9999C15.1656 13.256 15.3246 13.1901 15.4418 13.0729C15.559 12.9557 15.6249 12.7967 15.6249 12.631C15.6249 12.4652 15.559 12.3062 15.4418 12.189C15.3246 12.0718 15.1656 12.006 14.9999 12.006H11.8749C11.7091 12.006 11.5501 12.0718 11.4329 12.189C11.3157 12.3062 11.2499 12.4652 11.2499 12.631V15.756C11.2499 15.9217 11.3157 16.0807 11.4329 16.1979C11.5501 16.3151 11.7091 16.381 11.8749 16.381C12.0406 16.381 12.1996 16.3151 12.3168 16.1979C12.434 16.0807 12.4999 15.9217 12.4999 15.756V14.1396L15.8077 17.4482C15.8657 17.5062 15.9347 17.5523 16.0105 17.5837C16.0864 17.6151 16.1677 17.6313 16.2499 17.6313C16.332 17.6313 16.4133 17.6151 16.4892 17.5837C16.565 17.5523 16.634 17.5062 16.692 17.4482C16.7501 17.3901 16.7962 17.3211 16.8276 17.2453C16.859 17.1694 16.8752 17.0881 16.8752 17.006C16.8752 16.9238 16.859 16.8425 16.8276 16.7667C16.7962 16.6908 16.7501 16.6218 16.692 16.5638L13.3835 13.256ZM8.12486 5.13096C7.9591 5.13096 7.80013 5.19681 7.68292 5.31402C7.56571 5.43123 7.49986 5.5902 7.49986 5.75596V7.37237L4.19205 4.06378C4.07477 3.9465 3.91571 3.88062 3.74986 3.88062C3.58401 3.88062 3.42495 3.9465 3.30767 4.06378C3.1904 4.18105 3.12451 4.34011 3.12451 4.50596C3.12451 4.67182 3.1904 4.83087 3.30767 4.94815L6.61627 8.25596H4.99986C4.8341 8.25596 4.67513 8.32181 4.55792 8.43902C4.44071 8.55623 4.37486 8.7152 4.37486 8.88096C4.37486 9.04672 4.44071 9.20569 4.55792 9.3229C4.67513 9.44011 4.8341 9.50596 4.99986 9.50596H8.12486C8.29062 9.50596 8.44959 9.44011 8.5668 9.3229C8.68401 9.20569 8.74986 9.04672 8.74986 8.88096V5.75596C8.74986 5.5902 8.68401 5.43123 8.5668 5.31402C8.44959 5.19681 8.29062 5.13096 8.12486 5.13096Z" fill="#1A1A21"/>
</svg>
