<svg width="21" height="20" viewBox="0 0 21 20" fill="none" xmlns="http://www.w3.org/2000/svg">
<path d="M16.0484 14.5602C16.1651 14.6773 16.2306 14.8359 16.2306 15.0012C16.2306 15.1665 16.1651 15.3251 16.0484 15.4422C15.9633 15.5258 13.9508 17.5 10.6055 17.5C7.68437 17.5 5.56406 15.75 4.35547 14.3867V16.25C4.35547 16.4158 4.28962 16.5747 4.17241 16.6919C4.0552 16.8092 3.89623 16.875 3.73047 16.875C3.56471 16.875 3.40574 16.8092 3.28853 16.6919C3.17132 16.5747 3.10547 16.4158 3.10547 16.25V12.5C3.10547 12.3342 3.17132 12.1753 3.28853 12.0581C3.40574 11.9408 3.56471 11.875 3.73047 11.875H7.48047C7.64623 11.875 7.8052 11.9408 7.92241 12.0581C8.03962 12.1753 8.10547 12.3342 8.10547 12.5C8.10547 12.6658 8.03962 12.8247 7.92241 12.9419C7.8052 13.0592 7.64623 13.125 7.48047 13.125H4.93672C5.89922 14.3242 7.87109 16.25 10.6055 16.25C13.418 16.25 15.1477 14.5734 15.1648 14.5563C15.2826 14.4396 15.4418 14.3746 15.6074 14.3753C15.7731 14.376 15.9318 14.4425 16.0484 14.5602ZM17.4805 3.125C17.3147 3.125 17.1557 3.19085 17.0385 3.30806C16.9213 3.42527 16.8555 3.58424 16.8555 3.75V5.61328C15.6469 4.25 13.5266 2.5 10.6055 2.5C7.26016 2.5 5.24766 4.47422 5.16328 4.55781C5.0458 4.67488 4.97963 4.83382 4.97934 4.99968C4.97905 5.16553 5.04465 5.32471 5.16172 5.44219C5.27879 5.55967 5.43773 5.62584 5.60358 5.62613C5.76943 5.62642 5.92861 5.56082 6.04609 5.44375C6.06328 5.42656 7.79297 3.75 10.6055 3.75C13.3398 3.75 15.3117 5.67578 16.2742 6.875H13.7305C13.5647 6.875 13.4057 6.94085 13.2885 7.05806C13.1713 7.17527 13.1055 7.33424 13.1055 7.5C13.1055 7.66576 13.1713 7.82473 13.2885 7.94194C13.4057 8.05915 13.5647 8.125 13.7305 8.125H17.4805C17.6462 8.125 17.8052 8.05915 17.9224 7.94194C18.0396 7.82473 18.1055 7.66576 18.1055 7.5V3.75C18.1055 3.58424 18.0396 3.42527 17.9224 3.30806C17.8052 3.19085 17.6462 3.125 17.4805 3.125Z" fill="#5F4CC8"/>
</svg>
