<svg width="20" height="21" viewBox="0 0 20 21" fill="none" xmlns="http://www.w3.org/2000/svg">
<path d="M16.6927 14.1952L14.1927 16.6952C14.0754 16.8125 13.9163 16.8784 13.7505 16.8784C13.5846 16.8784 13.4256 16.8125 13.3083 16.6952C13.191 16.5779 13.1251 16.4189 13.1251 16.253C13.1251 16.0872 13.191 15.9281 13.3083 15.8108L14.7419 14.378H3.75049C3.58473 14.378 3.42576 14.3122 3.30855 14.195C3.19134 14.0778 3.12549 13.9188 3.12549 13.753C3.12549 13.5873 3.19134 13.4283 3.30855 13.3111C3.42576 13.1939 3.58473 13.128 3.75049 13.128H14.7419L13.3083 11.6952C13.191 11.5779 13.1251 11.4189 13.1251 11.253C13.1251 11.0872 13.191 10.9281 13.3083 10.8108C13.4256 10.6936 13.5846 10.6277 13.7505 10.6277C13.9163 10.6277 14.0754 10.6936 14.1927 10.8108L16.6927 13.3108C16.7508 13.3689 16.7969 13.4378 16.8283 13.5137C16.8598 13.5896 16.876 13.6709 16.876 13.753C16.876 13.8352 16.8598 13.9165 16.8283 13.9924C16.7969 14.0682 16.7508 14.1372 16.6927 14.1952ZM5.8083 9.19522C5.92558 9.3125 6.08464 9.37838 6.25049 9.37838C6.41634 9.37838 6.5754 9.3125 6.69268 9.19522C6.80995 9.07795 6.87584 8.91889 6.87584 8.75303C6.87584 8.58718 6.80995 8.42812 6.69268 8.31085L5.25909 6.87803H16.2505C16.4163 6.87803 16.5752 6.81218 16.6924 6.69497C16.8096 6.57776 16.8755 6.41879 16.8755 6.25303C16.8755 6.08727 16.8096 5.9283 16.6924 5.81109C16.5752 5.69388 16.4163 5.62803 16.2505 5.62803H5.25909L6.69268 4.19522C6.80995 4.07795 6.87584 3.91889 6.87584 3.75303C6.87584 3.58718 6.80995 3.42812 6.69268 3.31085C6.5754 3.19357 6.41634 3.12769 6.25049 3.12769C6.08464 3.12769 5.92558 3.19357 5.8083 3.31085L3.3083 5.81085C3.25019 5.86889 3.20409 5.93782 3.17264 6.0137C3.14119 6.08957 3.125 6.1709 3.125 6.25303C3.125 6.33517 3.14119 6.4165 3.17264 6.49237C3.20409 6.56824 3.25019 6.63718 3.3083 6.69522L5.8083 9.19522Z" fill="#8C94A6"/>
</svg>
