<svg width="33" height="33" viewBox="0 0 33 33" fill="none" xmlns="http://www.w3.org/2000/svg">
<path d="M15.2076 21.2956C15.3005 21.3885 15.3743 21.4988 15.4246 21.6202C15.475 21.7416 15.5009 21.8717 15.5009 22.0031C15.5009 22.1345 15.475 22.2646 15.4246 22.386C15.3743 22.5074 15.3005 22.6177 15.2076 22.7106L11.2076 26.7106C11.1147 26.8036 11.0044 26.8773 10.883 26.9277C10.7616 26.978 10.6315 27.0039 10.5001 27.0039C10.3687 27.0039 10.2385 26.978 10.1171 26.9277C9.99573 26.8773 9.88544 26.8036 9.79257 26.7106L5.79257 22.7106C5.69966 22.6177 5.62596 22.5074 5.57567 22.386C5.52539 22.2646 5.49951 22.1345 5.49951 22.0031C5.49951 21.8717 5.52539 21.7416 5.57567 21.6202C5.62596 21.4988 5.69966 21.3885 5.79257 21.2956C5.98021 21.108 6.2347 21.0025 6.50007 21.0025C6.63146 21.0025 6.76157 21.0284 6.88296 21.0787C7.00436 21.129 7.11466 21.2027 7.20757 21.2956L9.50007 23.5894V6.00311C9.50007 5.73789 9.60542 5.48354 9.79296 5.296C9.9805 5.10846 10.2349 5.00311 10.5001 5.00311C10.7653 5.00311 11.0196 5.10846 11.2072 5.296C11.3947 5.48354 11.5001 5.73789 11.5001 6.00311V23.5894L13.7926 21.2956C13.8854 21.2026 13.9957 21.1289 14.1171 21.0785C14.2385 21.0282 14.3687 21.0023 14.5001 21.0023C14.6315 21.0023 14.7616 21.0282 14.883 21.0785C15.0044 21.1289 15.1147 21.2026 15.2076 21.2956ZM27.2076 9.29561L23.2076 5.29561C23.1147 5.20263 23.0044 5.12887 22.883 5.07855C22.7616 5.02822 22.6315 5.00232 22.5001 5.00232C22.3687 5.00232 22.2385 5.02822 22.1171 5.07855C21.9957 5.12887 21.8854 5.20263 21.7926 5.29561L17.7926 9.29561C17.6049 9.48325 17.4995 9.73774 17.4995 10.0031C17.4995 10.2685 17.6049 10.523 17.7926 10.7106C17.9802 10.8982 18.2347 11.0037 18.5001 11.0037C18.7654 11.0037 19.0199 10.8982 19.2076 10.7106L21.5001 8.41686V26.0031C21.5001 26.2683 21.6054 26.5227 21.793 26.7102C21.9805 26.8977 22.2349 27.0031 22.5001 27.0031C22.7653 27.0031 23.0196 26.8977 23.2072 26.7102C23.3947 26.5227 23.5001 26.2683 23.5001 26.0031V8.41686L25.7926 10.7106C25.9802 10.8982 26.2347 11.0037 26.5001 11.0037C26.7654 11.0037 27.0199 10.8982 27.2076 10.7106C27.3952 10.523 27.5006 10.2685 27.5006 10.0031C27.5006 9.73774 27.3952 9.48325 27.2076 9.29561Z" fill="#8C94A6"/>
</svg>
