<svg width="20" height="21" viewBox="0 0 20 21" fill="none" xmlns="http://www.w3.org/2000/svg">
<path d="M16.692 4.94815L12.7585 8.88096H14.9999C15.1656 8.88096 15.3246 8.94681 15.4418 9.06402C15.559 9.18123 15.6249 9.3402 15.6249 9.50596C15.6249 9.67172 15.559 9.83069 15.4418 9.9479C15.3246 10.0651 15.1656 10.131 14.9999 10.131H11.2499C11.0841 10.131 10.9251 10.0651 10.8079 9.9479C10.6907 9.83069 10.6249 9.67172 10.6249 9.50596V5.75596C10.6249 5.5902 10.6907 5.43123 10.8079 5.31402C10.9251 5.19681 11.0841 5.13096 11.2499 5.13096C11.4156 5.13096 11.5746 5.19681 11.6918 5.31402C11.809 5.43123 11.8749 5.5902 11.8749 5.75596V7.99737L15.8077 4.06378C15.9249 3.9465 16.084 3.88062 16.2499 3.88062C16.4157 3.88062 16.5748 3.9465 16.692 4.06378C16.8093 4.18105 16.8752 4.34011 16.8752 4.50596C16.8752 4.67182 16.8093 4.83087 16.692 4.94815ZM8.74986 11.381H4.99986C4.8341 11.381 4.67513 11.4468 4.55792 11.564C4.44071 11.6812 4.37486 11.8402 4.37486 12.006C4.37486 12.1717 4.44071 12.3307 4.55792 12.4479C4.67513 12.5651 4.8341 12.631 4.99986 12.631H7.24127L3.30767 16.5638C3.1904 16.6811 3.12451 16.8401 3.12451 17.006C3.12451 17.1718 3.1904 17.3309 3.30767 17.4482C3.42495 17.5654 3.58401 17.6313 3.74986 17.6313C3.91571 17.6313 4.07477 17.5654 4.19205 17.4482L8.12486 13.5146V15.756C8.12486 15.9217 8.19071 16.0807 8.30792 16.1979C8.42513 16.3151 8.5841 16.381 8.74986 16.381C8.91562 16.381 9.07459 16.3151 9.1918 16.1979C9.30901 16.0807 9.37486 15.9217 9.37486 15.756V12.006C9.37486 11.8402 9.30901 11.6812 9.1918 11.564C9.07459 11.4468 8.91562 11.381 8.74986 11.381Z" fill="#1A1A21"/>
</svg>
