<svg width="20" height="21" viewBox="0 0 20 21" fill="none" xmlns="http://www.w3.org/2000/svg">
<path d="M16.25 3.25598H3.75C3.41848 3.25598 3.10054 3.38768 2.86612 3.6221C2.6317 3.85652 2.5 4.17446 2.5 4.50598V17.006C2.5 17.3375 2.6317 17.6554 2.86612 17.8899C3.10054 18.1243 3.41848 18.256 3.75 18.256H16.25C16.5815 18.256 16.8995 18.1243 17.1339 17.8899C17.3683 17.6554 17.5 17.3375 17.5 17.006V4.50598C17.5 4.17446 17.3683 3.85652 17.1339 3.6221C16.8995 3.38768 16.5815 3.25598 16.25 3.25598ZM16.25 17.006H3.75V4.50598H16.25V17.006ZM6.875 13.256V9.50598C6.875 9.34022 6.94085 9.18125 7.05806 9.06404C7.17527 8.94683 7.33424 8.88098 7.5 8.88098C7.66576 8.88098 7.82473 8.94683 7.94194 9.06404C8.05915 9.18125 8.125 9.34022 8.125 9.50598V11.7474L12.0578 7.81379C12.1159 7.75572 12.1848 7.70966 12.2607 7.67824C12.3366 7.64681 12.4179 7.63063 12.5 7.63063C12.5821 7.63063 12.6634 7.64681 12.7393 7.67824C12.8152 7.70966 12.8841 7.75572 12.9422 7.81379C13.0003 7.87186 13.0463 7.9408 13.0777 8.01667C13.1092 8.09254 13.1253 8.17386 13.1253 8.25598C13.1253 8.3381 13.1092 8.41942 13.0777 8.49529C13.0463 8.57116 13.0003 8.6401 12.9422 8.69817L9.00859 12.631H11.25C11.4158 12.631 11.5747 12.6968 11.6919 12.814C11.8092 12.9312 11.875 13.0902 11.875 13.256C11.875 13.4217 11.8092 13.5807 11.6919 13.6979C11.5747 13.8151 11.4158 13.881 11.25 13.881H7.5C7.33424 13.881 7.17527 13.8151 7.05806 13.6979C6.94085 13.5807 6.875 13.4217 6.875 13.256Z" fill="#1A1A21"/>
</svg>
