<svg width="37" height="39" viewBox="0 0 37 39" fill="none" xmlns="http://www.w3.org/2000/svg">
<rect x="0.75" y="10.375" width="36" height="28" rx="4" fill="#EEEEF0"/>
<path d="M21.217 0.375H8.75C7.64543 0.375 6.75 1.27043 6.75 2.375V30.375C6.75 31.4796 7.64543 32.375 8.75 32.375H28.75C29.8546 32.375 30.75 31.4796 30.75 30.375V8.5787L21.2168 8.57892L21.217 0.375Z" fill="#339969"/>
<path d="M30.75 7.5698V7.5787L22.2168 7.5789L22.217 0.375H22.2298L30.75 7.5698Z" fill="#339969"/>
<path d="M23.6494 17.1446L17.6494 23.1446C17.5972 23.197 17.5351 23.2386 17.4667 23.267C17.3983 23.2954 17.325 23.31 17.251 23.31C17.1769 23.31 17.1036 23.2954 17.0353 23.267C16.9669 23.2386 16.9048 23.197 16.8525 23.1446L14.2275 20.5196C14.1752 20.4672 14.1337 20.4051 14.1054 20.3368C14.0771 20.2684 14.0625 20.1951 14.0625 20.1211C14.0625 20.0471 14.0771 19.9739 14.1054 19.9055C14.1337 19.8371 14.1752 19.775 14.2275 19.7227C14.2799 19.6704 14.342 19.6289 14.4103 19.6005C14.4787 19.5722 14.552 19.5577 14.626 19.5577C14.7 19.5577 14.7732 19.5722 14.8416 19.6005C14.91 19.6289 14.9721 19.6704 15.0244 19.7227L17.2514 21.9497L22.8535 16.3486C22.9591 16.243 23.1025 16.1836 23.2519 16.1836C23.4014 16.1836 23.5447 16.243 23.6504 16.3486C23.756 16.4543 23.8154 16.5976 23.8154 16.7471C23.8154 16.8965 23.756 17.0398 23.6504 17.1455L23.6494 17.1446Z" fill="white"/>
</svg>
