<svg width="16" height="16" viewBox="0 0 16 16" fill="none" xmlns="http://www.w3.org/2000/svg">
<path d="M1.5 6.50006H3V10.5001H2C1.86739 10.5001 1.74021 10.5527 1.64645 10.6465C1.55268 10.7403 1.5 10.8674 1.5 11.0001C1.5 11.1327 1.55268 11.2598 1.64645 11.3536C1.74021 11.4474 1.86739 11.5001 2 11.5001H14C14.1326 11.5001 14.2598 11.4474 14.3536 11.3536C14.4473 11.2598 14.5 11.1327 14.5 11.0001C14.5 10.8674 14.4473 10.7403 14.3536 10.6465C14.2598 10.5527 14.1326 10.5001 14 10.5001H13V6.50006H14.5C14.6088 6.49995 14.7146 6.46436 14.8013 6.39869C14.888 6.33302 14.951 6.24085 14.9806 6.13617C15.0102 6.03149 15.0049 5.92001 14.9654 5.81863C14.9259 5.71725 14.8545 5.63152 14.7619 5.57443L8.26188 1.57443C8.18311 1.526 8.09246 1.50037 8 1.50037C7.90754 1.50037 7.81689 1.526 7.73812 1.57443L1.23812 5.57443C1.14552 5.63152 1.07406 5.71725 1.03458 5.81863C0.995107 5.92001 0.989773 6.03149 1.01939 6.13617C1.04901 6.24085 1.11195 6.33302 1.19869 6.39869C1.28542 6.46436 1.39121 6.49995 1.5 6.50006ZM4 6.50006H6V10.5001H4V6.50006ZM9 6.50006V10.5001H7V6.50006H9ZM12 10.5001H10V6.50006H12V10.5001ZM8 2.58693L12.7338 5.50006H3.26625L8 2.58693ZM15.5 13.0001C15.5 13.1327 15.4473 13.2598 15.3536 13.3536C15.2598 13.4474 15.1326 13.5001 15 13.5001H1C0.867392 13.5001 0.740215 13.4474 0.646447 13.3536C0.552678 13.2598 0.5 13.1327 0.5 13.0001C0.5 12.8674 0.552678 12.7403 0.646447 12.6465C0.740215 12.5527 0.867392 12.5001 1 12.5001H15C15.1326 12.5001 15.2598 12.5527 15.3536 12.6465C15.4473 12.7403 15.5 12.8674 15.5 13.0001Z" fill="#1A1A21"/>
</svg>
