<svg width="21" height="21" viewBox="0 0 21 21" fill="none" xmlns="http://www.w3.org/2000/svg">
<path d="M19.875 16.2529C19.875 16.4187 19.8092 16.5777 19.6919 16.6949C19.5747 16.8121 19.4158 16.8779 19.25 16.8779H1.75C1.58424 16.8779 1.42527 16.8121 1.30806 16.6949C1.19085 16.5777 1.125 16.4187 1.125 16.2529C1.125 16.0872 1.19085 15.9282 1.30806 15.811C1.42527 15.6938 1.58424 15.6279 1.75 15.6279H19.25C19.4158 15.6279 19.5747 15.6938 19.6919 15.811C19.8092 15.9282 19.875 16.0872 19.875 16.2529ZM1.77344 7.67324C1.73626 7.54217 1.74294 7.40254 1.79244 7.27561C1.84194 7.14868 1.93156 7.04141 2.04766 6.97011L10.1727 1.97011C10.2711 1.90958 10.3844 1.87753 10.5 1.87753C10.6156 1.87753 10.7289 1.90958 10.8273 1.97011L18.9523 6.97011C19.0685 7.04132 19.1582 7.14852 19.2078 7.2754C19.2573 7.40227 19.2641 7.54188 19.2271 7.67296C19.19 7.80405 19.1111 7.91944 19.0024 8.00157C18.8938 8.08369 18.7612 8.12806 18.625 8.12792H16.75V13.1279H18C18.1658 13.1279 18.3247 13.1938 18.4419 13.311C18.5592 13.4282 18.625 13.5872 18.625 13.7529C18.625 13.9187 18.5592 14.0777 18.4419 14.1949C18.3247 14.3121 18.1658 14.3779 18 14.3779H3C2.83424 14.3779 2.67527 14.3121 2.55806 14.1949C2.44085 14.0777 2.375 13.9187 2.375 13.7529C2.375 13.5872 2.44085 13.4282 2.55806 13.311C2.67527 13.1938 2.83424 13.1279 3 13.1279H4.25V8.12792H2.375C2.2389 8.12797 2.1065 8.08359 1.99792 8.00152C1.88935 7.91946 1.81053 7.80419 1.77344 7.67324ZM11.75 12.5029C11.75 12.6687 11.8158 12.8277 11.9331 12.9449C12.0503 13.0621 12.2092 13.1279 12.375 13.1279C12.5408 13.1279 12.6997 13.0621 12.8169 12.9449C12.9342 12.8277 13 12.6687 13 12.5029V8.75292C13 8.58716 12.9342 8.42819 12.8169 8.31098C12.6997 8.19377 12.5408 8.12792 12.375 8.12792C12.2092 8.12792 12.0503 8.19377 11.9331 8.31098C11.8158 8.42819 11.75 8.58716 11.75 8.75292V12.5029ZM8 12.5029C8 12.6687 8.06585 12.8277 8.18306 12.9449C8.30027 13.0621 8.45924 13.1279 8.625 13.1279C8.79076 13.1279 8.94973 13.0621 9.06694 12.9449C9.18415 12.8277 9.25 12.6687 9.25 12.5029V8.75292C9.25 8.58716 9.18415 8.42819 9.06694 8.31098C8.94973 8.19377 8.79076 8.12792 8.625 8.12792C8.45924 8.12792 8.30027 8.19377 8.18306 8.31098C8.06585 8.42819 8 8.58716 8 8.75292V12.5029Z" fill="#0BA5EC"/>
</svg>
