<svg width="16" height="16" viewBox="0 0 16 16" fill="none" xmlns="http://www.w3.org/2000/svg">
<path d="M13 2.125H11.375V1.5C11.375 1.40054 11.3355 1.30516 11.2652 1.23483C11.1948 1.16451 11.0995 1.125 11 1.125C10.9005 1.125 10.8052 1.16451 10.7348 1.23483C10.6645 1.30516 10.625 1.40054 10.625 1.5V2.125H5.375V1.5C5.375 1.40054 5.33549 1.30516 5.26516 1.23483C5.19484 1.16451 5.09946 1.125 5 1.125C4.90054 1.125 4.80516 1.16451 4.73484 1.23483C4.66451 1.30516 4.625 1.40054 4.625 1.5V2.125H3C2.76794 2.125 2.54538 2.21719 2.38128 2.38128C2.21719 2.54538 2.125 2.76794 2.125 3V13C2.125 13.2321 2.21719 13.4546 2.38128 13.6187C2.54538 13.7828 2.76794 13.875 3 13.875H13C13.2321 13.875 13.4546 13.7828 13.6187 13.6187C13.7828 13.4546 13.875 13.2321 13.875 13V3C13.875 2.76794 13.7828 2.54538 13.6187 2.38128C13.4546 2.21719 13.2321 2.125 13 2.125ZM3 2.875H4.625V3.5C4.625 3.59946 4.66451 3.69484 4.73484 3.76517C4.80516 3.83549 4.90054 3.875 5 3.875C5.09946 3.875 5.19484 3.83549 5.26516 3.76517C5.33549 3.69484 5.375 3.59946 5.375 3.5V2.875H10.625V3.5C10.625 3.59946 10.6645 3.69484 10.7348 3.76517C10.8052 3.83549 10.9005 3.875 11 3.875C11.0995 3.875 11.1948 3.83549 11.2652 3.76517C11.3355 3.69484 11.375 3.59946 11.375 3.5V2.875H13C13.0332 2.875 13.0649 2.88817 13.0884 2.91161C13.1118 2.93505 13.125 2.96685 13.125 3V5.125H2.875V3C2.875 2.96685 2.88817 2.93505 2.91161 2.91161C2.93505 2.88817 2.96685 2.875 3 2.875ZM13 13.125H3C2.96685 13.125 2.93505 13.1118 2.91161 13.0884C2.88817 13.0649 2.875 13.0332 2.875 13V5.875H13.125V13C13.125 13.0332 13.1118 13.0649 13.0884 13.0884C13.0649 13.1118 13.0332 13.125 13 13.125ZM10.515 7.735C10.5852 7.80531 10.6247 7.90062 10.6247 8C10.6247 8.09938 10.5852 8.19469 10.515 8.265L7.515 11.265C7.44469 11.3352 7.34938 11.3747 7.25 11.3747C7.15062 11.3747 7.05531 11.3352 6.985 11.265L5.485 9.765C5.41876 9.69391 5.3827 9.59989 5.38441 9.50274C5.38613 9.40559 5.42548 9.3129 5.49419 9.24419C5.5629 9.17548 5.65559 9.13613 5.75274 9.13441C5.84989 9.1327 5.94391 9.16876 6.015 9.235L7.25 10.4694L9.985 7.735C10.0553 7.66477 10.1506 7.62533 10.25 7.62533C10.3494 7.62533 10.4447 7.66477 10.515 7.735Z" fill="#8C94A6"/>
</svg>
