<svg width="20" height="21" viewBox="0 0 20 21" fill="none" xmlns="http://www.w3.org/2000/svg">
<path d="M16.25 3.25598H14.375V2.63098C14.375 2.46522 14.3092 2.30625 14.1919 2.18904C14.0747 2.07183 13.9158 2.00598 13.75 2.00598C13.5842 2.00598 13.4253 2.07183 13.3081 2.18904C13.1908 2.30625 13.125 2.46522 13.125 2.63098V3.25598H6.875V2.63098C6.875 2.46522 6.80915 2.30625 6.69194 2.18904C6.57473 2.07183 6.41576 2.00598 6.25 2.00598C6.08424 2.00598 5.92527 2.07183 5.80806 2.18904C5.69085 2.30625 5.625 2.46522 5.625 2.63098V3.25598H3.75C3.41848 3.25598 3.10054 3.38768 2.86612 3.6221C2.6317 3.85652 2.5 4.17446 2.5 4.50598V17.006C2.5 17.3375 2.6317 17.6554 2.86612 17.8899C3.10054 18.1243 3.41848 18.256 3.75 18.256H16.25C16.5815 18.256 16.8995 18.1243 17.1339 17.8899C17.3683 17.6554 17.5 17.3375 17.5 17.006V4.50598C17.5 4.17446 17.3683 3.85652 17.1339 3.6221C16.8995 3.38768 16.5815 3.25598 16.25 3.25598ZM5.625 4.50598V5.13098C5.625 5.29674 5.69085 5.45571 5.80806 5.57292C5.92527 5.69013 6.08424 5.75598 6.25 5.75598C6.41576 5.75598 6.57473 5.69013 6.69194 5.57292C6.80915 5.45571 6.875 5.29674 6.875 5.13098V4.50598H13.125V5.13098C13.125 5.29674 13.1908 5.45571 13.3081 5.57292C13.4253 5.69013 13.5842 5.75598 13.75 5.75598C13.9158 5.75598 14.0747 5.69013 14.1919 5.57292C14.3092 5.45571 14.375 5.29674 14.375 5.13098V4.50598H16.25V7.00598H3.75V4.50598H5.625ZM16.25 17.006H3.75V8.25598H16.25V17.006Z" fill="#8C94A6"/>
</svg>
