<svg width="16" height="16" viewBox="0 0 16 16" fill="none" xmlns="http://www.w3.org/2000/svg">
<path d="M11.3538 8.35414L6.35375 13.3541C6.28382 13.4241 6.1947 13.4718 6.09765 13.4912C6.00061 13.5105 5.90002 13.5006 5.8086 13.4627C5.71719 13.4248 5.63908 13.3607 5.58414 13.2784C5.5292 13.1961 5.49992 13.0993 5.5 13.0004V3.00039C5.49992 2.90145 5.5292 2.8047 5.58414 2.7224C5.63908 2.64011 5.71719 2.57596 5.8086 2.53808C5.90002 2.50021 6.00061 2.4903 6.09765 2.50963C6.1947 2.52895 6.28382 2.57664 6.35375 2.64664L11.3538 7.64664C11.4002 7.69308 11.4371 7.74822 11.4623 7.80892C11.4874 7.86962 11.5004 7.93469 11.5004 8.00039C11.5004 8.0661 11.4874 8.13117 11.4623 8.19186C11.4371 8.25256 11.4002 8.30771 11.3538 8.35414Z" fill="#BBC0CA"/>
</svg>
