<svg width="20" height="21" viewBox="0 0 20 21" fill="none" xmlns="http://www.w3.org/2000/svg">
<path d="M16.875 3.37695H6.875C6.70924 3.37695 6.55027 3.4428 6.43306 3.56001C6.31585 3.67722 6.25 3.83619 6.25 4.00195V7.12695H3.125C2.95924 7.12695 2.80027 7.1928 2.68306 7.31001C2.56585 7.42722 2.5 7.58619 2.5 7.75195V17.752C2.5 17.9177 2.56585 18.0767 2.68306 18.1939C2.80027 18.3111 2.95924 18.377 3.125 18.377H13.125C13.2908 18.377 13.4497 18.3111 13.5669 18.1939C13.6842 18.0767 13.75 17.9177 13.75 17.752V14.627H16.875C17.0408 14.627 17.1997 14.5611 17.3169 14.4439C17.4342 14.3267 17.5 14.1677 17.5 14.002V4.00195C17.5 3.83619 17.4342 3.67722 17.3169 3.56001C17.1997 3.4428 17.0408 3.37695 16.875 3.37695ZM16.25 13.377H13.75V7.75195C13.75 7.58619 13.6842 7.42722 13.5669 7.31001C13.4497 7.1928 13.2908 7.12695 13.125 7.12695H7.5V4.62695H16.25V13.377Z" fill="#8872FD"/>
</svg>
