<svg width="24" height="25" viewBox="0 0 24 25" fill="none" xmlns="http://www.w3.org/2000/svg">
<path d="M13.125 12.125C13.125 12.3475 13.059 12.565 12.9354 12.75C12.8118 12.935 12.6361 13.0792 12.4305 13.1644C12.225 13.2495 11.9988 13.2718 11.7805 13.2284C11.5623 13.185 11.3618 13.0778 11.2045 12.9205C11.0472 12.7632 10.94 12.5627 10.8966 12.3445C10.8532 12.1262 10.8755 11.9 10.9606 11.6945C11.0458 11.4889 11.19 11.3132 11.375 11.1896C11.56 11.066 11.7775 11 12 11C12.2984 11 12.5845 11.1185 12.7955 11.3295C13.0065 11.5405 13.125 11.8266 13.125 12.125ZM18.375 11C18.1525 11 17.935 11.066 17.75 11.1896C17.565 11.3132 17.4208 11.4889 17.3356 11.6945C17.2505 11.9 17.2282 12.1262 17.2716 12.3445C17.315 12.5627 17.4222 12.7632 17.5795 12.9205C17.7368 13.0778 17.9373 13.185 18.1555 13.2284C18.3738 13.2718 18.6 13.2495 18.8055 13.1644C19.0111 13.0792 19.1868 12.935 19.3104 12.75C19.434 12.565 19.5 12.3475 19.5 12.125C19.5 11.8266 19.3815 11.5405 19.1705 11.3295C18.9595 11.1185 18.6734 11 18.375 11ZM5.625 11C5.4025 11 5.18499 11.066 4.99998 11.1896C4.81498 11.3132 4.67078 11.4889 4.58564 11.6945C4.50049 11.9 4.47821 12.1262 4.52162 12.3445C4.56503 12.5627 4.67217 12.7632 4.82951 12.9205C4.98684 13.0778 5.1873 13.185 5.40552 13.2284C5.62375 13.2718 5.84995 13.2495 6.05552 13.1644C6.26109 13.0792 6.43679 12.935 6.5604 12.75C6.68402 12.565 6.75 12.3475 6.75 12.125C6.75 11.8266 6.63147 11.5405 6.4205 11.3295C6.20952 11.1185 5.92337 11 5.625 11Z" fill="#1A1A21"/>
</svg>
