<svg width="25" height="17" viewBox="0 0 25 17" fill="none" xmlns="http://www.w3.org/2000/svg">
<g clip-path="url(#clip0_914_24854)">
<path d="M11.354 9.17507L6.35403 14.1751C6.30757 14.2215 6.25242 14.2584 6.19173 14.2835C6.13103 14.3087 6.06598 14.3216 6.00028 14.3216C5.93458 14.3216 5.86953 14.3087 5.80883 14.2835C5.74813 14.2584 5.69298 14.2215 5.64653 14.1751C5.60007 14.1286 5.56322 14.0735 5.53808 14.0128C5.51294 13.9521 5.5 13.887 5.5 13.8213C5.5 13.7556 5.51294 13.6906 5.53808 13.6299C5.56322 13.5692 5.60007 13.514 5.64653 13.4676L10.2934 8.82132L5.64653 4.17507C5.55271 4.08125 5.5 3.954 5.5 3.82132C5.5 3.68864 5.55271 3.56139 5.64653 3.46757C5.74035 3.37375 5.8676 3.32104 6.00028 3.32104C6.13296 3.32104 6.26021 3.37375 6.35403 3.46757L11.354 8.46757C11.4005 8.51401 11.4374 8.56915 11.4626 8.62985C11.4877 8.69055 11.5007 8.75562 11.5007 8.82132C11.5007 8.88703 11.4877 8.95209 11.4626 9.01279C11.4374 9.07349 11.4005 9.12864 11.354 9.17507Z" fill="#E8E4FE"/>
<path d="M20.354 9.17507L15.354 14.1751C15.3076 14.2215 15.2524 14.2584 15.1917 14.2835C15.131 14.3087 15.066 14.3216 15.0003 14.3216C14.9346 14.3216 14.8695 14.3087 14.8088 14.2835C14.7481 14.2584 14.693 14.2215 14.6465 14.1751C14.6001 14.1286 14.5632 14.0735 14.5381 14.0128C14.5129 13.9521 14.5 13.887 14.5 13.8213C14.5 13.7556 14.5129 13.6906 14.5381 13.6299C14.5632 13.5692 14.6001 13.514 14.6465 13.4676L19.2934 8.82132L14.6465 4.17507C14.5527 4.08125 14.5 3.954 14.5 3.82132C14.5 3.68864 14.5527 3.56139 14.6465 3.46757C14.7403 3.37375 14.8676 3.32104 15.0003 3.32104C15.133 3.32104 15.2602 3.37375 15.354 3.46757L20.354 8.46757C20.4005 8.51401 20.4374 8.56915 20.4626 8.62985C20.4877 8.69055 20.5007 8.75562 20.5007 8.82132C20.5007 8.88703 20.4877 8.95209 20.4626 9.01279C20.4374 9.07349 20.4005 9.12864 20.354 9.17507Z" fill="#8872FD"/>
</g>
<defs>
<clipPath id="clip0_914_24854">
<rect width="25" height="16" fill="white" transform="translate(0 0.821289)"/>
</clipPath>
</defs>
</svg>
