<svg width="33" height="33" viewBox="0 0 33 33" fill="none" xmlns="http://www.w3.org/2000/svg">
<path opacity="0.2" d="M28.0742 12.127L18.2555 19.127H13.893L4.07422 12.127L16.0742 4.12695L28.0742 12.127Z" fill="white"/>
<path d="M28.6292 11.2941L16.6292 3.29413C16.4649 3.18449 16.2718 3.12598 16.0742 3.12598C15.8767 3.12598 15.6835 3.18449 15.5192 3.29413L3.51922 11.2941C3.38223 11.3855 3.26994 11.5093 3.19231 11.6546C3.11468 11.7998 3.07411 11.9619 3.07422 12.1266V25.1266C3.07422 25.6571 3.28493 26.1658 3.66001 26.5408C4.03508 26.9159 4.54379 27.1266 5.07422 27.1266H27.0742C27.6047 27.1266 28.1134 26.9159 28.4884 26.5408C28.8635 26.1658 29.0742 25.6571 29.0742 25.1266V12.1266C29.0743 11.9619 29.0338 11.7998 28.9561 11.6546C28.8785 11.5093 28.7662 11.3855 28.6292 11.2941ZM12.1642 19.1266L5.07422 24.1266V14.0679L12.1642 19.1266ZM14.2105 20.1266H17.938L25.0167 25.1266H7.13172L14.2105 20.1266ZM19.9842 19.1266L27.0742 14.0679V24.1266L19.9842 19.1266ZM16.0742 5.32788L26.313 12.1541L17.938 18.1266H14.213L5.83797 12.1541L16.0742 5.32788Z" fill="white"/>
</svg>
