<svg width="8" height="9" viewBox="0 0 8 9" fill="none" xmlns="http://www.w3.org/2000/svg">
<path d="M7 5.37695C7 5.44326 6.97366 5.50685 6.92678 5.55373C6.87989 5.60061 6.8163 5.62695 6.75 5.62695H1.25C1.1837 5.62695 1.12011 5.60061 1.07322 5.55373C1.02634 5.50685 1 5.44326 1 5.37695C1 5.31065 1.02634 5.24706 1.07322 5.20018C1.12011 5.15329 1.1837 5.12695 1.25 5.12695H6.75C6.8163 5.12695 6.87989 5.15329 6.92678 5.20018C6.97366 5.24706 7 5.31065 7 5.37695ZM1.25 3.62695H6.75C6.8163 3.62695 6.87989 3.60061 6.92678 3.55373C6.97366 3.50685 7 3.44326 7 3.37695C7 3.31065 6.97366 3.24706 6.92678 3.20018C6.87989 3.15329 6.8163 3.12695 6.75 3.12695H1.25C1.1837 3.12695 1.12011 3.15329 1.07322 3.20018C1.02634 3.24706 1 3.31065 1 3.37695C1 3.44326 1.02634 3.50685 1.07322 3.55373C1.12011 3.60061 1.1837 3.62695 1.25 3.62695Z" fill="#49576D"/>
</svg>
