<svg width="36" height="39" viewBox="0 0 36 39" fill="none" xmlns="http://www.w3.org/2000/svg">
<rect y="10.8784" width="36" height="28" rx="4" fill="#EEEEF0"/>
<path d="M20.467 0.878418H8C6.89543 0.878418 6 1.77385 6 2.87842V30.8784C6 31.983 6.89543 32.8784 8 32.8784H28C29.1046 32.8784 30 31.983 30 30.8784V9.08211L20.4668 9.08234L20.467 0.878418Z" fill="#339969"/>
<path d="M30 8.07321V8.08211L21.4668 8.08232L21.467 0.878418H21.4798L30 8.07321Z" fill="#339969"/>
<path d="M22.8994 17.6475L16.8994 23.6475C16.8472 23.6999 16.7851 23.7415 16.7167 23.7699C16.6483 23.7983 16.575 23.8129 16.501 23.8129C16.4269 23.8129 16.3536 23.7983 16.2853 23.7699C16.2169 23.7415 16.1548 23.6999 16.1025 23.6475L13.4775 21.0225C13.4252 20.9702 13.3837 20.9081 13.3554 20.8397C13.3271 20.7713 13.3125 20.6981 13.3125 20.6241C13.3125 20.5501 13.3271 20.4768 13.3554 20.4084C13.3837 20.3401 13.4252 20.2779 13.4775 20.2256C13.5299 20.1733 13.592 20.1318 13.6603 20.1035C13.7287 20.0752 13.802 20.0606 13.876 20.0606C13.95 20.0606 14.0232 20.0752 14.0916 20.1035C14.16 20.1318 14.2221 20.1733 14.2744 20.2256L16.5014 22.4527L22.1035 16.8516C22.2091 16.7459 22.3525 16.6865 22.5019 16.6865C22.6514 16.6865 22.7947 16.7459 22.9004 16.8516C23.006 16.9572 23.0654 17.1006 23.0654 17.25C23.0654 17.3994 23.006 17.5428 22.9004 17.6484L22.8994 17.6475Z" fill="white"/>
</svg>
