<svg width="16" height="17" viewBox="0 0 16 17" fill="none" xmlns="http://www.w3.org/2000/svg">
<path d="M10 11.5615C9.98267 12.4123 9.63275 13.2224 9.02523 13.8183C8.41771 14.4141 7.60094 14.7482 6.75 14.749H3.795C2.55438 14.749 1.5 13.7346 1.5 12.494C1.50104 12.0845 1.61381 11.6831 1.82616 11.333C2.0385 10.9829 2.34236 10.6973 2.705 10.5071C2.74681 10.4854 2.79392 10.4759 2.8409 10.4797C2.88787 10.4836 2.9328 10.5006 2.97051 10.5289C3.00821 10.5572 3.03714 10.5956 3.05397 10.6396C3.0708 10.6837 3.07484 10.7315 3.06562 10.7778C3.02433 11.0078 3.00341 11.241 3.00312 11.4746C2.99992 11.6053 3.04662 11.7322 3.1337 11.8296C3.22078 11.927 3.34171 11.9876 3.47187 11.999C3.53986 12.0029 3.60792 11.9928 3.67186 11.9693C3.73581 11.9459 3.7943 11.9097 3.84375 11.8629C3.8932 11.8161 3.93257 11.7597 3.95944 11.6971C3.9863 11.6345 4.00011 11.5671 4 11.499C3.9992 11.0675 4.09241 10.6409 4.27313 10.249C4.56045 9.62166 5.05527 9.11253 5.67417 8.80743C6.29308 8.50232 6.99825 8.41989 7.67084 8.57404C8.34343 8.72819 8.94232 9.10948 9.36659 9.65366C9.79086 10.1978 10.0146 10.8716 10 11.5615ZM13.5 5.74902V13.749C13.5 14.0142 13.3946 14.2686 13.2071 14.4561C13.0196 14.6437 12.7652 14.749 12.5 14.749H11C10.8674 14.749 10.7402 14.6963 10.6464 14.6026C10.5527 14.5088 10.5 14.3816 10.5 14.249C10.5 14.1164 10.5527 13.9892 10.6464 13.8955C10.7402 13.8017 10.8674 13.749 11 13.749H12.5V6.24902H9.5C9.36739 6.24902 9.24021 6.19634 9.14645 6.10258C9.05268 6.00881 9 5.88163 9 5.74902V2.74902H3.5V8.24902C3.5 8.38163 3.44732 8.50881 3.35355 8.60258C3.25979 8.69635 3.13261 8.74902 3 8.74902C2.86739 8.74902 2.74021 8.69635 2.64645 8.60258C2.55268 8.50881 2.5 8.38163 2.5 8.24902V2.74902C2.5 2.48381 2.60536 2.22945 2.79289 2.04192C2.98043 1.85438 3.23478 1.74902 3.5 1.74902H9.5C9.56568 1.74897 9.63073 1.76186 9.69143 1.78696C9.75212 1.81205 9.80728 1.84886 9.85375 1.89527L13.3538 5.39527C13.4002 5.44174 13.437 5.4969 13.4621 5.5576C13.4872 5.6183 13.5001 5.68334 13.5 5.74902ZM11.7931 5.24902L10 3.4559V5.24902H11.7931Z" fill="#1A1A21"/>
</svg>
