<svg width="20" height="21" viewBox="0 0 20 21" fill="none" xmlns="http://www.w3.org/2000/svg">
<path d="M16.25 2.74903H7.1336C6.96939 2.74851 6.80671 2.78063 6.65502 2.84353C6.50333 2.90643 6.36566 2.99886 6.25001 3.11544L2.86641 6.49903C2.74983 6.61468 2.65741 6.75235 2.59451 6.90404C2.5316 7.05573 2.49948 7.21841 2.50001 7.38262V16.499C2.50001 16.8306 2.6317 17.1485 2.86612 17.3829C3.10054 17.6173 3.41849 17.749 3.75001 17.749H16.25C16.5815 17.749 16.8995 17.6173 17.1339 17.3829C17.3683 17.1485 17.5 16.8306 17.5 16.499V3.99903C17.5 3.66751 17.3683 3.34957 17.1339 3.11515C16.8995 2.88073 16.5815 2.74903 16.25 2.74903ZM16.25 16.499H3.75001V7.38262L7.1336 3.99903H13.125V6.49903H6.87501C6.70925 6.49903 6.55027 6.56488 6.43306 6.68209C6.31585 6.7993 6.25001 6.95827 6.25001 7.12403C6.25001 7.28979 6.31585 7.44876 6.43306 7.56597C6.55027 7.68318 6.70925 7.74903 6.87501 7.74903H13.125C13.4565 7.74903 13.7745 7.61733 14.0089 7.38291C14.2433 7.14849 14.375 6.83055 14.375 6.49903V3.99903H16.25V16.499ZM10 8.99903C9.38194 8.99903 8.77775 9.18231 8.26385 9.52569C7.74995 9.86907 7.34941 10.3571 7.11288 10.9281C6.87636 11.4992 6.81447 12.1275 6.93505 12.7337C7.05563 13.3399 7.35326 13.8967 7.7903 14.3337C8.22734 14.7708 8.78416 15.0684 9.39035 15.189C9.99654 15.3096 10.6249 15.2477 11.1959 15.0112C11.7669 14.7746 12.255 14.3741 12.5983 13.8602C12.9417 13.3463 13.125 12.7421 13.125 12.124C13.125 11.2952 12.7958 10.5004 12.2097 9.91432C11.6237 9.32827 10.8288 8.99903 10 8.99903ZM10 13.999C9.62917 13.999 9.26665 13.8891 8.95831 13.683C8.64997 13.477 8.40965 13.1842 8.26773 12.8416C8.12582 12.4989 8.08869 12.1219 8.16103 11.7582C8.23338 11.3945 8.41196 11.0604 8.67418 10.7982C8.9364 10.536 9.2705 10.3574 9.63421 10.2851C9.99793 10.2127 10.3749 10.2498 10.7175 10.3918C11.0601 10.5337 11.353 10.774 11.559 11.0823C11.765 11.3907 11.875 11.7532 11.875 12.124C11.875 12.6213 11.6775 13.0982 11.3258 13.4499C10.9742 13.8015 10.4973 13.999 10 13.999Z" fill="#5F4CC8"/>
</svg>
