<svg width="24" height="24" viewBox="0 0 24 24" fill="none" xmlns="http://www.w3.org/2000/svg">
<g clip-path="url(#clip0_1155_32210)">
<path d="M20.2684 21.1315C18.3736 22.9203 15.6854 24.0002 12.1654 24.0002C7.64836 24.0002 3.5708 21.313 1.57031 17.3952L5.54128 14.2793C6.46146 17.161 9.07954 19.2398 12.1654 19.2398C13.8926 19.2398 15.2878 18.8087 16.3635 18.0674L20.2684 21.1315Z" fill="#34A853"/>
<path d="M5.18825 12C5.18825 12.7963 5.31216 13.5625 5.54113 14.2791L1.57016 17.395C0.742179 15.7731 0.27002 13.9403 0.27002 12C0.27002 10.0597 0.742179 8.22691 1.57032 6.60498L5.54113 9.72105C5.31216 10.4376 5.18825 11.2037 5.18825 12Z" fill="#FBBC05"/>
<path d="M20.242 3.21802L16.8705 6.54124C15.672 5.43216 14.0567 4.76043 12.1653 4.76043C9.07923 4.76043 6.46131 6.8392 5.54113 9.72104L1.57031 6.60497C3.57065 2.68723 7.64821 0 12.1653 0C15.4489 0 18.2303 1.2214 20.242 3.21802Z" fill="#EA4335"/>
<path d="M23.7298 12C23.7298 12.8467 23.6692 13.673 23.5471 14.4702C23.142 17.1152 22.0598 19.4402 20.2683 21.1313L16.3634 18.0672C17.5978 17.2165 18.4114 15.9567 18.8232 14.4702H12.3242V10.0244H23.5878C23.6816 10.6672 23.7298 11.327 23.7298 12Z" fill="#4285F4"/>
</g>
<defs>
<clipPath id="clip0_1155_32210">
<rect width="23.4598" height="24" fill="white" transform="translate(0.27002)"/>
</clipPath>
</defs>
</svg>
