<svg width="14" height="14" viewBox="0 0 14 14" fill="none" xmlns="http://www.w3.org/2000/svg">
<path d="M11.5489 10.7494L7.63276 7L11.5489 3.25062C11.5512 3.24812 11.5535 3.24575 11.556 3.24352C11.6783 3.12115 11.7616 2.96527 11.7953 2.79559C11.8291 2.62591 11.8117 2.45004 11.7455 2.29021C11.6793 2.13037 11.5673 1.99374 11.4234 1.89759C11.2796 1.80144 11.1105 1.75008 10.9375 1.75H3.06253C2.88957 1.75019 2.72055 1.80163 2.57682 1.89782C2.43308 1.99401 2.32108 2.13065 2.25496 2.29046C2.18883 2.45027 2.17155 2.6261 2.20529 2.79573C2.23904 2.96536 2.3223 3.12118 2.44456 3.24352L2.45112 3.25062L6.36729 7L2.45112 10.7494L2.44456 10.7565C2.3223 10.8788 2.23904 11.0346 2.20529 11.2043C2.17155 11.3739 2.18883 11.5497 2.25496 11.7095C2.32108 11.8694 2.43308 12.006 2.57682 12.1022C2.72055 12.1984 2.88957 12.2498 3.06253 12.25H10.9375C11.1106 12.25 11.2797 12.1987 11.4236 12.1026C11.5675 12.0065 11.6797 11.8699 11.746 11.71C11.8122 11.5502 11.8296 11.3743 11.7959 11.2045C11.7622 11.0348 11.6789 10.8789 11.5566 10.7565C11.5539 10.7543 11.5513 10.7519 11.5489 10.7494ZM5.34792 4.8125H8.65213L7.00003 6.39406L5.34792 4.8125ZM10.9375 2.625L9.56596 3.9375H4.43409L3.06253 2.625H10.9375ZM3.06253 11.375L6.56253 8.02484V9.1875C6.56253 9.30353 6.60862 9.41481 6.69067 9.49686C6.77271 9.57891 6.88399 9.625 7.00003 9.625C7.11606 9.625 7.22734 9.57891 7.30938 9.49686C7.39143 9.41481 7.43753 9.30353 7.43753 9.1875V8.02484L10.9375 11.375H3.06253Z" fill="#49576D"/>
</svg>
