<svg width="20" height="21" viewBox="0 0 20 21" fill="none" xmlns="http://www.w3.org/2000/svg">
<path opacity="0.2" d="M17.5 10.0029C17.5 11.4863 17.0601 12.9363 16.236 14.1697C15.4119 15.4031 14.2406 16.3644 12.8701 16.932C11.4997 17.4997 9.99168 17.6482 8.53683 17.3588C7.08197 17.0694 5.7456 16.3551 4.6967 15.3062C3.64781 14.2573 2.9335 12.921 2.64411 11.4661C2.35472 10.0112 2.50325 8.50325 3.07091 7.1328C3.63856 5.76236 4.59986 4.59102 5.83323 3.76691C7.0666 2.9428 8.51664 2.50293 10 2.50293C11.9891 2.50293 13.8968 3.29311 15.3033 4.69963C16.7098 6.10615 17.5 8.01381 17.5 10.0029Z" fill="#8872FD"/>
<path d="M11.25 13.7529C11.25 13.9187 11.1842 14.0777 11.0669 14.1949C10.9497 14.3121 10.7908 14.3779 10.625 14.3779C10.2935 14.3779 9.97554 14.2462 9.74112 14.0118C9.5067 13.7774 9.375 13.4595 9.375 13.1279V10.0029C9.20924 10.0029 9.05027 9.93708 8.93306 9.81987C8.81585 9.70266 8.75 9.54369 8.75 9.37793C8.75 9.21217 8.81585 9.0532 8.93306 8.93599C9.05027 8.81878 9.20924 8.75293 9.375 8.75293C9.70652 8.75293 10.0245 8.88463 10.2589 9.11905C10.4933 9.35347 10.625 9.67141 10.625 10.0029V13.1279C10.7908 13.1279 10.9497 13.1938 11.0669 13.311C11.1842 13.4282 11.25 13.5872 11.25 13.7529ZM18.125 10.0029C18.125 11.6099 17.6485 13.1808 16.7557 14.5169C15.8629 15.8531 14.594 16.8945 13.1093 17.5095C11.6247 18.1244 9.99099 18.2853 8.4149 17.9718C6.8388 17.6583 5.39106 16.8845 4.25476 15.7482C3.11846 14.6119 2.34463 13.1641 2.03112 11.588C1.71762 10.0119 1.87852 8.37828 2.49348 6.89363C3.10844 5.40898 4.14985 4.14003 5.486 3.24724C6.82214 2.35445 8.39303 1.87793 10 1.87793C12.1542 1.8802 14.2195 2.73696 15.7427 4.2602C17.266 5.78344 18.1227 7.84874 18.125 10.0029ZM16.875 10.0029C16.875 8.64318 16.4718 7.31397 15.7164 6.18338C14.9609 5.0528 13.8872 4.17161 12.631 3.65126C11.3747 3.13091 9.99238 2.99476 8.65876 3.26003C7.32514 3.5253 6.10013 4.18008 5.13864 5.14157C4.17716 6.10306 3.52238 7.32806 3.2571 8.66168C2.99183 9.9953 3.12798 11.3776 3.64833 12.6339C4.16868 13.8901 5.04987 14.9638 6.18046 15.7193C7.31105 16.4747 8.64026 16.8779 10 16.8779C11.8227 16.8759 13.5702 16.1509 14.8591 14.862C16.1479 13.5731 16.8729 11.8257 16.875 10.0029ZM9.6875 7.50293C9.87292 7.50293 10.0542 7.44795 10.2084 7.34493C10.3625 7.24192 10.4827 7.0955 10.5536 6.9242C10.6246 6.75289 10.6432 6.56439 10.607 6.38253C10.5708 6.20068 10.4815 6.03363 10.3504 5.90252C10.2193 5.77141 10.0523 5.68212 9.8704 5.64594C9.68854 5.60977 9.50004 5.62834 9.32874 5.69929C9.15743 5.77025 9.01101 5.89041 8.908 6.04458C8.80499 6.19875 8.75 6.38001 8.75 6.56543C8.75 6.81407 8.84878 7.05253 9.02459 7.22834C9.20041 7.40416 9.43886 7.50293 9.6875 7.50293Z" fill="#8872FD"/>
</svg>
