<svg width="16" height="17" viewBox="0 0 16 17" fill="none" xmlns="http://www.w3.org/2000/svg">
<path d="M8 2.37695C6.71442 2.37695 5.45772 2.75817 4.3888 3.4724C3.31988 4.18663 2.48676 5.20179 1.99479 6.38951C1.50282 7.57723 1.37409 8.88416 1.6249 10.145C1.8757 11.4059 2.49477 12.5641 3.40381 13.4731C4.31285 14.3822 5.47104 15.0013 6.73192 15.2521C7.99279 15.5029 9.29973 15.3741 10.4874 14.8822C11.6752 14.3902 12.6903 13.5571 13.4046 12.4882C14.1188 11.4192 14.5 10.1625 14.5 8.87695C14.4982 7.1536 13.8128 5.50136 12.5942 4.28277C11.3756 3.06418 9.72335 2.37877 8 2.37695ZM8 14.377C6.91221 14.377 5.84884 14.0544 4.94437 13.45C4.0399 12.8457 3.33495 11.9867 2.91867 10.9817C2.50238 9.97672 2.39347 8.87085 2.60568 7.80396C2.8179 6.73706 3.34173 5.75705 4.11092 4.98787C4.8801 4.21868 5.86011 3.69485 6.92701 3.48263C7.9939 3.27042 9.09977 3.37933 10.1048 3.79562C11.1098 4.2119 11.9687 4.91685 12.5731 5.82132C13.1774 6.72579 13.5 7.78916 13.5 8.87695C13.4983 10.3351 12.9184 11.7331 11.8873 12.7642C10.8562 13.7953 9.45819 14.3753 8 14.377ZM9 11.877C9 12.0096 8.94732 12.1367 8.85356 12.2305C8.75979 12.3243 8.63261 12.377 8.5 12.377C8.23479 12.377 7.98043 12.2716 7.7929 12.0841C7.60536 11.8965 7.5 11.6422 7.5 11.377V8.87695C7.36739 8.87695 7.24022 8.82427 7.14645 8.73051C7.05268 8.63674 7 8.50956 7 8.37695C7 8.24434 7.05268 8.11717 7.14645 8.0234C7.24022 7.92963 7.36739 7.87695 7.5 7.87695C7.76522 7.87695 8.01957 7.98231 8.20711 8.16985C8.39465 8.35738 8.5 8.61174 8.5 8.87695V11.377C8.63261 11.377 8.75979 11.4296 8.85356 11.5234C8.94732 11.6172 9 11.7443 9 11.877ZM7 6.12695C7 5.97862 7.04399 5.83361 7.1264 5.71028C7.20881 5.58694 7.32595 5.49081 7.46299 5.43404C7.60003 5.37728 7.75083 5.36243 7.89632 5.39136C8.04181 5.4203 8.17544 5.49173 8.28033 5.59662C8.38522 5.70151 8.45665 5.83515 8.48559 5.98064C8.51453 6.12612 8.49968 6.27692 8.44291 6.41397C8.38615 6.55101 8.29002 6.66814 8.16668 6.75056C8.04334 6.83297 7.89834 6.87695 7.75 6.87695C7.55109 6.87695 7.36032 6.79794 7.21967 6.65728C7.07902 6.51663 7 6.32587 7 6.12695Z" fill="#8C94A6"/>
</svg>
