<svg width="20" height="21" viewBox="0 0 20 21" fill="none" xmlns="http://www.w3.org/2000/svg">
<path d="M12.5 1.49902C11.5135 1.49991 10.5412 1.73408 9.66254 2.18243C8.78384 2.63078 8.02363 3.28058 7.44398 4.07879C6.86433 4.877 6.48167 5.80098 6.32725 6.7753C6.17284 7.74961 6.25104 8.74664 6.55547 9.68496L2.05781 14.1818C1.99979 14.2399 1.95378 14.3089 1.92241 14.3847C1.89105 14.4606 1.87494 14.5419 1.875 14.624V17.749C1.875 17.9148 1.94085 18.0738 2.05806 18.191C2.17527 18.3082 2.33424 18.374 2.5 18.374H5.625C5.79076 18.374 5.94973 18.3082 6.06694 18.191C6.18415 18.0738 6.25 17.9148 6.25 17.749V16.499H7.5C7.66576 16.499 7.82473 16.4332 7.94194 16.316C8.05915 16.1988 8.125 16.0398 8.125 15.874V14.624H9.375C9.4571 14.6241 9.53841 14.608 9.61428 14.5766C9.69015 14.5452 9.7591 14.4992 9.81719 14.4412L10.5641 13.6936C11.4231 13.9724 12.3323 14.0619 13.2292 13.9556C14.1261 13.8494 14.9893 13.5501 15.7593 13.0782C16.5294 12.6064 17.1881 11.9733 17.69 11.2225C18.192 10.4716 18.5252 9.62094 18.6668 8.72896C18.8084 7.83699 18.755 6.92493 18.5103 6.05557C18.2656 5.18621 17.8354 4.38021 17.2493 3.69308C16.6632 3.00594 15.9351 2.45398 15.1153 2.07522C14.2954 1.69645 13.4031 1.49988 12.5 1.49902ZM12.5 12.749C11.8673 12.7501 11.2402 12.6305 10.6523 12.3967C10.5373 12.3468 10.41 12.3326 10.2868 12.356C10.1637 12.3794 10.0504 12.4393 9.96172 12.5279L9.11641 13.374H7.5C7.33424 13.374 7.17527 13.4399 7.05806 13.5571C6.94085 13.6743 6.875 13.8333 6.875 13.999V15.249H5.625C5.45924 15.249 5.30027 15.3149 5.18306 15.4321C5.06585 15.5493 5 15.7083 5 15.874V17.124H3.125V14.8826L7.72109 10.2873C7.80971 10.1986 7.86961 10.0854 7.89302 9.96219C7.91643 9.83903 7.90225 9.71168 7.85234 9.59668C7.4571 8.60281 7.39098 7.50839 7.66369 6.47417C7.9364 5.43994 8.53357 4.52042 9.36749 3.85067C10.2014 3.18091 11.2281 2.79622 12.2968 2.75309C13.3655 2.70996 14.4199 3.01067 15.3051 3.61106C16.1902 4.21144 16.8596 5.07985 17.2147 6.08873C17.5699 7.09762 17.5922 8.19381 17.2783 9.2163C16.9644 10.2388 16.3309 11.1337 15.4709 11.7695C14.6109 12.4054 13.5696 12.7487 12.5 12.749ZM15 6.18652C15 6.37194 14.945 6.5532 14.842 6.70737C14.739 6.86154 14.5926 6.9817 14.4213 7.05266C14.25 7.12362 14.0615 7.14218 13.8796 7.10601C13.6977 7.06984 13.5307 6.98055 13.3996 6.84944C13.2685 6.71832 13.1792 6.55128 13.143 6.36942C13.1068 6.18756 13.1254 5.99906 13.1964 5.82776C13.2673 5.65645 13.3875 5.51003 13.5417 5.40702C13.6958 5.30401 13.8771 5.24902 14.0625 5.24902C14.3111 5.24902 14.5496 5.3478 14.7254 5.52361C14.9012 5.69943 15 5.93788 15 6.18652Z" fill="black"/>
</svg>
