<svg width="360" height="15" viewBox="0 0 360 15" fill="none" xmlns="http://www.w3.org/2000/svg">
<line x1="8.39171" y1="0.375" x2="0.64964" y2="13.7847" stroke="white" stroke-width="1.5"/>
<line x1="14.1339" y1="0.375" x2="6.39183" y2="13.7847" stroke="white" stroke-width="1.5"/>
<line x1="19.8761" y1="0.375" x2="12.134" y2="13.7847" stroke="white" stroke-width="1.5"/>
<line x1="25.6183" y1="0.375" x2="17.8762" y2="13.7847" stroke="white" stroke-width="1.5"/>
<line x1="31.3595" y1="0.375" x2="23.6174" y2="13.7847" stroke="white" stroke-width="1.5"/>
<line x1="37.1017" y1="0.375" x2="29.3596" y2="13.7847" stroke="white" stroke-width="1.5"/>
<line x1="42.8439" y1="0.375" x2="35.1018" y2="13.7847" stroke="white" stroke-width="1.5"/>
<line x1="48.586" y1="0.375" x2="40.844" y2="13.7847" stroke="white" stroke-width="1.5"/>
<line x1="54.3282" y1="0.375" x2="46.5862" y2="13.7847" stroke="white" stroke-width="1.5"/>
<line x1="60.0704" y1="0.375" x2="52.3284" y2="13.7847" stroke="white" stroke-width="1.5"/>
<line x1="65.8126" y1="0.375" x2="58.0705" y2="13.7847" stroke="white" stroke-width="1.5"/>
<line x1="71.5538" y1="0.375" x2="63.8117" y2="13.7847" stroke="white" stroke-width="1.5"/>
<line x1="77.296" y1="0.375" x2="69.5539" y2="13.7847" stroke="white" stroke-width="1.5"/>
<line x1="83.0382" y1="0.375" x2="75.2961" y2="13.7847" stroke="white" stroke-width="1.5"/>
<line x1="88.7804" y1="0.375" x2="81.0383" y2="13.7847" stroke="white" stroke-width="1.5"/>
<line x1="94.5226" y1="0.375" x2="86.7805" y2="13.7847" stroke="white" stroke-width="1.5"/>
<line x1="100.265" y1="0.375" x2="92.5227" y2="13.7847" stroke="white" stroke-width="1.5"/>
<line x1="106.007" y1="0.375" x2="98.2649" y2="13.7847" stroke="white" stroke-width="1.5"/>
<line x1="111.749" y1="0.375" x2="104.007" y2="13.7847" stroke="white" stroke-width="1.5"/>
<line x1="117.491" y1="0.375" x2="109.749" y2="13.7847" stroke="white" stroke-width="1.5"/>
<line x1="123.233" y1="0.375" x2="115.49" y2="13.7847" stroke="white" stroke-width="1.5"/>
<line x1="128.975" y1="0.375" x2="121.233" y2="13.7847" stroke="white" stroke-width="1.5"/>
<line x1="134.717" y1="0.375" x2="126.975" y2="13.7847" stroke="white" stroke-width="1.5"/>
<line x1="140.459" y1="0.375" x2="132.717" y2="13.7847" stroke="white" stroke-width="1.5"/>
<line x1="146.201" y1="0.375" x2="138.459" y2="13.7847" stroke="white" stroke-width="1.5"/>
<line x1="151.943" y1="0.375" x2="144.201" y2="13.7847" stroke="white" stroke-width="1.5"/>
<line x1="157.686" y1="0.375" x2="149.944" y2="13.7847" stroke="white" stroke-width="1.5"/>
<line x1="163.428" y1="0.375" x2="155.686" y2="13.7847" stroke="white" stroke-width="1.5"/>
<line x1="169.169" y1="0.375" x2="161.427" y2="13.7847" stroke="white" stroke-width="1.5"/>
<line x1="174.911" y1="0.375" x2="167.169" y2="13.7847" stroke="white" stroke-width="1.5"/>
<line x1="180.653" y1="0.375" x2="172.911" y2="13.7847" stroke="white" stroke-width="1.5"/>
<line x1="186.396" y1="0.375" x2="178.654" y2="13.7847" stroke="white" stroke-width="1.5"/>
<line x1="192.138" y1="0.375" x2="184.396" y2="13.7847" stroke="white" stroke-width="1.5"/>
<line x1="197.88" y1="0.375" x2="190.138" y2="13.7847" stroke="white" stroke-width="1.5"/>
<line x1="203.622" y1="0.375" x2="195.88" y2="13.7847" stroke="white" stroke-width="1.5"/>
<line x1="209.364" y1="0.375" x2="201.622" y2="13.7847" stroke="white" stroke-width="1.5"/>
<line x1="215.106" y1="0.375" x2="207.364" y2="13.7847" stroke="white" stroke-width="1.5"/>
<line x1="220.848" y1="0.375" x2="213.106" y2="13.7847" stroke="white" stroke-width="1.5"/>
<line x1="226.59" y1="0.375" x2="218.848" y2="13.7847" stroke="white" stroke-width="1.5"/>
<line x1="232.332" y1="0.375" x2="224.59" y2="13.7847" stroke="white" stroke-width="1.5"/>
<line x1="238.074" y1="0.375" x2="230.332" y2="13.7847" stroke="white" stroke-width="1.5"/>
<line x1="243.817" y1="0.375" x2="236.074" y2="13.7847" stroke="white" stroke-width="1.5"/>
<line x1="249.559" y1="0.375" x2="241.817" y2="13.7847" stroke="white" stroke-width="1.5"/>
<line x1="255.301" y1="0.375" x2="247.559" y2="13.7847" stroke="white" stroke-width="1.5"/>
<line x1="261.042" y1="0.375" x2="253.3" y2="13.7847" stroke="white" stroke-width="1.5"/>
<line x1="266.784" y1="0.375" x2="259.042" y2="13.7847" stroke="white" stroke-width="1.5"/>
<line x1="272.526" y1="0.375" x2="264.784" y2="13.7847" stroke="white" stroke-width="1.5"/>
<line x1="278.269" y1="0.375" x2="270.527" y2="13.7847" stroke="white" stroke-width="1.5"/>
<line x1="284.011" y1="0.375" x2="276.269" y2="13.7847" stroke="white" stroke-width="1.5"/>
<line x1="289.753" y1="0.375" x2="282.011" y2="13.7847" stroke="white" stroke-width="1.5"/>
<line x1="295.495" y1="0.375" x2="287.753" y2="13.7847" stroke="white" stroke-width="1.5"/>
<line x1="301.237" y1="0.375" x2="293.495" y2="13.7847" stroke="white" stroke-width="1.5"/>
<line x1="306.979" y1="0.375" x2="299.237" y2="13.7847" stroke="white" stroke-width="1.5"/>
<line x1="312.721" y1="0.375" x2="304.979" y2="13.7847" stroke="white" stroke-width="1.5"/>
<line x1="318.463" y1="0.375" x2="310.721" y2="13.7847" stroke="white" stroke-width="1.5"/>
<line x1="324.205" y1="0.375" x2="316.463" y2="13.7847" stroke="white" stroke-width="1.5"/>
<line x1="329.947" y1="0.375" x2="322.205" y2="13.7847" stroke="white" stroke-width="1.5"/>
<line x1="335.69" y1="0.375" x2="327.947" y2="13.7847" stroke="white" stroke-width="1.5"/>
<line x1="341.432" y1="0.375" x2="333.69" y2="13.7847" stroke="white" stroke-width="1.5"/>
<line x1="347.174" y1="0.375" x2="339.432" y2="13.7847" stroke="white" stroke-width="1.5"/>
<line x1="352.915" y1="0.375" x2="345.173" y2="13.7847" stroke="white" stroke-width="1.5"/>
<line x1="358.657" y1="0.375" x2="350.915" y2="13.7847" stroke="white" stroke-width="1.5"/>
</svg>
