<svg width="32" height="33" viewBox="0 0 32 33" fill="none" xmlns="http://www.w3.org/2000/svg">
<path opacity="0.2" d="M20 9.8833V27.8833L12 23.8833V5.8833L20 9.8833Z" fill="white"/>
<path d="M28.615 7.09469C28.4952 7.00135 28.3557 6.93652 28.2072 6.90512C28.0586 6.87371 27.9048 6.87656 27.7575 6.91344L20.1162 8.82344L12.4475 4.98844C12.2338 4.88186 11.9891 4.85526 11.7575 4.91344L3.7575 6.91344C3.54116 6.96752 3.3491 7.09235 3.21185 7.26811C3.0746 7.44386 3.00003 7.66044 3 7.88344V25.8834C3.00002 26.0354 3.03467 26.1853 3.10132 26.3219C3.16797 26.4585 3.26486 26.578 3.38463 26.6715C3.50441 26.765 3.64392 26.83 3.79256 26.8615C3.94121 26.8931 4.09508 26.8903 4.2425 26.8534L11.8837 24.9434L19.5525 28.7784C19.6917 28.8471 19.8448 28.883 20 28.8834C20.0818 28.8834 20.1632 28.8733 20.2425 28.8534L28.2425 26.8534C28.4588 26.7994 28.6509 26.6745 28.7881 26.4988C28.9254 26.323 29 26.1064 29 25.8834V7.88344C29 7.73135 28.9654 7.58125 28.8987 7.44457C28.8319 7.30789 28.7349 7.18823 28.615 7.09469ZM13 7.50094L19 10.5009V26.2659L13 23.2659V7.50094ZM5 8.66469L11 7.16469V23.1022L5 24.6022V8.66469ZM27 25.1022L21 26.6022V10.6647L27 9.16469V25.1022Z" fill="white"/>
</svg>
