<svg width="21" height="20" viewBox="0 0 21 20" fill="none" xmlns="http://www.w3.org/2000/svg">
<path d="M18.6147 2.24083C18.4575 2.08375 18.2613 1.97141 18.0463 1.91538C17.8312 1.85935 17.6051 1.86167 17.3913 1.92208H17.3796L2.38426 6.47208C2.14016 6.54228 1.92324 6.68517 1.76238 6.88173C1.60152 7.07829 1.50436 7.31919 1.48383 7.57235C1.4633 7.82551 1.52037 8.07892 1.64746 8.29883C1.77454 8.51874 1.9656 8.69472 2.1952 8.80333L8.88426 11.9713L12.0522 18.6604C12.1522 18.8746 12.3115 19.0557 12.5111 19.1824C12.7107 19.309 12.9424 19.3759 13.1788 19.3752C13.2147 19.3752 13.2507 19.3736 13.2866 19.3705C13.5389 19.3501 13.7789 19.253 13.9744 19.0923C14.1699 18.9315 14.3115 18.7149 14.3804 18.4713L18.9272 3.47599C18.9272 3.47208 18.9272 3.46818 18.9272 3.46427C18.9884 3.25096 18.9917 3.0252 18.9368 2.81019C18.8819 2.59518 18.7707 2.39866 18.6147 2.24083ZM13.1858 18.1135L13.1819 18.1244L10.1069 11.633L13.7975 7.94161C13.9098 7.82345 13.9715 7.66611 13.9694 7.50313C13.9673 7.34015 13.9016 7.18444 13.7864 7.06919C13.6711 6.95394 13.5154 6.88827 13.3524 6.88618C13.1895 6.8841 13.0321 6.94576 12.9139 7.05802L9.22254 10.7486L2.73035 7.67365H2.74129L17.7304 3.12521L13.1858 18.1135Z" fill="#5F4CC8"/>
</svg>
