<svg width="12" height="13" viewBox="0 0 12 13" fill="none" xmlns="http://www.w3.org/2000/svg">
<path d="M9.82764 6.61325C9.86251 6.64808 9.89017 6.68944 9.90904 6.73496C9.92791 6.78049 9.93763 6.82928 9.93763 6.87856C9.93763 6.92784 9.92791 6.97664 9.90904 7.02217C9.89017 7.06769 9.86251 7.10905 9.82764 7.14388L5.98155 10.9876C5.48918 11.4799 4.82141 11.7565 4.12513 11.7564C3.42886 11.7564 2.76112 11.4798 2.26882 10.9874C1.77651 10.495 1.49996 9.82725 1.5 9.13098C1.50004 8.4347 1.77668 7.76697 2.26905 7.27466L6.92186 2.55341C7.27338 2.20152 7.75028 2.00368 8.24766 2.00342C8.74505 2.00315 9.22216 2.20049 9.57405 2.552C9.92594 2.90352 10.1238 3.38042 10.124 3.8778C10.1243 4.37519 9.92697 4.8523 9.57546 5.20419L4.92171 9.92544C4.71036 10.1368 4.42372 10.2555 4.12483 10.2555C3.82594 10.2555 3.5393 10.1368 3.32796 9.92544C3.11661 9.71409 2.99788 9.42745 2.99788 9.12856C2.99788 8.82968 3.11661 8.54303 3.32796 8.33169L7.23264 4.36513C7.26685 4.32864 7.30801 4.29936 7.3537 4.27902C7.39938 4.25867 7.44868 4.24767 7.49868 4.24667C7.54869 4.24566 7.59839 4.25467 7.64486 4.27316C7.69133 4.29164 7.73363 4.31924 7.76928 4.35432C7.80492 4.38941 7.83319 4.43127 7.85242 4.47744C7.87164 4.52361 7.88144 4.57316 7.88123 4.62317C7.88102 4.67318 7.87081 4.72265 7.85119 4.76866C7.83158 4.81466 7.80296 4.85628 7.76702 4.89106L3.86186 8.86185C3.8269 8.89653 3.79911 8.93777 3.78008 8.98319C3.76105 9.02862 3.75116 9.07735 3.75096 9.1266C3.75076 9.17585 3.76027 9.22466 3.77894 9.27024C3.7976 9.31582 3.82507 9.35727 3.85975 9.39224C3.89444 9.4272 3.93567 9.45499 3.9811 9.47402C4.02653 9.49305 4.07526 9.50294 4.12451 9.50314C4.17376 9.50333 4.22257 9.49383 4.26815 9.47516C4.31372 9.45649 4.35518 9.42903 4.39014 9.39435L9.04342 4.67544C9.25477 4.46453 9.37367 4.1783 9.37398 3.87972C9.37429 3.58115 9.25597 3.29467 9.04507 3.08333C8.83416 2.87198 8.54793 2.75308 8.24935 2.75277C7.95077 2.75246 7.6643 2.87078 7.45296 3.08169L2.80108 7.80106C2.62681 7.97505 2.48852 8.18167 2.3941 8.4091C2.29968 8.63654 2.25098 8.88035 2.25079 9.1266C2.25059 9.37286 2.2989 9.61674 2.39296 9.84433C2.48702 10.0719 2.62498 10.2787 2.79897 10.453C2.97296 10.6273 3.17957 10.7656 3.40701 10.86C3.63445 10.9544 3.87825 11.0031 4.12451 11.0033C4.37077 11.0035 4.61465 10.9552 4.84224 10.8611C5.06982 10.7671 5.27666 10.6291 5.45092 10.4551L9.29749 6.61138C9.36805 6.54135 9.46354 6.50221 9.56295 6.50256C9.66237 6.50292 9.75757 6.54273 9.82764 6.61325Z" fill="#8C94A6"/>
</svg>
