<svg width="16" height="17" viewBox="0 0 16 17" fill="none" xmlns="http://www.w3.org/2000/svg">
<path d="M14.1178 2.00785C14.0085 1.89686 13.8712 1.81747 13.7205 1.77808C13.5697 1.7387 13.4112 1.74078 13.2615 1.7841H13.2547L1.25904 5.42348C1.0881 5.47245 0.936127 5.57234 0.823378 5.70984C0.710629 5.84735 0.64245 6.01594 0.627925 6.19317C0.613399 6.3704 0.653215 6.54784 0.74207 6.70187C0.830925 6.8559 0.9646 6.9792 1.12529 7.05535L6.47592 9.58973C6.50173 9.60241 6.52261 9.62329 6.53529 9.6491L9.07029 15.0004C9.14028 15.1502 9.25167 15.2769 9.39132 15.3655C9.53096 15.4541 9.69304 15.5009 9.85842 15.5004C9.88342 15.5004 9.90904 15.5004 9.93404 15.4972C10.1112 15.4833 10.2798 15.4154 10.4172 15.3026C10.5545 15.1898 10.654 15.0377 10.7022 14.8666L14.3397 2.87098V2.8641C14.3832 2.71463 14.3856 2.55616 14.3466 2.40545C14.3075 2.25473 14.2285 2.11736 14.1178 2.00785ZM13.6178 2.65785L9.98342 14.6522V14.6591C9.97754 14.6842 9.9636 14.7066 9.94372 14.723C9.92385 14.7394 9.89915 14.7488 9.87342 14.7497C9.84761 14.7536 9.82124 14.7487 9.79857 14.7358C9.77589 14.7228 9.75823 14.7027 9.74842 14.6785L7.24842 9.40598L10.2634 6.39098C10.3338 6.32061 10.3733 6.22518 10.3733 6.12566C10.3733 6.02615 10.3338 5.93072 10.2634 5.86035C10.1931 5.78999 10.0976 5.75046 9.9981 5.75046C9.89859 5.75046 9.80316 5.78999 9.73279 5.86035L6.72029 8.87535L1.44717 6.37535C1.424 6.36456 1.4047 6.34692 1.39186 6.32481C1.37903 6.30271 1.37328 6.2772 1.37539 6.25172C1.3775 6.22625 1.38737 6.20204 1.40367 6.18235C1.41997 6.16266 1.44191 6.14844 1.46654 6.1416H1.47342L13.4678 2.50535C13.4889 2.49943 13.5111 2.49933 13.5323 2.50505C13.5534 2.51077 13.5726 2.52211 13.5878 2.53785C13.6032 2.55328 13.6143 2.57247 13.62 2.59353C13.6257 2.61458 13.6258 2.63675 13.6203 2.65785H13.6178Z" fill="#8C94A6"/>
</svg>
