<svg width="17" height="16" viewBox="0 0 17 16" fill="none" xmlns="http://www.w3.org/2000/svg">
<path opacity="0.2" d="M14.6251 2.63616L10.9864 14.6362C10.9586 14.7339 10.9017 14.8209 10.8232 14.8855C10.7447 14.9501 10.6484 14.9893 10.5472 14.9978C10.4459 15.0063 10.3444 14.9837 10.2563 14.933C10.1681 14.8824 10.0975 14.8061 10.0539 14.7143L7.5195 9.36304C7.47009 9.25885 7.38619 9.17495 7.282 9.12554L1.93075 6.59054C1.83896 6.54688 1.76265 6.47628 1.712 6.38815C1.66135 6.30002 1.63877 6.19855 1.64725 6.09726C1.65574 5.99597 1.6949 5.89967 1.7595 5.8212C1.82411 5.74273 1.9111 5.68581 2.00888 5.65804L14.0089 2.01929C14.0944 1.99532 14.1847 1.99456 14.2706 2.01707C14.3565 2.03958 14.4348 2.08455 14.4975 2.14736C14.5603 2.21017 14.6052 2.28856 14.6276 2.37446C14.65 2.46037 14.6492 2.5507 14.6251 2.63616Z" fill="white"/>
<path d="M14.852 1.79242C14.7263 1.66675 14.5693 1.57688 14.3973 1.53206C14.2252 1.48724 14.0444 1.48909 13.8733 1.53742H13.8639L1.86766 5.17742C1.67238 5.23358 1.49885 5.34789 1.37016 5.50514C1.24147 5.66239 1.16374 5.85511 1.14732 6.05764C1.13089 6.26016 1.17655 6.46289 1.27822 6.63882C1.37989 6.81475 1.53273 6.95553 1.71641 7.04242L7.06766 9.5768L9.60204 14.928C9.68205 15.0994 9.80942 15.2443 9.96912 15.3456C10.1288 15.447 10.3142 15.5005 10.5033 15.4999C10.532 15.4999 10.5608 15.4987 10.5895 15.4962C10.7913 15.4798 10.9833 15.4022 11.1397 15.2736C11.2961 15.145 11.4095 14.9716 11.4645 14.7768L15.102 2.78055C15.102 2.77742 15.102 2.7743 15.102 2.77117C15.151 2.60052 15.1536 2.41992 15.1097 2.24791C15.0658 2.0759 14.9768 1.91869 14.852 1.79242ZM10.5089 14.4905L10.5058 14.4993L8.04579 9.30617L10.9983 6.35305C11.0881 6.25852 11.1374 6.13264 11.1358 6.00226C11.1341 5.87188 11.0816 5.74731 10.9894 5.65511C10.8971 5.56291 10.7726 5.51037 10.6422 5.5087C10.5118 5.50703 10.3859 5.55636 10.2914 5.64617L7.33829 8.59867L2.14454 6.13867H2.15329L14.1445 2.49992L10.5089 14.4905Z" fill="white"/>
</svg>
