<svg width="32" height="33" viewBox="0 0 32 33" fill="none" xmlns="http://www.w3.org/2000/svg">
<path opacity="0.2" d="M28 7.00293V26.0029L24 24.0029L20 26.0029L16 24.0029L12 26.0029L8 24.0029L4 26.0029V7.00293C4 6.73771 4.10536 6.48336 4.29289 6.29582C4.48043 6.10829 4.73478 6.00293 5 6.00293H27C27.2652 6.00293 27.5196 6.10829 27.7071 6.29582C27.8946 6.48336 28 6.73771 28 7.00293Z" fill="white"/>
<path d="M9 13.0029C9 12.7377 9.10536 12.4834 9.29289 12.2958C9.48043 12.1083 9.73478 12.0029 10 12.0029H22C22.2652 12.0029 22.5196 12.1083 22.7071 12.2958C22.8946 12.4834 23 12.7377 23 13.0029C23 13.2681 22.8946 13.5225 22.7071 13.71C22.5196 13.8976 22.2652 14.0029 22 14.0029H10C9.73478 14.0029 9.48043 13.8976 9.29289 13.71C9.10536 13.5225 9 13.2681 9 13.0029ZM10 18.0029H22C22.2652 18.0029 22.5196 17.8976 22.7071 17.71C22.8946 17.5225 23 17.2681 23 17.0029C23 16.7377 22.8946 16.4834 22.7071 16.2958C22.5196 16.1083 22.2652 16.0029 22 16.0029H10C9.73478 16.0029 9.48043 16.1083 9.29289 16.2958C9.10536 16.4834 9 16.7377 9 17.0029C9 17.2681 9.10536 17.5225 9.29289 17.71C9.48043 17.8976 9.73478 18.0029 10 18.0029ZM29 7.00293V26.0029C28.9999 26.1734 28.9563 26.341 28.8732 26.4898C28.7901 26.6386 28.6704 26.7637 28.5254 26.8533C28.3803 26.9428 28.2148 26.9938 28.0446 27.0014C27.8743 27.009 27.7049 26.9729 27.5525 26.8967L24 25.1204L20.4475 26.8967C20.3086 26.9662 20.1554 27.0024 20 27.0024C19.8446 27.0024 19.6914 26.9662 19.5525 26.8967L16 25.1204L12.4475 26.8967C12.3086 26.9662 12.1554 27.0024 12 27.0024C11.8446 27.0024 11.6914 26.9662 11.5525 26.8967L8 25.1204L4.4475 26.8967C4.29508 26.9729 4.12569 27.009 3.95543 27.0014C3.78516 26.9938 3.61965 26.9428 3.47463 26.8533C3.32961 26.7637 3.20988 26.6386 3.12681 26.4898C3.04374 26.341 3.00009 26.1734 3 26.0029V7.00293C3 6.4725 3.21071 5.96379 3.58579 5.58872C3.96086 5.21364 4.46957 5.00293 5 5.00293H27C27.5304 5.00293 28.0391 5.21364 28.4142 5.58872C28.7893 5.96379 29 6.4725 29 7.00293ZM27 7.00293H5V24.3854L7.5525 23.1079C7.69143 23.0384 7.84465 23.0022 8 23.0022C8.15535 23.0022 8.30857 23.0384 8.4475 23.1079L12 24.8854L15.5525 23.1079C15.6914 23.0384 15.8446 23.0022 16 23.0022C16.1554 23.0022 16.3086 23.0384 16.4475 23.1079L20 24.8854L23.5525 23.1079C23.6914 23.0384 23.8446 23.0022 24 23.0022C24.1554 23.0022 24.3086 23.0384 24.4475 23.1079L27 24.3854V7.00293Z" fill="white"/>
</svg>
