<svg width="12" height="12" viewBox="0 0 12 12" fill="none" xmlns="http://www.w3.org/2000/svg">
<path d="M9.75 1.875H2.25C2.05109 1.875 1.86032 1.95402 1.71967 2.09467C1.57902 2.23532 1.5 2.42609 1.5 2.625V5.38031C1.5 9.58078 5.05406 10.9744 5.76562 11.2111C5.9176 11.2628 6.0824 11.2628 6.23438 11.2111C6.94688 10.9744 10.5 9.58078 10.5 5.38031V2.625C10.5 2.42609 10.421 2.23532 10.2803 2.09467C10.1397 1.95402 9.94891 1.875 9.75 1.875ZM9.75 5.38078C9.75 9.05672 6.63984 10.2848 6 10.4986C5.36578 10.2872 2.25 9.06 2.25 5.38078V2.625H9.75V5.38078ZM3.85969 6.64031C3.78932 6.56995 3.74979 6.47451 3.74979 6.375C3.74979 6.27549 3.78932 6.18005 3.85969 6.10969C3.93005 6.03932 4.02549 5.99979 4.125 5.99979C4.22451 5.99979 4.31995 6.03932 4.39031 6.10969L5.25 6.96937L7.60969 4.60969C7.64453 4.57485 7.68589 4.54721 7.73141 4.52835C7.77694 4.5095 7.82573 4.49979 7.875 4.49979C7.92427 4.49979 7.97306 4.5095 8.01859 4.52835C8.06411 4.54721 8.10547 4.57485 8.14031 4.60969C8.17515 4.64453 8.20279 4.68589 8.22165 4.73141C8.2405 4.77694 8.25021 4.82573 8.25021 4.875C8.25021 4.92427 8.2405 4.97306 8.22165 5.01859C8.20279 5.06411 8.17515 5.10547 8.14031 5.14031L5.51531 7.76531C5.48049 7.80018 5.43913 7.82784 5.3936 7.84671C5.34808 7.86558 5.29928 7.87529 5.25 7.87529C5.20072 7.87529 5.15192 7.86558 5.1064 7.84671C5.06087 7.82784 5.01951 7.80018 4.98469 7.76531L3.85969 6.64031Z" fill="#339969"/>
</svg>
