<svg width="16" height="17" viewBox="0 0 16 17" fill="none" xmlns="http://www.w3.org/2000/svg">
<path d="M15.375 6.66855L13.125 4.16855C13.0777 4.11602 13.0199 4.07409 12.9553 4.04554C12.8906 4.01699 12.8207 4.00247 12.75 4.00293H8.5V2.00293C8.5 1.87032 8.44732 1.74314 8.35355 1.64938C8.25979 1.55561 8.13261 1.50293 8 1.50293C7.86739 1.50293 7.74021 1.55561 7.64645 1.64938C7.55268 1.74314 7.5 1.87032 7.5 2.00293V4.00293H2.5C2.23478 4.00293 1.98043 4.10829 1.79289 4.29582C1.60536 4.48336 1.5 4.73771 1.5 5.00293V9.00293C1.5 9.26815 1.60536 9.5225 1.79289 9.71004C1.98043 9.89757 2.23478 10.0029 2.5 10.0029H7.5V14.0029C7.5 14.1355 7.55268 14.2627 7.64645 14.3565C7.74021 14.4503 7.86739 14.5029 8 14.5029C8.13261 14.5029 8.25979 14.4503 8.35355 14.3565C8.44732 14.2627 8.5 14.1355 8.5 14.0029V10.0029H12.75C12.8201 10.0029 12.8895 9.98821 12.9536 9.95968C13.0176 9.93114 13.075 9.88945 13.1219 9.83731L15.3719 7.3373C15.4549 7.24589 15.5011 7.127 15.5017 7.00353C15.5023 6.88006 15.4571 6.76074 15.375 6.66855ZM12.5275 9.00293H2.5V5.00293H12.5275L14.3275 7.00293L12.5275 9.00293Z" fill="#66C498"/>
</svg>
