<svg width="17" height="17" viewBox="0 0 17 17" fill="none" xmlns="http://www.w3.org/2000/svg">
<g clip-path="url(#clip0_1212_37631)">
<path d="M16.125 7.04063L13.875 4.54063C13.8277 4.48809 13.7699 4.44616 13.7053 4.41761C13.6406 4.38906 13.5707 4.37454 13.5 4.375H9.25V2.375C9.25 2.24239 9.19732 2.11521 9.10355 2.02145C9.00979 1.92768 8.88261 1.875 8.75 1.875C8.61739 1.875 8.49021 1.92768 8.39645 2.02145C8.30268 2.11521 8.25 2.24239 8.25 2.375V4.375H3.25C2.98478 4.375 2.73043 4.48036 2.54289 4.66789C2.35536 4.85543 2.25 5.10978 2.25 5.375V9.375C2.25 9.64022 2.35536 9.89457 2.54289 10.0821C2.73043 10.2696 2.98478 10.375 3.25 10.375H8.25V14.375C8.25 14.5076 8.30268 14.6348 8.39645 14.7286C8.49021 14.8223 8.61739 14.875 8.75 14.875C8.88261 14.875 9.00979 14.8223 9.10355 14.7286C9.19732 14.6348 9.25 14.5076 9.25 14.375V10.375H13.5C13.5701 10.375 13.6395 10.3603 13.7036 10.3317C13.7676 10.3032 13.825 10.2615 13.8719 10.2094L16.1219 7.70937C16.2049 7.61796 16.2511 7.49907 16.2517 7.3756C16.2523 7.25213 16.2071 7.13281 16.125 7.04063ZM13.2775 9.375H3.25V5.375H13.2775L15.0775 7.375L13.2775 9.375Z" fill="#8C94A6"/>
</g>
<defs>
<clipPath id="clip0_1212_37631">
<rect width="16" height="16" fill="white" transform="translate(0.75 0.375)"/>
</clipPath>
</defs>
</svg>
