<svg width="33" height="33" viewBox="0 0 33 33" fill="none" xmlns="http://www.w3.org/2000/svg">
<path opacity="0.2" d="M27.1763 6.41406V19.4141C27.1763 19.6793 27.0709 19.9336 26.8834 20.1212C26.6958 20.3087 26.4415 20.4141 26.1763 20.4141H21.1763V26.4141C21.1763 26.6793 21.0709 26.9336 20.8834 27.1212C20.6958 27.3087 20.4415 27.4141 20.1763 27.4141H6.17627C5.91105 27.4141 5.6567 27.3087 5.46916 27.1212C5.28163 26.9336 5.17627 26.6793 5.17627 26.4141V13.4141C5.17627 13.1488 5.28163 12.8945 5.46916 12.707C5.6567 12.5194 5.91105 12.4141 6.17627 12.4141H11.1763V6.41406C11.1763 6.14885 11.2816 5.89449 11.4692 5.70696C11.6567 5.51942 11.9111 5.41406 12.1763 5.41406H26.1763C26.4415 5.41406 26.6958 5.51942 26.8834 5.70696C27.0709 5.89449 27.1763 6.14885 27.1763 6.41406Z" fill="white"/>
<path d="M28.1763 6.41406V19.4141C28.1763 19.9445 27.9656 20.4532 27.5905 20.8283C27.2154 21.2033 26.7067 21.4141 26.1763 21.4141H12.59L13.8838 22.7066C13.9767 22.7995 14.0504 22.9098 14.1007 23.0312C14.1509 23.1526 14.1768 23.2827 14.1768 23.4141C14.1768 23.5455 14.1509 23.6756 14.1007 23.797C14.0504 23.9184 13.9767 24.0287 13.8838 24.1216C13.7909 24.2145 13.6806 24.2882 13.5592 24.3385C13.4378 24.3887 13.3077 24.4146 13.1763 24.4146C13.0449 24.4146 12.9148 24.3887 12.7934 24.3385C12.672 24.2882 12.5617 24.2145 12.4688 24.1216L9.46877 21.1216C9.37579 21.0287 9.30203 20.9184 9.25171 20.797C9.20139 20.6756 9.17548 20.5455 9.17548 20.4141C9.17548 20.2826 9.20139 20.1525 9.25171 20.0311C9.30203 19.9097 9.37579 19.7994 9.46877 19.7066L12.4688 16.7066C12.6564 16.5189 12.9109 16.4135 13.1763 16.4135C13.4416 16.4135 13.6961 16.5189 13.8838 16.7066C14.0714 16.8942 14.1768 17.1487 14.1768 17.4141C14.1768 17.6794 14.0714 17.9339 13.8838 18.1216L12.59 19.4141H26.1763V6.41406H12.1763V7.41406C12.1763 7.67928 12.0709 7.93363 11.8834 8.12117C11.6958 8.30871 11.4415 8.41406 11.1763 8.41406C10.9111 8.41406 10.6567 8.30871 10.4692 8.12117C10.2816 7.93363 10.1763 7.67928 10.1763 7.41406V6.41406C10.1763 5.88363 10.387 5.37492 10.7621 4.99985C11.1371 4.62478 11.6458 4.41406 12.1763 4.41406H26.1763C26.7067 4.41406 27.2154 4.62478 27.5905 4.99985C27.9656 5.37492 28.1763 5.88363 28.1763 6.41406ZM21.1763 24.4141C20.9111 24.4141 20.6567 24.5194 20.4692 24.707C20.2816 24.8945 20.1763 25.1488 20.1763 25.4141V26.4141H6.17627V13.4141H19.7625L18.4688 14.7066C18.2811 14.8942 18.1757 15.1487 18.1757 15.4141C18.1757 15.6794 18.2811 15.9339 18.4688 16.1216C18.6564 16.3092 18.9109 16.4146 19.1763 16.4146C19.4416 16.4146 19.6961 16.3092 19.8838 16.1216L22.8838 13.1216C22.9767 13.0287 23.0505 12.9184 23.1008 12.797C23.1512 12.6756 23.1771 12.5455 23.1771 12.4141C23.1771 12.2826 23.1512 12.1525 23.1008 12.0311C23.0505 11.9097 22.9767 11.7994 22.8838 11.7066L19.8838 8.70656C19.6961 8.51892 19.4416 8.41351 19.1763 8.41351C18.9109 8.41351 18.6564 8.51892 18.4688 8.70656C18.2811 8.8942 18.1757 9.1487 18.1757 9.41406C18.1757 9.67943 18.2811 9.93392 18.4688 10.1216L19.7625 11.4141H6.17627C5.64584 11.4141 5.13713 11.6248 4.76206 11.9998C4.38698 12.3749 4.17627 12.8836 4.17627 13.4141V26.4141C4.17627 26.9445 4.38698 27.4532 4.76206 27.8283C5.13713 28.2033 5.64584 28.4141 6.17627 28.4141H20.1763C20.7067 28.4141 21.2154 28.2033 21.5905 27.8283C21.9656 27.4532 22.1763 26.9445 22.1763 26.4141V25.4141C22.1763 25.1488 22.0709 24.8945 21.8834 24.707C21.6958 24.5194 21.4415 24.4141 21.1763 24.4141Z" fill="white"/>
</svg>
