<svg width="21" height="21" viewBox="0 0 21 21" fill="none" xmlns="http://www.w3.org/2000/svg">
<path d="M17.625 4.125H14.5V3.5C14.5 3.00272 14.3025 2.52581 13.9508 2.17417C13.5992 1.82254 13.1223 1.625 12.625 1.625H8.875C8.37772 1.625 7.90081 1.82254 7.54917 2.17417C7.19754 2.52581 7 3.00272 7 3.5V4.125H3.875C3.70924 4.125 3.55027 4.19085 3.43306 4.30806C3.31585 4.42527 3.25 4.58424 3.25 4.75C3.25 4.91576 3.31585 5.07473 3.43306 5.19194C3.55027 5.30915 3.70924 5.375 3.875 5.375H4.5V16.625C4.5 16.9565 4.6317 17.2745 4.86612 17.5089C5.10054 17.7433 5.41848 17.875 5.75 17.875H15.75C16.0815 17.875 16.3995 17.7433 16.6339 17.5089C16.8683 17.2745 17 16.9565 17 16.625V5.375H17.625C17.7908 5.375 17.9497 5.30915 18.0669 5.19194C18.1842 5.07473 18.25 4.91576 18.25 4.75C18.25 4.58424 18.1842 4.42527 18.0669 4.30806C17.9497 4.19085 17.7908 4.125 17.625 4.125ZM8.25 3.5C8.25 3.33424 8.31585 3.17527 8.43306 3.05806C8.55027 2.94085 8.70924 2.875 8.875 2.875H12.625C12.7908 2.875 12.9497 2.94085 13.0669 3.05806C13.1842 3.17527 13.25 3.33424 13.25 3.5V4.125H8.25V3.5ZM15.75 16.625H5.75V5.375H15.75V16.625ZM9.5 8.5V13.5C9.5 13.6658 9.43415 13.8247 9.31694 13.9419C9.19973 14.0592 9.04076 14.125 8.875 14.125C8.70924 14.125 8.55027 14.0592 8.43306 13.9419C8.31585 13.8247 8.25 13.6658 8.25 13.5V8.5C8.25 8.33424 8.31585 8.17527 8.43306 8.05806C8.55027 7.94085 8.70924 7.875 8.875 7.875C9.04076 7.875 9.19973 7.94085 9.31694 8.05806C9.43415 8.17527 9.5 8.33424 9.5 8.5ZM13.25 8.5V13.5C13.25 13.6658 13.1842 13.8247 13.0669 13.9419C12.9497 14.0592 12.7908 14.125 12.625 14.125C12.4592 14.125 12.3003 14.0592 12.1831 13.9419C12.0658 13.8247 12 13.6658 12 13.5V8.5C12 8.33424 12.0658 8.17527 12.1831 8.05806C12.3003 7.94085 12.4592 7.875 12.625 7.875C12.7908 7.875 12.9497 7.94085 13.0669 8.05806C13.1842 8.17527 13.25 8.33424 13.25 8.5Z" fill="#1A1A21"/>
</svg>
