<svg width="20" height="21" viewBox="0 0 20 21" fill="none" xmlns="http://www.w3.org/2000/svg">
<path d="M16.875 4.6333H13.75V4.0083C13.75 3.51102 13.5525 3.03411 13.2008 2.68248C12.8492 2.33084 12.3723 2.1333 11.875 2.1333H8.125C7.62772 2.1333 7.15081 2.33084 6.79917 2.68248C6.44754 3.03411 6.25 3.51102 6.25 4.0083V4.6333H3.125C2.95924 4.6333 2.80027 4.69915 2.68306 4.81636C2.56585 4.93357 2.5 5.09254 2.5 5.2583C2.5 5.42406 2.56585 5.58303 2.68306 5.70024C2.80027 5.81745 2.95924 5.8833 3.125 5.8833H3.75V17.1333C3.75 17.4648 3.8817 17.7828 4.11612 18.0172C4.35054 18.2516 4.66848 18.3833 5 18.3833H15C15.3315 18.3833 15.6495 18.2516 15.8839 18.0172C16.1183 17.7828 16.25 17.4648 16.25 17.1333V5.8833H16.875C17.0408 5.8833 17.1997 5.81745 17.3169 5.70024C17.4342 5.58303 17.5 5.42406 17.5 5.2583C17.5 5.09254 17.4342 4.93357 17.3169 4.81636C17.1997 4.69915 17.0408 4.6333 16.875 4.6333ZM7.5 4.0083C7.5 3.84254 7.56585 3.68357 7.68306 3.56636C7.80027 3.44915 7.95924 3.3833 8.125 3.3833H11.875C12.0408 3.3833 12.1997 3.44915 12.3169 3.56636C12.4342 3.68357 12.5 3.84254 12.5 4.0083V4.6333H7.5V4.0083ZM15 17.1333H5V5.8833H15V17.1333ZM8.75 9.0083V14.0083C8.75 14.1741 8.68415 14.333 8.56694 14.4502C8.44973 14.5675 8.29076 14.6333 8.125 14.6333C7.95924 14.6333 7.80027 14.5675 7.68306 14.4502C7.56585 14.333 7.5 14.1741 7.5 14.0083V9.0083C7.5 8.84254 7.56585 8.68357 7.68306 8.56636C7.80027 8.44915 7.95924 8.3833 8.125 8.3833C8.29076 8.3833 8.44973 8.44915 8.56694 8.56636C8.68415 8.68357 8.75 8.84254 8.75 9.0083ZM12.5 9.0083V14.0083C12.5 14.1741 12.4342 14.333 12.3169 14.4502C12.1997 14.5675 12.0408 14.6333 11.875 14.6333C11.7092 14.6333 11.5503 14.5675 11.4331 14.4502C11.3158 14.333 11.25 14.1741 11.25 14.0083V9.0083C11.25 8.84254 11.3158 8.68357 11.4331 8.56636C11.5503 8.44915 11.7092 8.3833 11.875 8.3833C12.0408 8.3833 12.1997 8.44915 12.3169 8.56636C12.4342 8.68357 12.5 8.84254 12.5 9.0083Z" fill="#F04438"/>
</svg>
