<svg width="36" height="39" viewBox="0 0 36 39" fill="none" xmlns="http://www.w3.org/2000/svg">
<rect x="0.5" y="11" width="35" height="27" rx="3.5" stroke="#BBC0CA" stroke-dasharray="2 2"/>
<path d="M20.467 0.5H8C6.89543 0.5 6 1.39543 6 2.5V30.5C6 31.6046 6.89543 32.5 8 32.5H28C29.1046 32.5 30 31.6046 30 30.5V8.7037L20.4668 8.70392L20.467 0.5Z" fill="#F04438"/>
<path d="M30 7.6948V7.7037L21.4668 7.7039L21.467 0.5H21.4798L30 7.6948Z" fill="#F04438"/>
<path d="M21.7744 19.144C21.7222 19.1964 21.6601 19.238 21.5917 19.2664C21.5233 19.2948 21.45 19.3094 21.376 19.3094C21.3019 19.3094 21.2286 19.2948 21.1603 19.2664C21.0919 19.238 21.0298 19.1964 20.9775 19.144L18.5639 16.7304V23.621C18.5639 23.7702 18.5047 23.9132 18.3992 24.0187C18.2937 24.1242 18.1506 24.1835 18.0014 24.1835C17.8523 24.1835 17.7092 24.1242 17.6037 24.0187C17.4982 23.9132 17.4389 23.7702 17.4389 23.621V16.7304L15.0244 19.144C14.9187 19.2496 14.7754 19.309 14.626 19.309C14.4765 19.309 14.3332 19.2496 14.2275 19.144C14.1219 19.0383 14.0625 18.895 14.0625 18.7455C14.0625 18.5961 14.1219 18.4528 14.2275 18.3471L17.6025 14.9721C17.6548 14.9196 17.7169 14.878 17.7853 14.8496C17.8536 14.8213 17.9269 14.8066 18.001 14.8066C18.075 14.8066 18.1483 14.8213 18.2167 14.8496C18.2851 14.878 18.3472 14.9196 18.3994 14.9721L21.7744 18.3471C21.8269 18.3993 21.8685 18.4614 21.8969 18.5298C21.9252 18.5982 21.9399 18.6715 21.9399 18.7455C21.9399 18.8196 21.9252 18.8929 21.8969 18.9612C21.8685 19.0296 21.8269 19.0917 21.7744 19.144Z" fill="white"/>
</svg>
