<svg width="32" height="32" viewBox="0 0 32 32" fill="none" xmlns="http://www.w3.org/2000/svg">
<path opacity="0.2" d="M27.9999 16.0001C28.0017 17.683 27.6486 19.3473 26.9637 20.8846C26.2788 22.4218 25.2774 23.7973 24.0249 24.9213C23.2719 23.4402 22.1236 22.1964 20.7072 21.3278C19.2907 20.4592 17.6615 19.9996 15.9999 20.0001C16.9888 20.0001 17.9555 19.7068 18.7778 19.1574C19.6 18.608 20.2409 17.8271 20.6193 16.9135C20.9978 15.9999 21.0968 14.9945 20.9039 14.0246C20.7109 13.0547 20.2347 12.1638 19.5355 11.4645C18.8362 10.7653 17.9453 10.2891 16.9754 10.0961C16.0055 9.90322 15.0002 10.0022 14.0865 10.3807C13.1729 10.7591 12.392 11.4 11.8426 12.2222C11.2932 13.0445 10.9999 14.0112 10.9999 15.0001C10.9999 16.3262 11.5267 17.5979 12.4644 18.5356C13.4021 19.4733 14.6739 20.0001 15.9999 20.0001C14.3384 19.9996 12.7091 20.4592 11.2927 21.3278C9.87627 22.1964 8.72795 23.4402 7.97494 24.9213C5.68429 22.8609 4.2739 19.9984 4.03589 16.9266C3.79787 13.8548 4.75047 10.8092 6.69639 8.42048C8.6423 6.03179 11.4324 4.48306 14.4889 4.09508C17.5453 3.7071 20.6339 4.50958 23.1149 6.33632C22.9904 6.69173 22.9688 7.07508 23.0525 7.44224C23.1363 7.8094 23.322 8.14546 23.5883 8.41175C23.8545 8.67804 24.1906 8.86373 24.5578 8.94747C24.9249 9.0312 25.3083 9.00957 25.6637 8.88507C27.1846 10.9452 28.0035 13.4394 27.9999 16.0001Z" fill="white"/>
<path d="M28.5308 7.88375L27.9483 7.5475C28.0166 7.1857 28.0166 6.8143 27.9483 6.4525L28.5308 6.11625C28.7605 5.98364 28.9282 5.7652 28.9969 5.50898C29.0656 5.25276 29.0297 4.97974 28.897 4.75C28.7644 4.52026 28.546 4.3526 28.2898 4.28392C28.0336 4.21523 27.7605 4.25114 27.5308 4.38375L26.947 4.72125C26.6677 4.48157 26.3465 4.29554 25.9995 4.1725V3.5C25.9995 3.23478 25.8942 2.98043 25.7067 2.79289C25.5191 2.60536 25.2648 2.5 24.9995 2.5C24.7343 2.5 24.48 2.60536 24.2924 2.79289C24.1049 2.98043 23.9995 3.23478 23.9995 3.5V4.1725C23.6526 4.29554 23.3314 4.48157 23.052 4.72125L22.4683 4.38375C22.3545 4.31809 22.229 4.27548 22.0987 4.25835C21.9685 4.24122 21.8362 4.24991 21.7093 4.28392C21.5824 4.31792 21.4635 4.37659 21.3593 4.45656C21.2551 4.53653 21.1677 4.63624 21.102 4.75C21.0364 4.86376 20.9938 4.98933 20.9766 5.11956C20.9595 5.24979 20.9682 5.38211 21.0022 5.50898C21.0362 5.63585 21.0949 5.75477 21.1749 5.85897C21.2548 5.96316 21.3545 6.05059 21.4683 6.11625L22.0508 6.4525C21.9825 6.8143 21.9825 7.1857 22.0508 7.5475L21.4683 7.88375C21.2775 7.99377 21.1284 8.16367 21.0441 8.36709C20.9598 8.57052 20.945 8.79609 21.002 9.00879C21.059 9.22149 21.1846 9.40944 21.3593 9.54346C21.534 9.67748 21.7481 9.75009 21.9683 9.75C22.1439 9.75054 22.3164 9.70438 22.4683 9.61625L23.052 9.27875C23.3314 9.51843 23.6526 9.70446 23.9995 9.8275V10.5C23.9995 10.7652 24.1049 11.0196 24.2924 11.2071C24.48 11.3946 24.7343 11.5 24.9995 11.5C25.2648 11.5 25.5191 11.3946 25.7067 11.2071C25.8942 11.0196 25.9995 10.7652 25.9995 10.5V9.8275C26.3465 9.70446 26.6677 9.51843 26.947 9.27875L27.5308 9.61625C27.6827 9.70438 27.8552 9.75054 28.0308 9.75C28.251 9.75009 28.4651 9.67748 28.6398 9.54346C28.8145 9.40944 28.9401 9.22149 28.9971 9.00879C29.0541 8.79609 29.0393 8.57052 28.955 8.36709C28.8707 8.16367 28.7215 7.99377 28.5308 7.88375ZM23.9995 7C23.9995 6.80222 24.0582 6.60888 24.1681 6.44443C24.278 6.27998 24.4341 6.15181 24.6169 6.07612C24.7996 6.00043 25.0007 5.98063 25.1946 6.01921C25.3886 6.0578 25.5668 6.15304 25.7067 6.29289C25.8465 6.43275 25.9417 6.61093 25.9803 6.80491C26.0189 6.99889 25.9991 7.19996 25.9234 7.38268C25.8477 7.56541 25.7196 7.72159 25.5551 7.83147C25.3907 7.94135 25.1973 8 24.9995 8C24.7343 8 24.48 7.89464 24.2924 7.70711C24.1049 7.51957 23.9995 7.26522 23.9995 7ZM27.6683 13.0138C27.4067 13.0575 27.1733 13.2034 27.0193 13.4193C26.8652 13.6352 26.8033 13.9034 26.847 14.165C26.9486 14.7714 26.9996 15.3852 26.9995 16C27.0019 18.6927 26.0122 21.292 24.2195 23.3013C23.1043 21.6851 21.536 20.4348 19.712 19.7075C20.6918 18.9358 21.4068 17.878 21.7575 16.6811C22.1082 15.4843 22.0772 14.2079 21.6688 13.0294C21.2605 11.851 20.495 10.8291 19.479 10.1059C18.4629 9.38262 17.2467 8.99397 15.9995 8.99397C14.7524 8.99397 13.5362 9.38262 12.5201 10.1059C11.5041 10.8291 10.7386 11.851 10.3303 13.0294C9.92192 14.2079 9.89094 15.4843 10.2416 16.6811C10.5923 17.878 11.3073 18.9358 12.287 19.7075C10.4631 20.4348 8.89483 21.6851 7.77954 23.3013C6.37294 21.7162 5.45413 19.7586 5.1336 17.6638C4.81306 15.569 5.10445 13.4262 5.97271 11.4931C6.84098 9.55995 8.24917 7.91877 10.0279 6.76688C11.8067 5.615 13.8804 5.00144 15.9995 5C16.6144 4.9999 17.2282 5.05091 17.8345 5.1525C18.0949 5.19359 18.361 5.13019 18.5749 4.97611C18.7888 4.82203 18.9332 4.58972 18.9767 4.32973C19.0202 4.06973 18.9593 3.80307 18.8072 3.58776C18.6551 3.37245 18.4241 3.22591 18.1645 3.18C15.4488 2.72314 12.6582 3.14117 10.1956 4.37372C7.73295 5.60627 5.72575 7.58956 4.46377 10.0372C3.2018 12.4849 2.75036 15.2703 3.17464 17.9913C3.59892 20.7123 4.87696 23.228 6.82423 25.1753C8.7715 27.1226 11.2872 28.4006 14.0082 28.8249C16.7292 29.2492 19.5146 28.7977 21.9623 27.5358C24.41 26.2738 26.3933 24.2666 27.6258 21.804C28.8584 19.3413 29.2764 16.5507 28.8195 13.835C28.7758 13.5734 28.6299 13.34 28.414 13.186C28.1981 13.0319 27.9299 12.97 27.6683 13.0138ZM11.9995 15C11.9995 14.2089 12.2341 13.4355 12.6737 12.7777C13.1132 12.1199 13.7379 11.6072 14.4688 11.3045C15.1997 11.0017 16.004 10.9225 16.7799 11.0769C17.5558 11.2312 18.2686 11.6122 18.828 12.1716C19.3874 12.731 19.7683 13.4437 19.9227 14.2196C20.077 14.9956 19.9978 15.7998 19.6951 16.5307C19.3923 17.2616 18.8796 17.8864 18.2218 18.3259C17.564 18.7654 16.7907 19 15.9995 19C14.9387 19 13.9213 18.5786 13.1711 17.8284C12.421 17.0783 11.9995 16.0609 11.9995 15ZM9.25954 24.6875C9.98296 23.5561 10.9796 22.625 12.1574 21.9801C13.3353 21.3351 14.6566 20.9971 15.9995 20.9971C17.3425 20.9971 18.6637 21.3351 19.8416 21.9801C21.0195 22.625 22.0161 23.5561 22.7395 24.6875C20.8125 26.1862 18.4408 26.9999 15.9995 26.9999C13.5583 26.9999 11.1866 26.1862 9.25954 24.6875Z" fill="white"/>
</svg>
