<svg width="24" height="24" viewBox="0 0 24 24" fill="none" xmlns="http://www.w3.org/2000/svg">
<g clip-path="url(#clip0_1582_40228)">
<path d="M23.9991 12.7501C23.9991 12.949 23.92 13.1398 23.7794 13.2804C23.6387 13.4211 23.448 13.5001 23.2491 13.5001H21.7491V15.0001C21.7491 15.199 21.67 15.3898 21.5294 15.5304C21.3887 15.6711 21.198 15.7501 20.9991 15.7501C20.8001 15.7501 20.6094 15.6711 20.4687 15.5304C20.3281 15.3898 20.2491 15.199 20.2491 15.0001V13.5001H18.7491C18.5501 13.5001 18.3594 13.4211 18.2187 13.2804C18.0781 13.1398 17.9991 12.949 17.9991 12.7501C17.9991 12.5512 18.0781 12.3604 18.2187 12.2198C18.3594 12.0791 18.5501 12.0001 18.7491 12.0001H20.2491V10.5001C20.2491 10.3012 20.3281 10.1104 20.4687 9.96976C20.6094 9.82911 20.8001 9.75009 20.9991 9.75009C21.198 9.75009 21.3887 9.82911 21.5294 9.96976C21.67 10.1104 21.7491 10.3012 21.7491 10.5001V12.0001H23.2491C23.448 12.0001 23.6387 12.0791 23.7794 12.2198C23.92 12.3604 23.9991 12.5512 23.9991 12.7501ZM13.4991 14.7826C14.6748 14.0503 15.58 12.955 16.0778 11.6625C16.5756 10.3699 16.6389 8.95037 16.2581 7.61864C15.8773 6.2869 15.0731 5.11543 13.9672 4.28144C12.8613 3.44746 11.5139 2.99634 10.1287 2.99634C8.74363 2.99634 7.3962 3.44746 6.29031 4.28144C5.18441 5.11543 4.38023 6.2869 3.99941 7.61864C3.6186 8.95037 3.68188 10.3699 4.17968 11.6625C4.67748 12.955 5.58271 14.0503 6.75843 14.7826C4.82249 15.4163 3.08062 16.6004 1.67999 18.2673C1.5883 18.3763 1.52953 18.5091 1.51058 18.6503C1.49162 18.7915 1.51326 18.9351 1.57295 19.0644C1.63265 19.1938 1.72793 19.3034 1.84767 19.3806C1.9674 19.4577 2.10662 19.4992 2.24906 19.5001H17.9991C18.142 19.5002 18.2819 19.4595 18.4025 19.3828C18.5231 19.3061 18.6192 19.1965 18.6796 19.067C18.74 18.9374 18.7621 18.7934 18.7433 18.6517C18.7246 18.51 18.6657 18.3766 18.5737 18.2673C17.1722 16.6004 15.4303 15.4163 13.4991 14.7826Z" fill="#8872FD"/>
</g>
<defs>
<clipPath id="clip0_1582_40228">
<rect width="24" height="24" fill="white"/>
</clipPath>
</defs>
</svg>
