<svg width="20" height="20" viewBox="0 0 20 20" fill="none" xmlns="http://www.w3.org/2000/svg">
<path d="M11.2498 12.3187C12.2296 11.7085 12.984 10.7957 13.3988 9.7186C13.8136 8.64146 13.8664 7.45852 13.549 6.34874C13.2317 5.23897 12.5615 4.26273 11.6399 3.56775C10.7184 2.87276 9.5955 2.49683 8.44124 2.49683C7.28698 2.49683 6.16412 2.87276 5.24254 3.56775C4.32097 4.26273 3.65081 5.23897 3.33347 6.34874C3.01612 7.45852 3.06885 8.64146 3.48369 9.7186C3.89852 10.7957 4.65288 11.7085 5.63265 12.3187C4.01936 12.8468 2.5678 13.8335 1.40061 15.2226C1.34593 15.2851 1.30426 15.358 1.27804 15.4368C1.25182 15.5156 1.24158 15.5989 1.24791 15.6817C1.25425 15.7645 1.27704 15.8453 1.31495 15.9192C1.35285 15.9931 1.40511 16.0588 1.46868 16.1122C1.53224 16.1657 1.60583 16.206 1.68515 16.2307C1.76446 16.2555 1.8479 16.2641 1.9306 16.2562C2.0133 16.2483 2.09359 16.224 2.16678 16.1847C2.23997 16.1454 2.30459 16.0919 2.35686 16.0273C3.92561 14.1554 6.08655 13.125 8.43733 13.125C10.7881 13.125 12.9491 14.1554 14.5209 16.0273C14.6276 16.1543 14.7804 16.2337 14.9457 16.2481C15.111 16.2624 15.2752 16.2106 15.4022 16.1039C15.5292 15.9971 15.6086 15.8444 15.623 15.6791C15.6373 15.5138 15.5854 15.3496 15.4787 15.2226C14.3108 13.8335 12.8592 12.8468 11.2498 12.3187ZM4.37483 7.81245C4.37483 7.00896 4.61309 6.22352 5.05949 5.55545C5.50588 4.88737 6.14036 4.36667 6.88268 4.05919C7.62501 3.75171 8.44184 3.67126 9.22989 3.82801C10.0179 3.98476 10.7418 4.37168 11.31 4.93983C11.8781 5.50798 12.265 6.23185 12.4218 7.0199C12.5785 7.80794 12.4981 8.62478 12.1906 9.3671C11.8831 10.1094 11.3624 10.7439 10.6943 11.1903C10.0263 11.6367 9.24082 11.875 8.43733 11.875C7.36027 11.8737 6.32768 11.4453 5.56608 10.6837C4.80448 9.9221 4.37607 8.88951 4.37483 7.81245ZM19.0819 11.1773L18.7178 10.9671C18.7605 10.741 18.7605 10.5089 18.7178 10.2828L19.0819 10.0726C19.2255 9.98973 19.3302 9.8532 19.3732 9.69306C19.4161 9.53292 19.3937 9.36229 19.3108 9.2187C19.2279 9.07511 19.0914 8.97033 18.9312 8.9274C18.7711 8.88447 18.6005 8.90691 18.4569 8.98979L18.092 9.20073C17.9174 9.05093 17.7167 8.93466 17.4998 8.85776V8.43745C17.4998 8.27169 17.434 8.11272 17.3168 7.99551C17.1996 7.8783 17.0406 7.81245 16.8748 7.81245C16.7091 7.81245 16.5501 7.8783 16.4329 7.99551C16.3157 8.11272 16.2498 8.27169 16.2498 8.43745V8.85776C16.033 8.93466 15.8322 9.05093 15.6576 9.20073L15.2928 8.98979C15.2217 8.94876 15.1432 8.92212 15.0618 8.91142C14.9804 8.90071 14.8977 8.90614 14.8184 8.9274C14.7391 8.94865 14.6648 8.98532 14.5997 9.0353C14.5346 9.08528 14.4799 9.1476 14.4389 9.2187C14.3979 9.2898 14.3712 9.36828 14.3605 9.44968C14.3498 9.53107 14.3552 9.61377 14.3765 9.69306C14.3978 9.77235 14.4344 9.84668 14.4844 9.91181C14.5344 9.97693 14.5967 10.0316 14.6678 10.0726L15.0319 10.2828C14.9892 10.5089 14.9892 10.741 15.0319 10.9671L14.6678 11.1773C14.5242 11.2602 14.4194 11.3967 14.3765 11.5568C14.3336 11.717 14.356 11.8876 14.4389 12.0312C14.5218 12.1748 14.6583 12.2796 14.8184 12.3225C14.9786 12.3654 15.1492 12.343 15.2928 12.2601L15.6576 12.0492C15.8322 12.199 16.033 12.3152 16.2498 12.3921V12.8125C16.2498 12.9782 16.3157 13.1372 16.4329 13.2544C16.5501 13.3716 16.7091 13.4375 16.8748 13.4375C17.0406 13.4375 17.1996 13.3716 17.3168 13.2544C17.434 13.1372 17.4998 12.9782 17.4998 12.8125V12.3921C17.7167 12.3152 17.9174 12.199 18.092 12.0492L18.4569 12.2601C18.5518 12.3152 18.6596 12.344 18.7694 12.3437C18.907 12.3438 19.0408 12.2984 19.15 12.2146C19.2592 12.1309 19.3377 12.0134 19.3733 11.8804C19.4089 11.7475 19.3997 11.6065 19.347 11.4794C19.2943 11.3522 19.2011 11.2461 19.0819 11.1773ZM16.2498 10.625C16.2498 10.5013 16.2865 10.3805 16.3552 10.2777C16.4238 10.1749 16.5215 10.0948 16.6357 10.0475C16.7499 10.0002 16.8755 9.98784 16.9968 10.012C17.118 10.0361 17.2294 10.0956 17.3168 10.183C17.4042 10.2704 17.4637 10.3818 17.4878 10.503C17.5119 10.6243 17.4996 10.7499 17.4523 10.8641C17.405 10.9783 17.3248 11.0759 17.2221 11.1446C17.1193 11.2133 16.9984 11.25 16.8748 11.25C16.7091 11.25 16.5501 11.1841 16.4329 11.0669C16.3157 10.9497 16.2498 10.7907 16.2498 10.625Z" fill="#49576D"/>
</svg>
