<svg width="32" height="33" viewBox="0 0 32 33" fill="none" xmlns="http://www.w3.org/2000/svg">
<path opacity="0.2" d="M28 11.377V25.377C28 25.6422 27.8946 25.8965 27.7071 26.0841C27.5196 26.2716 27.2652 26.377 27 26.377H7C6.46957 26.377 5.96086 26.1662 5.58579 25.7912C5.21071 25.4161 5 24.9074 5 24.377V8.37695C5 8.90739 5.21071 9.41609 5.58579 9.79117C5.96086 10.1662 6.46957 10.377 7 10.377H27C27.2652 10.377 27.5196 10.4823 27.7071 10.6698C27.8946 10.8574 28 11.1117 28 11.377Z" fill="white"/>
<path d="M27 9.37695H7C6.73478 9.37695 6.48043 9.2716 6.29289 9.08406C6.10536 8.89652 6 8.64217 6 8.37695C6 8.11174 6.10536 7.85738 6.29289 7.66985C6.48043 7.48231 6.73478 7.37695 7 7.37695H24C24.2652 7.37695 24.5196 7.2716 24.7071 7.08406C24.8946 6.89652 25 6.64217 25 6.37695C25 6.11174 24.8946 5.85738 24.7071 5.66985C24.5196 5.48231 24.2652 5.37695 24 5.37695H7C6.20435 5.37695 5.44129 5.69302 4.87868 6.25563C4.31607 6.81824 4 7.5813 4 8.37695V24.377C4 25.1726 4.31607 25.9357 4.87868 26.4983C5.44129 27.0609 6.20435 27.377 7 27.377H27C27.5304 27.377 28.0391 27.1662 28.4142 26.7912C28.7893 26.4161 29 25.9074 29 25.377V11.377C29 10.8465 28.7893 10.3378 28.4142 9.96274C28.0391 9.58767 27.5304 9.37695 27 9.37695ZM27 25.377H7C6.73478 25.377 6.48043 25.2716 6.29289 25.0841C6.10536 24.8965 6 24.6422 6 24.377V11.2057C6.32109 11.3195 6.65933 11.3774 7 11.377H27V25.377ZM21 17.877C21 17.5803 21.088 17.2903 21.2528 17.0436C21.4176 16.7969 21.6519 16.6047 21.926 16.4911C22.2001 16.3776 22.5017 16.3479 22.7926 16.4058C23.0836 16.4637 23.3509 16.6065 23.5607 16.8163C23.7704 17.0261 23.9133 17.2933 23.9712 17.5843C24.0291 17.8753 23.9993 18.1769 23.8858 18.451C23.7723 18.7251 23.58 18.9593 23.3334 19.1242C23.0867 19.289 22.7967 19.377 22.5 19.377C22.1022 19.377 21.7206 19.2189 21.4393 18.9376C21.158 18.6563 21 18.2748 21 17.877Z" fill="white"/>
</svg>
