<svg width="8" height="9" viewBox="0 0 8 9" fill="none" xmlns="http://www.w3.org/2000/svg">
<path d="M6.42701 6.19045C6.45024 6.21368 6.46867 6.24125 6.48124 6.2716C6.49381 6.30195 6.50028 6.33448 6.50028 6.36733C6.50028 6.40018 6.49381 6.4327 6.48124 6.46305C6.46867 6.4934 6.45024 6.52097 6.42701 6.5442C6.40379 6.56743 6.37621 6.58585 6.34586 6.59842C6.31552 6.611 6.28299 6.61747 6.25014 6.61747C6.21729 6.61747 6.18476 6.611 6.15442 6.59842C6.12407 6.58585 6.09649 6.56743 6.07326 6.5442L4.00014 4.47076L1.92701 6.5442C1.8801 6.59111 1.81648 6.61747 1.75014 6.61747C1.6838 6.61747 1.62017 6.59111 1.57326 6.5442C1.52635 6.49729 1.5 6.43367 1.5 6.36733C1.5 6.30099 1.52635 6.23736 1.57326 6.19045L3.6467 4.11733L1.57326 2.0442C1.52635 1.99729 1.5 1.93367 1.5 1.86733C1.5 1.80099 1.52635 1.73736 1.57326 1.69045C1.62017 1.64354 1.6838 1.61719 1.75014 1.61719C1.81648 1.61719 1.8801 1.64354 1.92701 1.69045L4.00014 3.76389L6.07326 1.69045C6.12017 1.64354 6.1838 1.61719 6.25014 1.61719C6.31648 1.61719 6.3801 1.64354 6.42701 1.69045C6.47392 1.73736 6.50028 1.80099 6.50028 1.86733C6.50028 1.93367 6.47392 1.99729 6.42701 2.0442L4.35358 4.11733L6.42701 6.19045Z" fill="#49576D"/>
</svg>
