<svg width="42" height="31" viewBox="0 0 42 31" fill="none" xmlns="http://www.w3.org/2000/svg">
<path d="M20.1267 14.7705V15.7298L19.3608 15.2501L20.1267 14.7705Z" fill="#8872FD"/>
<path d="M19.8732 7.71412L8.09165 0.352639C7.63851 0.0717468 7.05553 0.395037 7.05553 0.925022V6.09767C7.05553 6.45011 6.96278 6.7999 6.76669 7.09139C6.58384 7.36168 6.33475 7.56573 6.05121 7.69292C5.83657 7.78832 5.60072 7.83867 5.36223 7.83867H0.822912C0.449272 7.83867 0.144531 8.14341 0.144531 8.51705V20.7252C0.144531 21.0989 0.449272 21.4036 0.822912 21.4036H6.13336C6.507 21.4036 6.81174 21.1015 6.81174 20.7252C6.80909 17.9561 6.80644 8.95164 6.80644 8.95164C6.80644 8.73964 6.88594 8.5356 7.02638 8.37925C7.19598 8.19376 7.42652 8.09571 7.66501 8.09571C7.82136 8.09571 7.9777 8.13811 8.1208 8.22556L18.4449 14.6781C18.8689 14.9431 18.8689 15.5632 18.4449 15.8282L7.30992 22.7869C7.15093 22.8849 7.05553 23.0598 7.05553 23.2453V29.5707C7.05553 30.1007 7.64116 30.4266 8.09165 30.1431L19.8732 22.7816C20.0296 22.6835 20.1276 22.5086 20.1276 22.3231V14.7709V8.17521C20.1276 7.98707 20.0322 7.81482 19.8732 7.71412Z" fill="#8872FD"/>
<path d="M22.144 22.7837L33.9256 30.1452C34.3787 30.4261 34.9617 30.1028 34.9617 29.5728V24.4001C34.9617 24.0477 35.0545 23.6979 35.2506 23.4064C35.4334 23.1361 35.6825 22.9321 35.966 22.8049C36.1807 22.7095 36.4165 22.6591 36.655 22.6591H41.1917C41.5653 22.6591 41.8701 22.3544 41.8701 21.9808V9.77521C41.8701 9.40157 41.5653 9.09683 41.1917 9.09683H35.8812C35.5076 9.09683 35.2029 9.39892 35.2029 9.77521C35.2055 12.5444 35.2082 21.5488 35.2082 21.5488C35.2082 21.7608 35.1287 21.9649 34.9882 22.1212C34.8186 22.3067 34.5881 22.4047 34.3496 22.4047C34.1932 22.4047 34.0369 22.3623 33.8938 22.2749L23.575 15.8223C23.151 15.5573 23.151 14.9373 23.575 14.6723L34.7073 7.70827C34.8663 7.61023 34.9617 7.43533 34.9617 7.24984V0.927122C34.9617 0.397137 34.3761 0.071197 33.9256 0.354739L22.144 7.71357C21.9877 7.81162 21.8896 7.98652 21.8896 8.17201V15.7269V22.3226C21.8896 22.5107 21.985 22.6856 22.144 22.7837Z" fill="#8872FD"/>
</svg>
