<svg width="290" height="69" viewBox="0 0 290 69" fill="none" xmlns="http://www.w3.org/2000/svg">
<mask id="path-1-outside-1_313_38314" maskUnits="userSpaceOnUse" x="3.53125" y="1.13464" width="287" height="68" fill="black">
<rect fill="white" x="3.53125" y="1.13464" width="287" height="68"/>
<path d="M16.6457 66.9271H5.53125L29.1138 2.13464H44.8592L47.7548 37.7221L48.092 53.195H48.9153L60.5158 37.7221L88.9054 2.13464H104.651L81.0683 66.9271H70.0568L83.9951 28.6319L88.3489 17.8009H87.6285L79.3641 28.6319L51.3969 63.0589H38.0184L35.0092 28.6319L34.8349 17.8009H33.9087L30.584 28.6319L16.6457 66.9271Z"/>
<path d="M115.492 67.8942C110.277 67.8942 106.125 66.8626 103.034 64.7996C99.9659 62.6721 98.0834 59.7387 97.3862 55.9994C96.7124 52.1957 97.2789 47.8117 99.0857 42.8475C100.893 37.8833 103.506 33.5316 106.925 29.7923C110.344 26.0531 114.35 23.1519 118.943 21.0889C123.559 18.9613 128.475 17.8976 133.689 17.8976C138.903 17.8976 142.975 18.9613 145.906 21.0889C148.928 23.1519 150.754 26.0531 151.383 29.7923C152.08 33.5316 151.525 37.8833 149.718 42.8475C147.911 47.8117 145.287 52.1957 141.844 55.9994C138.493 59.7387 134.544 62.6721 129.996 64.7996C125.541 66.8626 120.706 67.8942 115.492 67.8942ZM118.871 58.6105C124.222 58.6105 128.419 57.3533 131.461 54.839C134.526 52.2602 137.044 48.263 139.015 42.8475C140.986 37.432 141.366 33.4671 140.154 30.9528C138.943 28.4384 135.661 27.1813 130.31 27.1813C124.89 27.1813 120.659 28.4384 117.617 30.9528C114.575 33.4671 112.068 37.432 110.097 42.8475C108.126 48.263 107.735 52.2602 108.923 54.839C110.135 57.3533 113.451 58.6105 118.871 58.6105Z"/>
<path d="M197.94 66.9271H186.825L196.997 38.9793C198.546 34.7243 198.803 31.662 197.768 29.7923C196.757 27.8582 193.884 26.8912 189.151 26.8912C186.132 26.8912 183.509 27.3102 181.283 28.1483C179.081 28.922 177.171 30.2114 175.553 32.0165C173.959 33.7572 172.611 36.1426 171.508 39.1727H169.552L172.744 27.8582H175.214C176.602 26.1175 178.321 24.5058 180.37 23.023C182.419 21.5401 184.786 20.3152 187.471 19.3482C190.224 18.3811 193.247 17.8976 196.54 17.8976C201 17.8976 204.343 18.7035 206.569 20.3152C208.795 21.927 210.078 24.1512 210.418 26.9879C210.758 29.8246 210.259 33.0803 208.921 36.7551L197.94 66.9271ZM161.406 66.9271H150.292L167.785 18.8646H177.973L172.729 33.2737L173.479 33.7572L161.406 66.9271Z"/>
<path d="M239.715 12.7722H228.704L232.473 2.13464H243.587L239.715 12.7722ZM220.107 66.9271H208.993L226.592 18.5745H237.706L220.107 66.9271Z"/>
<path d="M253.231 67.8942C247.674 67.8942 243.419 66.8626 240.465 64.7996C237.534 62.6721 235.858 59.7387 235.435 55.9994C235.035 52.1957 235.739 47.8117 237.546 42.8475C239.353 37.8833 241.931 33.5316 245.282 29.7923C248.701 26.0531 252.639 23.1519 257.094 21.0889C261.574 18.9613 266.352 17.8976 271.429 17.8976C276.025 17.8976 279.768 18.7357 282.657 20.4119C285.638 22.0237 287.526 24.3768 288.32 27.4714C289.184 30.566 288.818 34.3052 287.222 38.6892C286.753 39.9786 286.226 41.2358 285.643 42.4607C285.152 43.6212 284.698 44.5882 284.279 45.3619H241.879L244.413 38.3991H277.757L276.273 39.3661C277.627 36.4005 278.164 33.9829 277.884 32.1132C277.672 30.2436 276.702 28.8575 274.972 27.9549C273.311 27.0523 270.971 26.601 267.952 26.601C262.532 26.601 258.358 27.8905 255.43 30.4693C252.525 32.9836 250.263 36.465 248.644 40.9134L247.588 43.8146C246.415 47.0381 245.829 49.7781 245.831 52.0345C245.925 54.2265 246.836 55.8705 248.564 56.9665C250.292 58.0625 253.008 58.6105 256.713 58.6105C261.036 58.6105 264.323 57.9658 266.576 56.6764C268.829 55.387 270.343 53.6785 271.117 51.551L271.399 50.7773H282.411L282.094 51.6477C280.897 54.9357 278.892 57.8046 276.08 60.2544C273.29 62.6398 269.934 64.5095 266.011 65.8633C262.157 67.2172 257.897 67.8942 253.231 67.8942Z"/>
</mask>
<path d="M16.6457 66.9271H5.53125L29.1138 2.13464H44.8592L47.7548 37.7221L48.092 53.195H48.9153L60.5158 37.7221L88.9054 2.13464H104.651L81.0683 66.9271H70.0568L83.9951 28.6319L88.3489 17.8009H87.6285L79.3641 28.6319L51.3969 63.0589H38.0184L35.0092 28.6319L34.8349 17.8009H33.9087L30.584 28.6319L16.6457 66.9271Z" stroke="url(#paint0_linear_313_38314)" stroke-width="2" mask="url(#path-1-outside-1_313_38314)"/>
<path d="M115.492 67.8942C110.277 67.8942 106.125 66.8626 103.034 64.7996C99.9659 62.6721 98.0834 59.7387 97.3862 55.9994C96.7124 52.1957 97.2789 47.8117 99.0857 42.8475C100.893 37.8833 103.506 33.5316 106.925 29.7923C110.344 26.0531 114.35 23.1519 118.943 21.0889C123.559 18.9613 128.475 17.8976 133.689 17.8976C138.903 17.8976 142.975 18.9613 145.906 21.0889C148.928 23.1519 150.754 26.0531 151.383 29.7923C152.08 33.5316 151.525 37.8833 149.718 42.8475C147.911 47.8117 145.287 52.1957 141.844 55.9994C138.493 59.7387 134.544 62.6721 129.996 64.7996C125.541 66.8626 120.706 67.8942 115.492 67.8942ZM118.871 58.6105C124.222 58.6105 128.419 57.3533 131.461 54.839C134.526 52.2602 137.044 48.263 139.015 42.8475C140.986 37.432 141.366 33.4671 140.154 30.9528C138.943 28.4384 135.661 27.1813 130.31 27.1813C124.89 27.1813 120.659 28.4384 117.617 30.9528C114.575 33.4671 112.068 37.432 110.097 42.8475C108.126 48.263 107.735 52.2602 108.923 54.839C110.135 57.3533 113.451 58.6105 118.871 58.6105Z" stroke="url(#paint1_linear_313_38314)" stroke-width="2" mask="url(#path-1-outside-1_313_38314)"/>
<path d="M197.94 66.9271H186.825L196.997 38.9793C198.546 34.7243 198.803 31.662 197.768 29.7923C196.757 27.8582 193.884 26.8912 189.151 26.8912C186.132 26.8912 183.509 27.3102 181.283 28.1483C179.081 28.922 177.171 30.2114 175.553 32.0165C173.959 33.7572 172.611 36.1426 171.508 39.1727H169.552L172.744 27.8582H175.214C176.602 26.1175 178.321 24.5058 180.37 23.023C182.419 21.5401 184.786 20.3152 187.471 19.3482C190.224 18.3811 193.247 17.8976 196.54 17.8976C201 17.8976 204.343 18.7035 206.569 20.3152C208.795 21.927 210.078 24.1512 210.418 26.9879C210.758 29.8246 210.259 33.0803 208.921 36.7551L197.94 66.9271ZM161.406 66.9271H150.292L167.785 18.8646H177.973L172.729 33.2737L173.479 33.7572L161.406 66.9271Z" stroke="url(#paint2_linear_313_38314)" stroke-width="2" mask="url(#path-1-outside-1_313_38314)"/>
<path d="M239.715 12.7722H228.704L232.473 2.13464H243.587L239.715 12.7722ZM220.107 66.9271H208.993L226.592 18.5745H237.706L220.107 66.9271Z" stroke="url(#paint3_linear_313_38314)" stroke-width="2" mask="url(#path-1-outside-1_313_38314)"/>
<path d="M253.231 67.8942C247.674 67.8942 243.419 66.8626 240.465 64.7996C237.534 62.6721 235.858 59.7387 235.435 55.9994C235.035 52.1957 235.739 47.8117 237.546 42.8475C239.353 37.8833 241.931 33.5316 245.282 29.7923C248.701 26.0531 252.639 23.1519 257.094 21.0889C261.574 18.9613 266.352 17.8976 271.429 17.8976C276.025 17.8976 279.768 18.7357 282.657 20.4119C285.638 22.0237 287.526 24.3768 288.32 27.4714C289.184 30.566 288.818 34.3052 287.222 38.6892C286.753 39.9786 286.226 41.2358 285.643 42.4607C285.152 43.6212 284.698 44.5882 284.279 45.3619H241.879L244.413 38.3991H277.757L276.273 39.3661C277.627 36.4005 278.164 33.9829 277.884 32.1132C277.672 30.2436 276.702 28.8575 274.972 27.9549C273.311 27.0523 270.971 26.601 267.952 26.601C262.532 26.601 258.358 27.8905 255.43 30.4693C252.525 32.9836 250.263 36.465 248.644 40.9134L247.588 43.8146C246.415 47.0381 245.829 49.7781 245.831 52.0345C245.925 54.2265 246.836 55.8705 248.564 56.9665C250.292 58.0625 253.008 58.6105 256.713 58.6105C261.036 58.6105 264.323 57.9658 266.576 56.6764C268.829 55.387 270.343 53.6785 271.117 51.551L271.399 50.7773H282.411L282.094 51.6477C280.897 54.9357 278.892 57.8046 276.08 60.2544C273.29 62.6398 269.934 64.5095 266.011 65.8633C262.157 67.2172 257.897 67.8942 253.231 67.8942Z" stroke="url(#paint4_linear_313_38314)" stroke-width="2" mask="url(#path-1-outside-1_313_38314)"/>
<path d="M11.1144 64.7925H0L23.5825 0H39.328L42.2236 35.5875L42.5608 51.0603H43.3841L54.9846 35.5875L83.3741 0H99.1196L75.537 64.7925H64.5255L78.4638 26.4972L82.8176 15.6662H82.0973L73.8328 26.4972L45.8657 60.9243H32.4872L29.478 26.4972L29.3037 15.6662H28.3775L25.0528 26.4972L11.1144 64.7925Z" fill="url(#paint5_linear_313_38314)"/>
<path d="M109.96 65.7595C104.746 65.7595 100.593 64.728 97.5023 62.6649C94.4346 60.5374 92.5522 57.604 91.8549 53.8648C91.1811 50.061 91.7477 45.6771 93.5545 40.7129C95.3613 35.7487 97.9743 31.3969 101.394 27.6577C104.813 23.9184 108.819 21.0173 113.412 18.9542C118.028 16.8267 122.943 15.7629 128.158 15.7629C133.372 15.7629 137.444 16.8267 140.375 18.9542C143.397 21.0173 145.223 23.9184 145.851 27.6577C146.549 31.3969 145.994 35.7487 144.187 40.7129C142.38 45.6771 139.755 50.061 136.313 53.8648C132.962 57.604 129.013 60.5374 124.465 62.6649C120.009 64.728 115.174 65.7595 109.96 65.7595ZM113.339 56.4758C118.691 56.4758 122.887 55.2187 125.929 52.7043C128.995 50.1255 131.513 46.1284 133.484 40.7129C135.455 35.2974 135.835 31.3325 134.623 28.8181C133.412 26.3038 130.13 25.0466 124.779 25.0466C119.359 25.0466 115.128 26.3038 112.086 28.8181C109.044 31.3325 106.537 35.2974 104.566 40.7129C102.595 46.1284 102.204 50.1255 103.392 52.7043C104.603 55.2187 107.919 56.4758 113.339 56.4758Z" fill="url(#paint6_linear_313_38314)"/>
<path d="M192.408 64.7925H181.294L191.466 36.8447C193.015 32.5896 193.272 29.5273 192.237 27.6577C191.226 25.7236 188.353 24.7565 183.619 24.7565C180.601 24.7565 177.978 25.1756 175.752 26.0137C173.549 26.7873 171.639 28.0767 170.022 29.8819C168.428 31.6226 167.079 34.008 165.976 37.0381H164.021L167.213 25.7236H169.683C171.071 23.9829 172.79 22.3711 174.839 20.8883C176.888 19.4055 179.255 18.1806 181.94 17.2135C184.693 16.2465 187.716 15.7629 191.009 15.7629C195.469 15.7629 198.812 16.5688 201.038 18.1806C203.264 19.7923 204.547 22.0165 204.887 24.8532C205.226 27.6899 204.728 30.9457 203.39 34.6205L192.408 64.7925ZM155.875 64.7925H144.76L162.254 16.73H172.442L167.197 31.1391L167.948 31.6226L155.875 64.7925Z" fill="url(#paint7_linear_313_38314)"/>
<path d="M234.184 10.6376H223.172L226.941 0H238.056L234.184 10.6376ZM214.576 64.7925H203.462L221.061 16.4399H232.175L214.576 64.7925Z" fill="url(#paint8_linear_313_38314)"/>
<path d="M247.7 65.7595C242.143 65.7595 237.887 64.728 234.933 62.6649C232.003 60.5374 230.326 57.604 229.903 53.8648C229.504 50.061 230.208 45.6771 232.015 40.7129C233.821 35.7487 236.4 31.3969 239.751 27.6577C243.17 23.9184 247.107 21.0173 251.563 18.9542C256.042 16.8267 260.82 15.7629 265.897 15.7629C270.494 15.7629 274.237 16.6011 277.126 18.2773C280.107 19.889 281.995 22.2422 282.789 25.3368C283.653 28.4313 283.286 32.1706 281.691 36.5546C281.221 37.844 280.695 39.1011 280.112 40.3261C279.621 41.4865 279.166 42.4536 278.748 43.2272H236.348L238.882 36.2644H272.226L270.742 37.2315C272.095 34.2659 272.632 31.8482 272.352 29.9786C272.141 28.109 271.17 26.7229 269.441 25.8203C267.779 24.9177 265.44 24.4664 262.421 24.4664C257.001 24.4664 252.827 25.7558 249.898 28.3346C246.994 30.8489 244.732 34.3303 243.113 38.7788L242.057 41.6799C240.883 44.9034 240.298 47.6434 240.3 49.8999C240.394 52.0919 241.305 53.7358 243.033 54.8318C244.761 55.9278 247.477 56.4758 251.182 56.4758C255.504 56.4758 258.792 55.8311 261.045 54.5417C263.298 53.2523 264.812 51.5439 265.586 49.4163L265.868 48.6427H276.879L276.563 49.513C275.366 52.801 273.361 55.6699 270.548 58.1198C267.759 60.5052 264.403 62.3748 260.48 63.7287C256.625 65.0826 252.365 65.7595 247.7 65.7595Z" fill="url(#paint9_linear_313_38314)"/>
<defs>
<linearGradient id="paint0_linear_313_38314" x1="177.839" y1="126.41" x2="160.616" y2="-14.8385" gradientUnits="userSpaceOnUse">
<stop stop-color="#F2F0FF"/>
<stop offset="1" stop-color="#F2F0FF" stop-opacity="0"/>
</linearGradient>
<linearGradient id="paint1_linear_313_38314" x1="177.839" y1="126.41" x2="160.616" y2="-14.8385" gradientUnits="userSpaceOnUse">
<stop stop-color="#F2F0FF"/>
<stop offset="1" stop-color="#F2F0FF" stop-opacity="0"/>
</linearGradient>
<linearGradient id="paint2_linear_313_38314" x1="177.839" y1="126.41" x2="160.616" y2="-14.8385" gradientUnits="userSpaceOnUse">
<stop stop-color="#F2F0FF"/>
<stop offset="1" stop-color="#F2F0FF" stop-opacity="0"/>
</linearGradient>
<linearGradient id="paint3_linear_313_38314" x1="177.839" y1="126.41" x2="160.616" y2="-14.8385" gradientUnits="userSpaceOnUse">
<stop stop-color="#F2F0FF"/>
<stop offset="1" stop-color="#F2F0FF" stop-opacity="0"/>
</linearGradient>
<linearGradient id="paint4_linear_313_38314" x1="177.839" y1="126.41" x2="160.616" y2="-14.8385" gradientUnits="userSpaceOnUse">
<stop stop-color="#F2F0FF"/>
<stop offset="1" stop-color="#F2F0FF" stop-opacity="0"/>
</linearGradient>
<linearGradient id="paint5_linear_313_38314" x1="141.622" y1="-115.552" x2="214.218" y2="93.3955" gradientUnits="userSpaceOnUse">
<stop stop-color="#F9F9FB" stop-opacity="0"/>
<stop offset="1" stop-color="#F9F9FB"/>
</linearGradient>
<linearGradient id="paint6_linear_313_38314" x1="141.622" y1="-115.552" x2="214.218" y2="93.3955" gradientUnits="userSpaceOnUse">
<stop stop-color="#F9F9FB" stop-opacity="0"/>
<stop offset="1" stop-color="#F9F9FB"/>
</linearGradient>
<linearGradient id="paint7_linear_313_38314" x1="141.622" y1="-115.552" x2="214.218" y2="93.3955" gradientUnits="userSpaceOnUse">
<stop stop-color="#F9F9FB" stop-opacity="0"/>
<stop offset="1" stop-color="#F9F9FB"/>
</linearGradient>
<linearGradient id="paint8_linear_313_38314" x1="141.622" y1="-115.552" x2="214.218" y2="93.3955" gradientUnits="userSpaceOnUse">
<stop stop-color="#F9F9FB" stop-opacity="0"/>
<stop offset="1" stop-color="#F9F9FB"/>
</linearGradient>
<linearGradient id="paint9_linear_313_38314" x1="141.622" y1="-115.552" x2="214.218" y2="93.3955" gradientUnits="userSpaceOnUse">
<stop stop-color="#F9F9FB" stop-opacity="0"/>
<stop offset="1" stop-color="#F9F9FB"/>
</linearGradient>
</defs>
</svg>
