<svg width="264" height="71" viewBox="0 0 264 71" fill="none" xmlns="http://www.w3.org/2000/svg">
<mask id="path-1-outside-1_313_38311" maskUnits="userSpaceOnUse" x="1.06055" y="2.40063" width="263" height="68" fill="black">
<rect fill="white" x="1.06055" y="2.40063" width="263" height="68"/>
<path d="M20.3339 68.1931H5.61754L3.06055 3.40063H15.5128L16.9774 56.4918H17.8007L57.7065 3.40063H70.0559L20.3339 68.1931Z"/>
<path d="M70.5307 69.1601C64.9735 69.1601 60.7179 68.1286 57.764 66.0656C54.8336 63.9381 53.1569 61.0047 52.7341 57.2654C52.3347 53.4617 53.0385 49.0777 54.8453 44.1135C56.6521 39.1493 59.2308 34.7976 62.5814 31.0583C66.0006 27.319 69.9381 24.4179 74.3938 22.3548C78.873 20.2273 83.651 19.1636 88.728 19.1636C93.3247 19.1636 97.0675 20.0017 99.9564 21.6779C102.937 23.2897 104.825 25.6428 105.62 28.7374C106.483 31.832 106.117 35.5712 104.521 39.9552C104.052 41.2446 103.526 42.5018 102.943 43.7267C102.452 44.8872 101.997 45.8542 101.578 46.6278H59.1786L61.7129 39.6651H95.0562L93.5722 40.6321C94.926 37.6665 95.4629 35.2489 95.1829 33.3792C94.9715 31.5096 94.0009 30.1235 92.2712 29.2209C90.6101 28.3183 88.2702 27.867 85.2515 27.867C79.8315 27.867 75.6573 29.1564 72.7291 31.7352C69.8243 34.2496 67.5624 37.731 65.9433 42.1794L64.8874 45.0806C63.7141 48.3041 63.1285 51.044 63.1305 53.3005C63.2246 55.4925 64.1356 57.1365 65.8635 58.2325C67.5914 59.3285 70.3078 59.8765 74.0126 59.8765C78.3349 59.8765 81.6226 59.2318 83.8757 57.9424C86.1288 56.6529 87.6425 54.9445 88.4169 52.817L88.6985 52.0433H99.71L99.3932 52.9137C98.1965 56.2017 96.1918 59.0706 93.3791 61.5204C90.5899 63.9058 87.2337 65.7755 83.3105 67.1293C79.456 68.4832 75.1961 69.1601 70.5307 69.1601Z"/>
<path d="M115.256 68.1931H104.142L121.741 19.8405H131.929L127.036 33.2825L127.786 33.7661L115.256 68.1931ZM126.66 36.8606H124.087L127.502 27.4802H129.663C131.513 25.2238 133.898 23.2897 136.817 21.6779C139.829 20.0017 143.221 19.1636 146.994 19.1636C150.631 19.1636 153.242 19.905 154.829 21.3878C156.485 22.8706 157.347 24.8369 157.416 27.2868C157.485 29.7367 156.968 32.4767 155.865 35.5067L154.704 38.698H143.589L144.293 36.7639C145.466 33.5404 145.705 31.284 145.008 29.9946C144.311 28.7052 142.35 28.0605 139.125 28.0605C135.763 28.0605 133.116 28.7374 131.182 30.0913C129.341 31.3807 127.833 33.6371 126.66 36.8606Z"/>
<path d="M173.964 69.1601C166.486 69.1601 161.33 67.774 158.497 65.0018C155.688 62.1651 155.35 57.8134 157.486 51.9466L157.556 51.7532H168.259L167.625 53.4939C167.015 55.1701 166.854 56.5562 167.141 57.6522C167.52 58.6838 168.474 59.4574 170.001 59.9732C171.621 60.4244 174.043 60.6501 177.267 60.6501C180.012 60.6501 182.14 60.4567 183.653 60.0699C185.258 59.6186 186.442 59.0061 187.203 58.2325C187.965 57.4588 188.557 56.4918 188.98 55.3313C189.684 53.3972 189.456 52.0433 188.297 51.2697C187.161 50.4316 184.858 49.6902 181.388 49.0455L173.819 47.7883C171.011 47.2081 168.663 46.4022 166.774 45.3707C164.978 44.2747 163.802 42.7919 163.248 40.9222C162.785 38.9881 163.082 36.5705 164.138 33.6694C165.71 29.3499 168.796 25.8685 173.394 23.2252C178.016 20.5174 183.654 19.1636 190.309 19.1636C194.357 19.1636 197.736 19.776 200.446 21.001C203.156 22.2259 204.991 24.0633 205.952 26.5132C206.913 28.963 206.724 32.0254 205.387 35.7002L205.07 36.5705H194.47L194.893 35.41C195.456 33.8628 195.662 32.5411 195.512 31.4451C195.386 30.2847 194.685 29.3821 193.411 28.7374C192.136 28.0927 189.955 27.7703 186.868 27.7703C182.82 27.7703 179.968 28.2539 178.312 29.2209C176.657 30.188 175.489 31.6063 174.808 33.4759C174.128 35.3456 174.23 36.6672 175.115 37.4409C176.092 38.15 178.235 38.8592 181.544 39.5684L189.729 41.1157C192.811 41.6959 195.238 42.5662 197.011 43.7267C198.784 44.8872 199.879 46.4022 200.297 48.2718C200.782 50.1415 200.556 52.3657 199.617 54.9445C197.975 59.4574 194.878 62.971 190.327 65.4854C185.867 67.9352 180.413 69.1601 173.964 69.1601Z"/>
<path d="M227.181 69.1601C221.624 69.1601 217.368 68.1286 214.415 66.0656C211.484 63.9381 209.807 61.0047 209.385 57.2654C208.985 53.4617 209.689 49.0777 211.496 44.1135C213.303 39.1493 215.881 34.7976 219.232 31.0583C222.651 27.319 226.589 24.4179 231.044 22.3548C235.524 20.2273 240.302 19.1636 245.379 19.1636C249.975 19.1636 253.718 20.0017 256.607 21.6779C259.588 23.2897 261.476 25.6428 262.27 28.7374C263.134 31.832 262.768 35.5712 261.172 39.9552C260.703 41.2446 260.176 42.5018 259.593 43.7267C259.102 44.8872 258.648 45.8542 258.229 46.6278H215.829L218.363 39.6651H251.707L250.223 40.6321C251.577 37.6665 252.113 35.2489 251.833 33.3792C251.622 31.5096 250.651 30.1235 248.922 29.2209C247.261 28.3183 244.921 27.867 241.902 27.867C236.482 27.867 232.308 29.1564 229.38 31.7352C226.475 34.2496 224.213 37.731 222.594 42.1794L221.538 45.0806C220.365 48.3041 219.779 51.044 219.781 53.3005C219.875 55.4925 220.786 57.1365 222.514 58.2325C224.242 59.3285 226.958 59.8765 230.663 59.8765C234.985 59.8765 238.273 59.2318 240.526 57.9424C242.779 56.6529 244.293 54.9445 245.067 52.817L245.349 52.0433H256.361L256.044 52.9137C254.847 56.2017 252.842 59.0706 250.03 61.5204C247.24 63.9058 243.884 65.7755 239.961 67.1293C236.107 68.4832 231.847 69.1601 227.181 69.1601Z"/>
</mask>
<path d="M20.3339 68.1931H5.61754L3.06055 3.40063H15.5128L16.9774 56.4918H17.8007L57.7065 3.40063H70.0559L20.3339 68.1931Z" stroke="url(#paint0_linear_313_38311)" stroke-width="2" mask="url(#path-1-outside-1_313_38311)"/>
<path d="M70.5307 69.1601C64.9735 69.1601 60.7179 68.1286 57.764 66.0656C54.8336 63.9381 53.1569 61.0047 52.7341 57.2654C52.3347 53.4617 53.0385 49.0777 54.8453 44.1135C56.6521 39.1493 59.2308 34.7976 62.5814 31.0583C66.0006 27.319 69.9381 24.4179 74.3938 22.3548C78.873 20.2273 83.651 19.1636 88.728 19.1636C93.3247 19.1636 97.0675 20.0017 99.9564 21.6779C102.937 23.2897 104.825 25.6428 105.62 28.7374C106.483 31.832 106.117 35.5712 104.521 39.9552C104.052 41.2446 103.526 42.5018 102.943 43.7267C102.452 44.8872 101.997 45.8542 101.578 46.6278H59.1786L61.7129 39.6651H95.0562L93.5722 40.6321C94.926 37.6665 95.4629 35.2489 95.1829 33.3792C94.9715 31.5096 94.0009 30.1235 92.2712 29.2209C90.6101 28.3183 88.2702 27.867 85.2515 27.867C79.8315 27.867 75.6573 29.1564 72.7291 31.7352C69.8243 34.2496 67.5624 37.731 65.9433 42.1794L64.8874 45.0806C63.7141 48.3041 63.1285 51.044 63.1305 53.3005C63.2246 55.4925 64.1356 57.1365 65.8635 58.2325C67.5914 59.3285 70.3078 59.8765 74.0126 59.8765C78.3349 59.8765 81.6226 59.2318 83.8757 57.9424C86.1288 56.6529 87.6425 54.9445 88.4169 52.817L88.6985 52.0433H99.71L99.3932 52.9137C98.1965 56.2017 96.1918 59.0706 93.3791 61.5204C90.5899 63.9058 87.2337 65.7755 83.3105 67.1293C79.456 68.4832 75.1961 69.1601 70.5307 69.1601Z" stroke="url(#paint1_linear_313_38311)" stroke-width="2" mask="url(#path-1-outside-1_313_38311)"/>
<path d="M115.256 68.1931H104.142L121.741 19.8405H131.929L127.036 33.2825L127.786 33.7661L115.256 68.1931ZM126.66 36.8606H124.087L127.502 27.4802H129.663C131.513 25.2238 133.898 23.2897 136.817 21.6779C139.829 20.0017 143.221 19.1636 146.994 19.1636C150.631 19.1636 153.242 19.905 154.829 21.3878C156.485 22.8706 157.347 24.8369 157.416 27.2868C157.485 29.7367 156.968 32.4767 155.865 35.5067L154.704 38.698H143.589L144.293 36.7639C145.466 33.5404 145.705 31.284 145.008 29.9946C144.311 28.7052 142.35 28.0605 139.125 28.0605C135.763 28.0605 133.116 28.7374 131.182 30.0913C129.341 31.3807 127.833 33.6371 126.66 36.8606Z" stroke="url(#paint2_linear_313_38311)" stroke-width="2" mask="url(#path-1-outside-1_313_38311)"/>
<path d="M173.964 69.1601C166.486 69.1601 161.33 67.774 158.497 65.0018C155.688 62.1651 155.35 57.8134 157.486 51.9466L157.556 51.7532H168.259L167.625 53.4939C167.015 55.1701 166.854 56.5562 167.141 57.6522C167.52 58.6838 168.474 59.4574 170.001 59.9732C171.621 60.4244 174.043 60.6501 177.267 60.6501C180.012 60.6501 182.14 60.4567 183.653 60.0699C185.258 59.6186 186.442 59.0061 187.203 58.2325C187.965 57.4588 188.557 56.4918 188.98 55.3313C189.684 53.3972 189.456 52.0433 188.297 51.2697C187.161 50.4316 184.858 49.6902 181.388 49.0455L173.819 47.7883C171.011 47.2081 168.663 46.4022 166.774 45.3707C164.978 44.2747 163.802 42.7919 163.248 40.9222C162.785 38.9881 163.082 36.5705 164.138 33.6694C165.71 29.3499 168.796 25.8685 173.394 23.2252C178.016 20.5174 183.654 19.1636 190.309 19.1636C194.357 19.1636 197.736 19.776 200.446 21.001C203.156 22.2259 204.991 24.0633 205.952 26.5132C206.913 28.963 206.724 32.0254 205.387 35.7002L205.07 36.5705H194.47L194.893 35.41C195.456 33.8628 195.662 32.5411 195.512 31.4451C195.386 30.2847 194.685 29.3821 193.411 28.7374C192.136 28.0927 189.955 27.7703 186.868 27.7703C182.82 27.7703 179.968 28.2539 178.312 29.2209C176.657 30.188 175.489 31.6063 174.808 33.4759C174.128 35.3456 174.23 36.6672 175.115 37.4409C176.092 38.15 178.235 38.8592 181.544 39.5684L189.729 41.1157C192.811 41.6959 195.238 42.5662 197.011 43.7267C198.784 44.8872 199.879 46.4022 200.297 48.2718C200.782 50.1415 200.556 52.3657 199.617 54.9445C197.975 59.4574 194.878 62.971 190.327 65.4854C185.867 67.9352 180.413 69.1601 173.964 69.1601Z" stroke="url(#paint3_linear_313_38311)" stroke-width="2" mask="url(#path-1-outside-1_313_38311)"/>
<path d="M227.181 69.1601C221.624 69.1601 217.368 68.1286 214.415 66.0656C211.484 63.9381 209.807 61.0047 209.385 57.2654C208.985 53.4617 209.689 49.0777 211.496 44.1135C213.303 39.1493 215.881 34.7976 219.232 31.0583C222.651 27.319 226.589 24.4179 231.044 22.3548C235.524 20.2273 240.302 19.1636 245.379 19.1636C249.975 19.1636 253.718 20.0017 256.607 21.6779C259.588 23.2897 261.476 25.6428 262.27 28.7374C263.134 31.832 262.768 35.5712 261.172 39.9552C260.703 41.2446 260.176 42.5018 259.593 43.7267C259.102 44.8872 258.648 45.8542 258.229 46.6278H215.829L218.363 39.6651H251.707L250.223 40.6321C251.577 37.6665 252.113 35.2489 251.833 33.3792C251.622 31.5096 250.651 30.1235 248.922 29.2209C247.261 28.3183 244.921 27.867 241.902 27.867C236.482 27.867 232.308 29.1564 229.38 31.7352C226.475 34.2496 224.213 37.731 222.594 42.1794L221.538 45.0806C220.365 48.3041 219.779 51.044 219.781 53.3005C219.875 55.4925 220.786 57.1365 222.514 58.2325C224.242 59.3285 226.958 59.8765 230.663 59.8765C234.985 59.8765 238.273 59.2318 240.526 57.9424C242.779 56.6529 244.293 54.9445 245.067 52.817L245.349 52.0433H256.361L256.044 52.9137C254.847 56.2017 252.842 59.0706 250.03 61.5204C247.24 63.9058 243.884 65.7755 239.961 67.1293C236.107 68.4832 231.847 69.1601 227.181 69.1601Z" stroke="url(#paint4_linear_313_38311)" stroke-width="2" mask="url(#path-1-outside-1_313_38311)"/>
<path d="M17.2733 64.7925H2.55699L0 0H12.4523L13.9168 53.0911H14.7401L54.646 0H66.9954L17.2733 64.7925Z" fill="#F9F9FB"/>
<path d="M67.4702 65.7595C61.913 65.7595 57.6574 64.728 54.7035 62.6649C51.773 60.5374 50.0964 57.604 49.6735 53.8648C49.2742 50.061 49.9779 45.6771 51.7847 40.7129C53.5916 35.7487 56.1703 31.3969 59.5209 27.6577C62.9401 23.9184 66.8775 21.0173 71.3332 18.9542C75.8124 16.8267 80.5905 15.7629 85.6674 15.7629C90.2642 15.7629 94.007 16.6011 96.8959 18.2773C99.8768 19.889 101.765 22.2422 102.559 25.3368C103.423 28.4313 103.056 32.1706 101.461 36.5546C100.992 37.844 100.465 39.1011 99.8823 40.3261C99.3913 41.4865 98.9364 42.4536 98.5176 43.2272H56.1181L58.6523 36.2644H91.9957L90.5116 37.2315C91.8655 34.2659 92.4024 31.8482 92.1224 29.9786C91.911 28.109 90.9404 26.7229 89.2107 25.8203C87.5496 24.9177 85.2097 24.4664 82.1909 24.4664C76.7709 24.4664 72.5968 25.7558 69.6686 28.3346C66.7638 30.8489 64.5019 34.3303 62.8828 38.7788L61.8268 41.6799C60.6536 44.9034 60.0679 47.6434 60.07 49.8999C60.164 52.0919 61.075 53.7358 62.803 54.8318C64.5309 55.9278 67.2473 56.4758 70.9521 56.4758C75.2744 56.4758 78.5621 55.8311 80.8152 54.5417C83.0683 53.2523 84.582 51.5439 85.3563 49.4163L85.6379 48.6427H96.6495L96.3327 49.513C95.136 52.801 93.1312 55.6699 90.3186 58.1198C87.5293 60.5052 84.1731 62.3748 80.25 63.7287C76.3954 65.0826 72.1355 65.7595 67.4702 65.7595Z" fill="#F9F9FB"/>
<path d="M112.196 64.7925H101.081L118.68 16.4399H128.868L123.976 29.8819L124.726 30.3654L112.196 64.7925ZM123.6 33.46H121.027L124.441 24.0796H126.602C128.453 21.8231 130.837 19.889 133.757 18.2773C136.768 16.6011 140.16 15.7629 143.934 15.7629C147.57 15.7629 150.182 16.5043 151.769 17.9872C153.425 19.47 154.287 21.4363 154.356 23.8862C154.425 26.336 153.908 29.076 152.805 32.1061L151.643 35.2974H140.529L141.233 33.3633C142.406 30.1398 142.644 27.8833 141.947 26.5939C141.25 25.3045 139.289 24.6598 136.065 24.6598C132.703 24.6598 130.055 25.3368 128.122 26.6906C126.28 27.98 124.773 30.2365 123.6 33.46Z" fill="#F9F9FB"/>
<path d="M170.903 65.7595C163.425 65.7595 158.27 64.3734 155.437 61.6012C152.627 58.7645 152.29 54.4128 154.425 48.546L154.496 48.3526H165.198L164.565 50.0933C163.955 51.7695 163.793 53.1556 164.08 54.2516C164.46 55.2831 165.413 56.0568 166.941 56.5725C168.56 57.0238 170.982 57.2495 174.207 57.2495C176.951 57.2495 179.08 57.056 180.593 56.6692C182.198 56.2179 183.381 55.6055 184.143 54.8318C184.905 54.0582 185.497 53.0911 185.919 51.9307C186.623 49.9966 186.396 48.6427 185.236 47.8691C184.101 47.0309 181.798 46.2895 178.328 45.6448L170.758 44.3877C167.95 43.8074 165.602 43.0016 163.714 41.97C161.917 40.874 160.742 39.3912 160.187 37.5216C159.725 35.5875 160.022 33.1699 161.078 30.2687C162.65 25.9492 165.735 22.4678 170.333 19.8246C174.955 17.1168 180.593 15.7629 187.248 15.7629C191.296 15.7629 194.675 16.3754 197.385 17.6003C200.095 18.8253 201.931 20.6627 202.892 23.1125C203.852 25.5624 203.664 28.6247 202.326 32.2995L202.01 33.1699H191.41L191.832 32.0094C192.395 30.4621 192.602 29.1405 192.452 28.0445C192.325 26.884 191.625 25.9815 190.35 25.3368C189.075 24.6921 186.894 24.3697 183.807 24.3697C179.759 24.3697 176.907 24.8532 175.252 25.8203C173.596 26.7873 172.428 28.2057 171.748 30.0753C171.067 31.9449 171.17 33.2666 172.054 34.0402C173.031 34.7494 175.174 35.4586 178.484 36.1677L186.668 37.715C189.75 38.2952 192.178 39.1656 193.951 40.3261C195.724 41.4865 196.819 43.0016 197.236 44.8712C197.722 46.7408 197.496 48.965 196.557 51.5439C194.914 56.0568 191.817 59.5704 187.266 62.0847C182.807 64.5346 177.353 65.7595 170.903 65.7595Z" fill="#F9F9FB"/>
<path d="M224.121 65.7595C218.564 65.7595 214.308 64.728 211.354 62.6649C208.424 60.5374 206.747 57.604 206.324 53.8648C205.925 50.061 206.628 45.6771 208.435 40.7129C210.242 35.7487 212.821 31.3969 216.171 27.6577C219.591 23.9184 223.528 21.0173 227.984 18.9542C232.463 16.8267 237.241 15.7629 242.318 15.7629C246.915 15.7629 250.658 16.6011 253.546 18.2773C256.527 19.889 258.415 22.2422 259.21 25.3368C260.073 28.4313 259.707 32.1706 258.111 36.5546C257.642 37.844 257.116 39.1011 256.533 40.3261C256.042 41.4865 255.587 42.4536 255.168 43.2272H212.769L215.303 36.2644H248.646L247.162 37.2315C248.516 34.2659 249.053 31.8482 248.773 29.9786C248.562 28.109 247.591 26.7229 245.861 25.8203C244.2 24.9177 241.86 24.4664 238.841 24.4664C233.421 24.4664 229.247 25.7558 226.319 28.3346C223.414 30.8489 221.152 34.3303 219.533 38.7788L218.477 41.6799C217.304 44.9034 216.719 47.6434 216.721 49.8999C216.815 52.0919 217.726 53.7358 219.454 54.8318C221.181 55.9278 223.898 56.4758 227.603 56.4758C231.925 56.4758 235.213 55.8311 237.466 54.5417C239.719 53.2523 241.233 51.5439 242.007 49.4163L242.288 48.6427H253.3L252.983 49.513C251.787 52.801 249.782 55.6699 246.969 58.1198C244.18 60.5052 240.824 62.3748 236.901 63.7287C233.046 65.0826 228.786 65.7595 224.121 65.7595Z" fill="#F9F9FB"/>
<defs>
<linearGradient id="paint0_linear_313_38311" x1="109.356" y1="122.067" x2="154.559" y2="-0.830772" gradientUnits="userSpaceOnUse">
<stop stop-color="#F2F0FF"/>
<stop offset="1" stop-color="#F2F0FF" stop-opacity="0"/>
</linearGradient>
<linearGradient id="paint1_linear_313_38311" x1="109.356" y1="122.067" x2="154.559" y2="-0.830772" gradientUnits="userSpaceOnUse">
<stop stop-color="#F2F0FF"/>
<stop offset="1" stop-color="#F2F0FF" stop-opacity="0"/>
</linearGradient>
<linearGradient id="paint2_linear_313_38311" x1="109.356" y1="122.067" x2="154.559" y2="-0.830772" gradientUnits="userSpaceOnUse">
<stop stop-color="#F2F0FF"/>
<stop offset="1" stop-color="#F2F0FF" stop-opacity="0"/>
</linearGradient>
<linearGradient id="paint3_linear_313_38311" x1="109.356" y1="122.067" x2="154.559" y2="-0.830772" gradientUnits="userSpaceOnUse">
<stop stop-color="#F2F0FF"/>
<stop offset="1" stop-color="#F2F0FF" stop-opacity="0"/>
</linearGradient>
<linearGradient id="paint4_linear_313_38311" x1="109.356" y1="122.067" x2="154.559" y2="-0.830772" gradientUnits="userSpaceOnUse">
<stop stop-color="#F2F0FF"/>
<stop offset="1" stop-color="#F2F0FF" stop-opacity="0"/>
</linearGradient>
</defs>
</svg>
