<svg width="184" height="33" viewBox="0 0 184 33" fill="none" xmlns="http://www.w3.org/2000/svg">
<g clip-path="url(#clip0_71_51271)">
<path d="M20.9836 15.7764V16.7837L20.1794 16.28L20.9836 15.7764Z" fill="#8872FD"/>
<path d="M20.7165 8.36623L8.34504 0.636147C7.86922 0.341191 7.25704 0.680669 7.25704 1.23719V6.66884C7.25704 7.03893 7.15965 7.40623 6.95374 7.71232C6.76174 7.99615 6.50017 8.21041 6.20244 8.34397C5.97704 8.44415 5.72939 8.49702 5.47896 8.49702H0.712348C0.32 8.49702 0 8.81702 0 9.20936V22.0288C0 22.4212 0.32 22.7412 0.712348 22.7412H6.2887C6.68104 22.7412 7.00104 22.424 7.00104 22.0288C6.99826 19.121 6.99548 9.66571 6.99548 9.66571C6.99548 9.4431 7.07896 9.22884 7.22644 9.06467C7.40452 8.86989 7.64661 8.76693 7.89704 8.76693C8.06122 8.76693 8.22539 8.81145 8.37565 8.90328L19.2167 15.6789C19.6619 15.9572 19.6619 16.6083 19.2167 16.8866L7.52417 24.1937C7.35722 24.2967 7.25704 24.4803 7.25704 24.6751V31.3172C7.25704 31.8737 7.872 32.216 8.34504 31.9182L20.7165 24.1881C20.8807 24.0852 20.9837 23.9015 20.9837 23.7068V15.7763V8.85041C20.9837 8.65284 20.8835 8.47197 20.7165 8.36623Z" fill="#8872FD"/>
<path d="M23.1011 24.1913L35.4726 31.9214C35.9484 32.2163 36.5606 31.8768 36.5606 31.3203V25.8887C36.5606 25.5186 36.658 25.1513 36.8639 24.8452C37.0559 24.5614 37.3175 24.3471 37.6152 24.2135C37.8406 24.1134 38.0882 24.0605 38.3387 24.0605H43.1025C43.4949 24.0605 43.8149 23.7405 43.8149 23.3481V10.5315C43.8149 10.1391 43.4949 9.81911 43.1025 9.81911H37.5262C37.1338 9.81911 36.8138 10.1363 36.8138 10.5315C36.8166 13.4393 36.8194 22.8946 36.8194 22.8946C36.8194 23.1172 36.7359 23.3315 36.5884 23.4956C36.4103 23.6904 36.1682 23.7934 35.9178 23.7934C35.7536 23.7934 35.5895 23.7488 35.4392 23.657L24.6037 16.8814C24.1585 16.6031 24.1585 15.952 24.6037 15.6737L36.2935 8.36102C36.4604 8.25806 36.5606 8.07441 36.5606 7.87963V1.24032C36.5606 0.683802 35.9456 0.341541 35.4726 0.63928L23.1011 8.36658C22.9369 8.46954 22.834 8.65319 22.834 8.84798V16.7812V23.7071C22.834 23.9047 22.9342 24.0883 23.1011 24.1913Z" fill="#8872FD"/>
<path d="M50.8215 24.8086V7.77344H54.7116L58.6017 17.1286L60.1015 21.1967H60.3047L61.7794 17.1286L65.5944 7.77344H69.4845V24.8086H66.7631V14.7383L66.8661 11.8917H66.688L65.6194 14.7383L61.8045 23.7901H58.4988L54.6587 14.7383L53.6431 11.8917H53.4149L53.568 14.7383V24.8058H50.8215V24.8086Z" fill="#1A1A21"/>
<path d="M71.4907 18.4756C71.4907 14.5605 73.906 11.917 77.7961 11.917C81.6612 11.917 83.9985 14.5605 83.9985 18.4756C83.9985 22.4158 81.6584 25.062 77.7961 25.062C73.906 25.062 71.4907 22.4186 71.4907 18.4756ZM81.3551 18.4756C81.3551 15.654 80.4396 14.3573 77.7961 14.3573C75.1276 14.3573 74.1871 15.654 74.1871 18.4756C74.1871 21.3222 75.1276 22.6189 77.7961 22.6189C80.4396 22.6217 81.3551 21.325 81.3551 18.4756Z" fill="#1A1A21"/>
<path d="M86.0605 24.8088V12.1702H88.5788V14.5354H88.6818C89.2661 13.1886 90.6129 11.917 93.0811 11.917C96.3618 11.917 97.8365 14.0012 97.8365 16.8756V24.8088H95.0901V17.485C95.0901 15.2227 94.3778 14.2822 92.0654 14.2822C89.8282 14.2822 88.8098 15.1476 88.8098 17.51V24.806H86.0605V24.8088Z" fill="#1A1A21"/>
<path d="M100.296 10.57L100.271 7.77344H103.018V10.57H100.296ZM100.296 24.8086V12.0948H103.043V24.8058H100.296V24.8086Z" fill="#1A1A21"/>
<path d="M104.927 18.4756C104.927 14.5605 107.267 11.917 111.029 11.917C114.435 11.917 116.825 13.9511 116.825 17.4099C116.825 18.0721 116.75 18.7566 116.672 19.1379H107.492C107.595 21.4502 108.433 22.6217 111.076 22.6217C113.185 22.6217 114.001 21.9093 114.001 20.7657V20.5626H116.722V20.7907C116.722 23.3841 114.46 25.062 111.051 25.062C106.883 25.062 104.927 22.4186 104.927 18.4756ZM107.517 17.3069H114.204C114.307 15.1448 113.135 14.2293 110.976 14.2293C108.586 14.2321 107.67 15.3507 107.517 17.3069Z" fill="#1A1A21"/>
<path d="M123.743 24.8086L117.284 7.77344H120.362L125.498 21.756H125.702L130.785 7.77344H133.835L127.377 24.8086H123.743Z" fill="#1A1A21"/>
<path d="M133.482 18.4756C133.482 14.5605 135.822 11.917 139.584 11.917C142.99 11.917 145.38 13.9511 145.38 17.4099C145.38 18.0721 145.305 18.7566 145.227 19.1379H136.05C136.153 21.4502 136.991 22.6217 139.634 22.6217C141.743 22.6217 142.559 21.9093 142.559 20.7657V20.5626H145.28V20.7907C145.28 23.3841 143.018 25.062 139.609 25.062C135.438 25.062 133.482 22.4186 133.482 18.4756ZM136.075 17.3069H142.762C142.865 15.1448 141.693 14.2293 139.534 14.2293C137.141 14.2321 136.225 15.3507 136.075 17.3069Z" fill="#1A1A21"/>
<path d="M147.567 24.8088V12.0951H150.083V14.1041H150.211C150.72 12.9354 151.889 11.917 153.745 11.917C156.388 11.917 157.407 13.8481 157.407 16.2133V17.0509H154.66V16.5417C154.66 14.8638 154.176 14.2544 152.576 14.2544C150.923 14.2544 150.314 14.8888 150.314 16.5667V24.8033H147.567V24.8088Z" fill="#1A1A21"/>
<path d="M159.032 20.5374V20.4873H161.675V20.9436C161.675 22.3155 162.285 22.8247 164.7 22.8247C166.734 22.8247 167.115 22.3683 167.115 21.425C167.115 20.4094 166.506 20.1033 164.65 19.7722L162.691 19.441C160.429 19.0348 159.004 18.0163 159.004 15.729C159.004 13.4417 160.885 11.9141 164.191 11.9141C167.165 11.9141 169.403 13.3888 169.403 16.2605V16.4887H166.784V16.1826C166.784 15.0139 166.378 14.1735 164.116 14.1735C162.107 14.1735 161.622 14.7078 161.622 15.6734C161.622 16.6389 162.081 16.92 163.86 17.2761L165.994 17.6824C168.434 18.1666 169.706 19.2601 169.706 21.3443C169.706 23.6845 167.85 25.0563 164.647 25.0563C160.966 25.0619 159.032 23.6122 159.032 20.5374Z" fill="#1A1A21"/>
<path d="M171.414 18.4756C171.414 14.5605 173.754 11.917 177.517 11.917C180.922 11.917 183.313 13.9511 183.313 17.4099C183.313 18.0721 183.238 18.7566 183.16 19.1379H173.983C174.086 21.4502 174.923 22.6217 177.567 22.6217C179.676 22.6217 180.491 21.9093 180.491 20.7657V20.5626H183.213V20.7907C183.213 23.3841 180.95 25.062 177.542 25.062C173.373 25.062 171.414 22.4186 171.414 18.4756ZM174.008 17.3069H180.694C180.797 15.1448 179.626 14.2293 177.466 14.2293C175.076 14.2321 174.161 15.3507 174.008 17.3069Z" fill="#1A1A21"/>
</g>
<defs>
<clipPath id="clip0_71_51271">
<rect width="183.374" height="32" fill="white" transform="translate(0 0.249023)"/>
</clipPath>
</defs>
</svg>
