<svg width="20" height="21" viewBox="0 0 20 21" fill="none" xmlns="http://www.w3.org/2000/svg">
<path d="M17.5 12.1295V16.5045C17.5 16.836 17.3683 17.154 17.1339 17.3884C16.8995 17.6228 16.5815 17.7545 16.25 17.7545H3.75C3.41848 17.7545 3.10054 17.6228 2.86612 17.3884C2.6317 17.154 2.5 16.836 2.5 16.5045V12.1295C2.5 11.9638 2.56585 11.8048 2.68306 11.6876C2.80027 11.5704 2.95924 11.5045 3.125 11.5045C3.29076 11.5045 3.44973 11.5704 3.56694 11.6876C3.68415 11.8048 3.75 11.9638 3.75 12.1295V16.5045H16.25V12.1295C16.25 11.9638 16.3158 11.8048 16.4331 11.6876C16.5503 11.5704 16.7092 11.5045 16.875 11.5045C17.0408 11.5045 17.1997 11.5704 17.3169 11.6876C17.4342 11.8048 17.5 11.9638 17.5 12.1295ZM9.55781 12.5717C9.61586 12.6298 9.68479 12.6759 9.76066 12.7074C9.83654 12.7388 9.91787 12.755 10 12.755C10.0821 12.755 10.1635 12.7388 10.2393 12.7074C10.3152 12.6759 10.3841 12.6298 10.4422 12.5717L13.5672 9.4467C13.6253 9.38864 13.6713 9.3197 13.7027 9.24383C13.7342 9.16796 13.7503 9.08664 13.7503 9.00452C13.7503 8.92239 13.7342 8.84108 13.7027 8.76521C13.6713 8.68934 13.6253 8.6204 13.5672 8.56233C13.5091 8.50426 13.4402 8.4582 13.3643 8.42677C13.2884 8.39534 13.2071 8.37917 13.125 8.37917C13.0429 8.37917 12.9616 8.39534 12.8857 8.42677C12.8098 8.4582 12.7409 8.50426 12.6828 8.56233L10.625 10.6209V3.37952C10.625 3.21376 10.5592 3.05479 10.4419 2.93757C10.3247 2.82036 10.1658 2.75452 10 2.75452C9.83424 2.75452 9.67527 2.82036 9.55806 2.93757C9.44085 3.05479 9.375 3.21376 9.375 3.37952V10.6209L7.31719 8.56233C7.19991 8.44505 7.04085 8.37917 6.875 8.37917C6.70915 8.37917 6.55009 8.44505 6.43281 8.56233C6.31554 8.6796 6.24965 8.83866 6.24965 9.00452C6.24965 9.17037 6.31554 9.32943 6.43281 9.4467L9.55781 12.5717Z" fill="black"/>
</svg>
