<svg width="20" height="21" viewBox="0 0 20 21" fill="none" xmlns="http://www.w3.org/2000/svg">
<path d="M15.625 10.2545C15.625 10.4203 15.5592 10.5792 15.4419 10.6965C15.3247 10.8137 15.1658 10.8795 15 10.8795H5C4.83424 10.8795 4.67527 10.8137 4.55806 10.6965C4.44085 10.5792 4.375 10.4203 4.375 10.2545C4.375 10.0888 4.44085 9.92979 4.55806 9.81257C4.67527 9.69536 4.83424 9.62952 5 9.62952H15C15.1658 9.62952 15.3247 9.69536 15.4419 9.81257C15.5592 9.92979 15.625 10.0888 15.625 10.2545ZM18.125 5.87952H1.875C1.70924 5.87952 1.55027 5.94536 1.43306 6.06257C1.31585 6.17979 1.25 6.33876 1.25 6.50452C1.25 6.67028 1.31585 6.82925 1.43306 6.94646C1.55027 7.06367 1.70924 7.12952 1.875 7.12952H18.125C18.2908 7.12952 18.4497 7.06367 18.5669 6.94646C18.6842 6.82925 18.75 6.67028 18.75 6.50452C18.75 6.33876 18.6842 6.17979 18.5669 6.06257C18.4497 5.94536 18.2908 5.87952 18.125 5.87952ZM11.875 13.3795H8.125C7.95924 13.3795 7.80027 13.4454 7.68306 13.5626C7.56585 13.6798 7.5 13.8388 7.5 14.0045C7.5 14.1703 7.56585 14.3292 7.68306 14.4465C7.80027 14.5637 7.95924 14.6295 8.125 14.6295H11.875C12.0408 14.6295 12.1997 14.5637 12.3169 14.4465C12.4342 14.3292 12.5 14.1703 12.5 14.0045C12.5 13.8388 12.4342 13.6798 12.3169 13.5626C12.1997 13.4454 12.0408 13.3795 11.875 13.3795Z" fill="black"/>
</svg>
