<svg width="30" height="22" viewBox="0 0 30 22" fill="none" xmlns="http://www.w3.org/2000/svg">
<path d="M14.3977 10.6729V11.3294L13.8735 11.0011L14.3977 10.6729Z" fill="#BBC0CA"/>
<path d="M14.2239 5.84346L6.16065 0.805289C5.85053 0.613048 5.45154 0.834306 5.45154 1.19703V4.73716C5.45154 4.97837 5.38806 5.21777 5.25386 5.41726C5.12872 5.60225 4.95824 5.7419 4.76418 5.82895C4.61728 5.89424 4.45587 5.9287 4.29265 5.9287H1.18596C0.930243 5.9287 0.72168 6.13726 0.72168 6.39298L0.72168 14.7482C0.72168 15.0039 0.930243 15.2125 1.18596 15.2125H4.82041C5.07612 15.2125 5.28469 15.0057 5.28469 14.7482C5.28287 12.853 5.28106 6.69041 5.28106 6.69041C5.28106 6.54532 5.33547 6.40567 5.43159 6.29867C5.54766 6.17172 5.70544 6.10462 5.86866 6.10462C5.97567 6.10462 6.08267 6.13363 6.1806 6.19348L13.2464 10.6096C13.5365 10.7909 13.5365 11.2153 13.2464 11.3967L5.62564 16.1592C5.51683 16.2263 5.45154 16.346 5.45154 16.4729V20.802C5.45154 21.1647 5.85234 21.3878 6.16065 21.1937L14.2239 16.1556C14.3309 16.0885 14.398 15.9688 14.398 15.8418V10.6731V6.15902C14.398 6.03026 14.3327 5.91238 14.2239 5.84346Z" fill="#BBC0CA"/>
<path d="M15.7781 16.1573L23.8414 21.1955C24.1515 21.3877 24.5505 21.1665 24.5505 20.8037V17.2636C24.5505 17.0224 24.6139 16.783 24.7482 16.5835C24.8733 16.3985 25.0438 16.2589 25.2378 16.1718C25.3847 16.1065 25.5461 16.0721 25.7094 16.0721H28.8142C29.07 16.0721 29.2785 15.8635 29.2785 15.6078V7.25437C29.2785 6.99865 29.07 6.79009 28.8142 6.79009H25.1798C24.9241 6.79009 24.7155 6.99684 24.7155 7.25437C24.7173 9.14958 24.7191 15.3122 24.7191 15.3122C24.7191 15.4573 24.6647 15.5969 24.5686 15.7039C24.4525 15.8309 24.2948 15.898 24.1315 15.898C24.0245 15.898 23.9175 15.869 23.8196 15.8091L16.7575 11.393C16.4673 11.2116 16.4673 10.7873 16.7575 10.6059L24.3764 5.83976C24.4852 5.77266 24.5505 5.65296 24.5505 5.52601V1.19877C24.5505 0.836052 24.1497 0.61298 23.8414 0.807034L15.7781 5.84339C15.6711 5.91049 15.604 6.03019 15.604 6.15714V11.3277V15.8417C15.604 15.9705 15.6693 16.0902 15.7781 16.1573Z" fill="#BBC0CA"/>
</svg>
