<svg width="140" height="141" viewBox="0 0 140 141" fill="none" xmlns="http://www.w3.org/2000/svg">
<rect y="0.760742" width="140" height="140" rx="70" fill="url(#paint0_linear_210_39663)"/>
<mask id="mask0_210_39663" style="mask-type:alpha" maskUnits="userSpaceOnUse" x="30" y="30" width="80" height="81">
<rect x="30" y="30.7607" width="80" height="80" fill="#D9D9D9"/>
</mask>
<g mask="url(#mask0_210_39663)">
<g filter="url(#filter0_dd_210_39663)">
<path d="M61.8327 93.4268L40.166 71.7601L47.666 64.2601L61.8327 78.4268L92.3327 47.9268L99.8327 55.4268L61.8327 93.4268Z" fill="url(#paint1_linear_210_39663)"/>
</g>
</g>
<path opacity="0.32" d="M71.2945 16.7853L71.7324 20.6149L74.83 22.909L71.0004 23.347L68.7063 26.4446L68.2683 22.6149L65.1707 20.3208L69.0004 19.8829L71.2945 16.7853Z" fill="#14613D"/>
<path opacity="0.24" d="M104.747 35.8848L106.557 37.3237L108.845 36.9828L107.406 38.7934L107.747 41.0809L105.936 39.642L103.648 39.9828L105.087 38.1723L104.747 35.8848Z" fill="#14613D"/>
<path opacity="0.24" d="M104.403 89.52L106.213 90.959L108.501 90.6181L107.062 92.4287L107.403 94.7162L105.592 93.2772L103.305 93.6181L104.744 91.8075L104.403 89.52Z" fill="#14613D"/>
<path opacity="0.16" d="M46.9817 112.762L49.3958 114.68L52.4458 114.226L50.5272 116.64L50.9817 119.69L48.5676 117.771L45.5176 118.226L47.4362 115.812L46.9817 112.762Z" fill="#14613D"/>
<path opacity="0.32" d="M21.5028 44.3564L23.6459 46.0596L26.3534 45.6561L24.6502 47.7991L25.0537 50.5066L22.9106 48.8035L20.2031 49.2069L21.9063 47.0639L21.5028 44.3564Z" fill="#14613D"/>
<defs>
<filter id="filter0_dd_210_39663" x="16.166" y="31.9268" width="107.666" height="93.5" filterUnits="userSpaceOnUse" color-interpolation-filters="sRGB">
<feFlood flood-opacity="0" result="BackgroundImageFix"/>
<feColorMatrix in="SourceAlpha" type="matrix" values="0 0 0 0 0 0 0 0 0 0 0 0 0 0 0 0 0 0 127 0" result="hardAlpha"/>
<feOffset dy="4"/>
<feGaussianBlur stdDeviation="10"/>
<feColorMatrix type="matrix" values="0 0 0 0 0.2 0 0 0 0 0.6 0 0 0 0 0.411765 0 0 0 0.28 0"/>
<feBlend mode="normal" in2="BackgroundImageFix" result="effect1_dropShadow_210_39663"/>
<feColorMatrix in="SourceAlpha" type="matrix" values="0 0 0 0 0 0 0 0 0 0 0 0 0 0 0 0 0 0 127 0" result="hardAlpha"/>
<feOffset dy="8"/>
<feGaussianBlur stdDeviation="12"/>
<feColorMatrix type="matrix" values="0 0 0 0 0.2 0 0 0 0 0.6 0 0 0 0 0.411765 0 0 0 0.1 0"/>
<feBlend mode="normal" in2="effect1_dropShadow_210_39663" result="effect2_dropShadow_210_39663"/>
<feBlend mode="normal" in="SourceGraphic" in2="effect2_dropShadow_210_39663" result="shape"/>
</filter>
<linearGradient id="paint0_linear_210_39663" x1="130.261" y1="-11.6828" x2="28.9542" y2="159.517" gradientUnits="userSpaceOnUse">
<stop stop-color="#93E9C1"/>
<stop offset="1" stop-color="#F1FEF8"/>
</linearGradient>
<linearGradient id="paint1_linear_210_39663" x1="65.7483" y1="70.6768" x2="69.9994" y2="93.4268" gradientUnits="userSpaceOnUse">
<stop stop-color="white"/>
<stop offset="1" stop-color="#F2F0FF"/>
</linearGradient>
</defs>
</svg>
