<svg width="20" height="21" viewBox="0 0 20 21" fill="none" xmlns="http://www.w3.org/2000/svg">
<path d="M16.1766 6.5514C15.3664 5.73941 14.4035 5.09583 13.3434 4.65777C12.2833 4.21971 11.147 3.99583 10 3.99906H9.96875C5.16172 4.01546 1.25 7.98343 1.25 12.8373V14.6241C1.25 14.9556 1.3817 15.2735 1.61612 15.5079C1.85054 15.7424 2.16848 15.8741 2.5 15.8741H17.5C17.8315 15.8741 18.1495 15.7424 18.3839 15.5079C18.6183 15.2735 18.75 14.9556 18.75 14.6241V12.7491C18.7532 11.597 18.5274 10.4558 18.0856 9.39184C17.6438 8.32787 16.9949 7.36234 16.1766 6.5514ZM17.5 14.6241H9.35234L13.6305 8.74124C13.7281 8.60719 13.7684 8.43985 13.7426 8.27605C13.7168 8.11225 13.627 7.9654 13.493 7.86781C13.3589 7.77022 13.1916 7.72988 13.0278 7.75566C12.864 7.78145 12.7171 7.87125 12.6195 8.00531L7.80625 14.6241H2.5V12.8373C2.5 12.5967 2.51172 12.3592 2.53359 12.1241H4.375C4.54076 12.1241 4.69973 12.0582 4.81694 11.941C4.93415 11.8238 5 11.6648 5 11.4991C5 11.3333 4.93415 11.1743 4.81694 11.0571C4.69973 10.9399 4.54076 10.8741 4.375 10.8741H2.75547C3.56172 7.83812 6.19297 5.54281 9.375 5.27562V7.12406C9.375 7.28982 9.44085 7.44879 9.55806 7.566C9.67527 7.68321 9.83424 7.74906 10 7.74906C10.1658 7.74906 10.3247 7.68321 10.4419 7.566C10.5592 7.44879 10.625 7.28982 10.625 7.12406V5.27484C12.1755 5.40532 13.6472 6.01413 14.8368 7.01715C16.0264 8.02017 16.8751 9.36788 17.2656 10.8741H15.625C15.4592 10.8741 15.3003 10.9399 15.1831 11.0571C15.0658 11.1743 15 11.3333 15 11.4991C15 11.6648 15.0658 11.8238 15.1831 11.941C15.3003 12.0582 15.4592 12.1241 15.625 12.1241H17.4742C17.4906 12.3311 17.5 12.5389 17.5 12.7491V14.6241Z" fill="#49576D"/>
</svg>
