<svg width="20" height="21" viewBox="0 0 20 21" fill="none" xmlns="http://www.w3.org/2000/svg">
<path d="M16.25 3.37402H3.75C3.41848 3.37402 3.10054 3.50572 2.86612 3.74014C2.6317 3.97456 2.5 4.2925 2.5 4.62402V9.21621C2.5 16.217 8.42344 18.5396 9.60938 18.9342C9.86267 19.0203 10.1373 19.0203 10.3906 18.9342C11.5781 18.5396 17.5 16.217 17.5 9.21621V4.62402C17.5 4.2925 17.3683 3.97456 17.1339 3.74014C16.8995 3.50572 16.5815 3.37402 16.25 3.37402ZM16.25 9.21699C16.25 15.3436 11.0664 17.3904 10 17.7467C8.94297 17.3943 3.75 15.349 3.75 9.21699V4.62402H16.25V9.21699ZM6.43281 11.3162C6.31554 11.1989 6.24965 11.0399 6.24965 10.874C6.24965 10.7082 6.31554 10.5491 6.43281 10.4318C6.55009 10.3146 6.70915 10.2487 6.875 10.2487C7.04085 10.2487 7.19991 10.3146 7.31719 10.4318L8.75 11.8646L12.6828 7.93184C12.7409 7.87377 12.8098 7.8277 12.8857 7.79628C12.9616 7.76485 13.0429 7.74868 13.125 7.74868C13.2071 7.74868 13.2884 7.76485 13.3643 7.79628C13.4402 7.8277 13.5091 7.87377 13.5672 7.93184C13.6253 7.9899 13.6713 8.05884 13.7027 8.13471C13.7342 8.21058 13.7503 8.2919 13.7503 8.37402C13.7503 8.45615 13.7342 8.53746 13.7027 8.61333C13.6713 8.6892 13.6253 8.75814 13.5672 8.81621L9.19219 13.1912C9.13414 13.2493 9.06521 13.2954 8.98934 13.3269C8.91346 13.3583 8.83213 13.3745 8.75 13.3745C8.66787 13.3745 8.58654 13.3583 8.51066 13.3269C8.43479 13.2954 8.36586 13.2493 8.30781 13.1912L6.43281 11.3162Z" fill="#49576D"/>
</svg>
