<svg width="20" height="21" viewBox="0 0 20 21" fill="none" xmlns="http://www.w3.org/2000/svg">
<path d="M18.0407 16.8116C16.8508 14.7545 15.0172 13.2795 12.8774 12.5803C13.9358 11.9502 14.7582 10.9901 15.2182 9.84735C15.6781 8.70463 15.7503 7.44251 15.4235 6.25482C15.0968 5.06713 14.3892 4.01954 13.4094 3.27292C12.4296 2.5263 11.2318 2.12195 10 2.12195C8.76821 2.12195 7.57044 2.5263 6.59067 3.27292C5.6109 4.01954 4.90331 5.06713 4.57654 6.25482C4.24978 7.44251 4.32193 8.70463 4.78189 9.84735C5.24186 10.9901 6.06422 11.9502 7.12268 12.5803C4.98284 13.2788 3.14925 14.7538 1.9594 16.8116C1.91577 16.8827 1.88683 16.9619 1.87429 17.0444C1.86174 17.1269 1.86585 17.2111 1.88638 17.292C1.9069 17.3729 1.94341 17.4489 1.99377 17.5154C2.04413 17.582 2.10731 17.6378 2.17958 17.6795C2.25185 17.7213 2.33175 17.7481 2.41457 17.7585C2.49738 17.7689 2.58143 17.7625 2.66176 17.7399C2.74209 17.7172 2.81708 17.6787 2.88228 17.6266C2.94749 17.5745 3.00161 17.5099 3.04143 17.4366C4.51331 14.8928 7.11487 13.3741 10 13.3741C12.8852 13.3741 15.4867 14.8928 16.9586 17.4366C16.9985 17.5099 17.0526 17.5745 17.1178 17.6266C17.183 17.6787 17.258 17.7172 17.3383 17.7399C17.4186 17.7625 17.5027 17.7689 17.5855 17.7585C17.6683 17.7481 17.7482 17.7213 17.8205 17.6795C17.8927 17.6378 17.9559 17.582 18.0063 17.5154C18.0566 17.4489 18.0932 17.3729 18.1137 17.292C18.1342 17.2111 18.1383 17.1269 18.1258 17.0444C18.1132 16.9619 18.0843 16.8827 18.0407 16.8116ZM5.62503 7.74907C5.62503 6.88378 5.88162 6.03792 6.36235 5.31845C6.84308 4.59899 7.52636 4.03823 8.32579 3.7071C9.12522 3.37597 10.0049 3.28933 10.8535 3.45814C11.7022 3.62695 12.4818 4.04363 13.0936 4.65548C13.7055 5.26734 14.1222 6.04689 14.291 6.89555C14.4598 7.74422 14.3731 8.62389 14.042 9.42331C13.7109 10.2227 13.1501 10.906 12.4306 11.3868C11.7112 11.8675 10.8653 12.1241 10 12.1241C8.84009 12.1228 7.72801 11.6615 6.90781 10.8413C6.0876 10.0211 5.62627 8.90902 5.62503 7.74907Z" fill="#8872FD"/>
</svg>
